<svg width="143" height="171" viewBox="0 0 143 171" fill="none" xmlns="http://www.w3.org/2000/svg">
<g clip-path="url(#clip0_126_14)">
<path d="M92.7632 0C87.6002 0 83.3438 4.28448 83.3438 9.48156V18.9631C83.3438 20.6185 83.9207 22.3093 85.1099 23.5064C85.993 24.3953 87.1214 24.9642 88.3478 25.1854C87.8808 25.5568 87.3058 25.8392 86.5817 25.9755H86.4836C72.2191 29.1242 61.3652 41.79 61.3652 57.1857V66.3709C61.3652 70.3453 64.1616 73.174 67.6448 74.5686V115.063C64.1616 116.457 61.3652 119.286 61.3652 123.26V142.223C61.3652 150.903 68.4415 158.026 77.0642 158.026H127.301C135.924 158.026 143 150.903 143 142.223V123.26C143 119.286 140.204 116.457 136.72 115.063V74.5686C140.204 73.174 143 70.3453 143 66.3709V57.1857C143 41.79 132.146 29.1242 117.882 25.9755H117.783C117.059 25.8392 116.484 25.5568 116.017 25.1854C117.244 24.9642 118.372 24.3953 119.255 23.5064C120.444 22.3093 121.021 20.6185 121.021 18.9631V9.48156C121.021 4.28448 116.765 0 111.602 0H92.7632ZM92.7632 6.32104H111.602C113.345 6.32104 114.742 7.72945 114.742 9.48156V18.9631H89.6234V9.48156C89.6234 7.72945 91.0206 6.32104 92.7632 6.32104ZM94.8237 25.2842H109.541C110.682 28.5928 112.999 31.384 116.606 32.099V32.1978H116.704C128.147 34.7657 136.72 44.8024 136.72 57.1857V66.3709C136.72 68.125 135.323 69.5315 133.581 69.5315H80.204V75.8525H130.441V113.779H80.204V120.1H133.581C135.323 120.1 136.72 121.506 136.72 123.26V142.223C136.72 147.458 132.501 151.705 127.301 151.705H77.0642C71.8639 151.705 67.6448 147.458 67.6448 142.223V123.26C67.6448 121.506 69.044 120.1 70.7846 120.1H73.9244V69.5315H70.7846C69.044 69.5315 67.6448 68.125 67.6448 66.3709V57.1857C67.6448 44.8024 76.2184 34.7657 87.661 32.1978C87.7101 32.186 87.7101 32.1109 87.7591 32.099C91.366 31.384 93.6835 28.5928 94.8237 25.2842Z" fill="black"/>
<path d="M42.3088 168.035C42.3088 168.035 75.2766 172.776 76.8465 161.011C78.4164 149.246 78.2417 133.619 78.2417 133.619L72.3115 129.931V85.662C72.3115 85.662 79.8116 85.1563 79.115 79.011C78.4184 72.8658 82.0801 49.3377 54.5206 40.909C51.3808 34.2363 49.4616 34.2363 49.4616 34.2363H56.4398L54.8699 16.8535H28.2601L25.5638 31.9351L31.8434 35.1153L26.7844 41.9638C26.7844 41.9638 4.63122 42.3154 2.53737 71.6371C3.40866 83.2264 9.16626 86.9123 9.16626 86.9123V130.283L2.53737 134.496C2.53737 134.496 0.443521 157.635 5.50252 164.677C10.5615 171.719 42.3088 168.033 42.3088 168.033V168.035Z" fill="white"/>
<path d="M31.3979 12.9739C26.2349 12.9739 21.9786 17.2584 21.9786 22.4555V31.9371C21.9786 33.5924 22.5555 35.2833 23.7447 36.4803C24.6278 37.3692 25.7561 37.9381 26.9826 38.1593C26.5156 38.5307 25.9406 38.8132 25.2165 38.9495H25.1184C10.8539 42.0981 0 54.7639 0 70.1596V79.3449C0 83.3192 2.79638 86.1479 6.27959 87.5425V128.037C2.79638 129.431 0 132.26 0 136.234V155.197C0 163.877 7.07631 171 15.699 171H65.9357C74.5583 171 81.6347 163.877 81.6347 155.197V136.234C81.6347 132.26 78.8383 129.431 75.3551 128.037V87.5425C78.8383 86.1479 81.6347 83.3192 81.6347 79.3449V70.1596C81.6347 54.7639 70.7808 42.0981 56.5163 38.9495H56.4182C55.6941 38.8132 55.1191 38.5307 54.6521 38.1593C55.8785 37.9381 57.0069 37.3692 57.89 36.4803C59.0792 35.2833 59.6561 33.5924 59.6561 31.9371V22.4555C59.6561 17.2584 55.3997 12.9739 50.2367 12.9739H31.3979ZM31.3979 19.295H50.2367C51.9793 19.295 53.3765 20.7034 53.3765 22.4555V31.9371H28.2582V22.4555C28.2582 20.7034 29.6554 19.295 31.3979 19.295ZM33.4584 38.2581H48.1762C49.3164 41.5668 51.6339 44.3579 55.2408 45.073V45.1717H55.3389C66.7815 47.7397 75.3551 57.7763 75.3551 70.1596V79.3449C75.3551 81.099 73.9579 82.5054 72.2153 82.5054H18.8388V88.8264H69.0755V126.753H18.8388V133.074H72.2153C73.9579 133.074 75.3551 134.48 75.3551 136.234V155.197C75.3551 160.432 71.136 164.679 65.9357 164.679H15.699C10.4987 164.679 6.27959 160.432 6.27959 155.197V136.234C6.27959 134.48 7.67876 133.074 9.41938 133.074H12.5592V82.5054H9.41938C7.67876 82.5054 6.27959 81.099 6.27959 79.3449V70.1596C6.27959 57.7763 14.8532 47.7397 26.2958 45.1717C26.3448 45.1599 26.3448 45.0848 26.3939 45.073C30.0007 44.3579 32.3183 41.5668 33.4584 38.2581Z" fill="black"/>
</g>
<defs>
<clipPath id="clip0_126_14">
<rect width="143" height="171" fill="white"/>
</clipPath>
</defs>
</svg>
