<svg width="143" height="158" viewBox="0 0 143 158" fill="none" xmlns="http://www.w3.org/2000/svg">
<path d="M54.5199 0C49.3232 0 45.0399 4.28328 45.0399 9.48V18.96C45.0399 20.6141 45.6201 22.3052 46.8174 23.5025C47.7062 24.3913 48.8418 24.9591 50.0762 25.1813C49.6071 25.5516 49.027 25.8355 48.2987 25.9713H48.1999C33.8441 29.1189 22.9199 41.7836 22.9199 57.1763V66.36C22.9199 70.3347 25.7343 73.1614 29.2399 74.5563V115.044C25.7343 116.439 22.9199 119.265 22.9199 123.24V142.2C22.9199 150.878 30.0423 158 38.7199 158H89.2799C97.9576 158 105.08 150.878 105.08 142.2V123.24C105.08 119.265 102.266 116.439 98.7599 115.044V74.5563C102.266 73.1614 105.08 70.3347 105.08 66.36V57.1763C105.08 41.7836 94.1557 29.1189 79.7999 25.9713H79.7012C78.9729 25.8355 78.3927 25.5516 77.9237 25.1813C79.158 24.9591 80.2937 24.3913 81.1824 23.5025C82.3798 22.3052 82.9599 20.6141 82.9599 18.96V9.48C82.9599 4.28328 78.6766 0 73.4799 0H54.5199ZM54.5199 6.32H73.4799C75.2327 6.32 76.6399 7.72719 76.6399 9.48V18.96H51.3599V9.48C51.3599 7.72719 52.7671 6.32 54.5199 6.32ZM56.5937 25.28H71.4062C72.5541 28.5881 74.8871 31.3778 78.5162 32.0938V32.1925C78.5409 32.1925 78.5902 32.1925 78.6149 32.1925C90.1316 34.76 98.7599 44.7955 98.7599 57.1763V66.36C98.7599 68.1128 97.3527 69.52 95.5999 69.52H41.8799V75.84H92.4399V113.76H41.8799V120.08H95.5999C97.3527 120.08 98.7599 121.487 98.7599 123.24V142.2C98.7599 147.434 94.5137 151.68 89.2799 151.68H38.7199C33.4862 151.68 29.2399 147.434 29.2399 142.2V123.24C29.2399 121.487 30.6471 120.08 32.3999 120.08H35.5599V69.52H32.3999C30.6471 69.52 29.2399 68.1128 29.2399 66.36V57.1763C29.2399 44.7955 37.8682 34.76 49.3849 32.1925C49.4343 32.1802 49.4343 32.1061 49.4837 32.0938C53.1127 31.3778 55.4457 28.5881 56.5937 25.28Z" fill="black"/>
</svg>
