<svg width="105" height="105" viewBox="0 0 105 105" fill="none" xmlns="http://www.w3.org/2000/svg">
<path fill-rule="evenodd" clip-rule="evenodd" d="M26.25 65.6699C25.3798 65.6699 24.5452 66.0156 23.9298 66.6309C23.3144 67.2463 22.9688 68.0809 22.9688 68.9512C22.9688 69.8214 23.3144 70.656 23.9298 71.2713C24.5452 71.8867 25.3798 72.2324 26.25 72.2324H52.5C53.3702 72.2324 54.2048 71.8867 54.8202 71.2713C55.4356 70.656 55.7812 69.8214 55.7812 68.9512C55.7812 68.0809 55.4356 67.2463 54.8202 66.6309C54.2048 66.0156 53.3702 65.6699 52.5 65.6699H26.25Z" fill="black"/>
<path fill-rule="evenodd" clip-rule="evenodd" d="M32.8125 55.8262C31.9423 55.8262 31.1077 56.1718 30.4923 56.7872C29.8769 57.4025 29.5312 58.2372 29.5312 59.1074C29.5312 59.9777 29.8769 60.8122 30.4923 61.4276C31.1077 62.0429 31.9423 62.3887 32.8125 62.3887H52.5C53.3702 62.3887 54.2048 62.0429 54.8202 61.4276C55.4356 60.8122 55.7812 59.9777 55.7812 59.1074C55.7812 58.2372 55.4356 57.4025 54.8202 56.7872C54.2048 56.1718 53.3702 55.8262 52.5 55.8262H32.8125Z" fill="black"/>
<path fill-rule="evenodd" clip-rule="evenodd" d="M42.6562 45.9824C41.786 45.9824 40.9514 46.3281 40.3361 46.9434C39.7207 47.5588 39.375 48.3934 39.375 49.2637C39.375 50.1339 39.7207 50.9685 40.3361 51.5838C40.9514 52.1992 41.786 52.5449 42.6562 52.5449H52.5C53.3702 52.5449 54.2048 52.1992 54.8202 51.5838C55.4356 50.9685 55.7812 50.1339 55.7812 49.2637C55.7812 48.3934 55.4356 47.5588 54.8202 46.9434C54.2048 46.3281 53.3702 45.9824 52.5 45.9824H42.6562Z" fill="black"/>
<path fill-rule="evenodd" clip-rule="evenodd" d="M29.1659 26.3142C28.4264 26.3974 27.7372 26.7296 27.2113 27.2562L21.3281 33.1394L18.7262 30.5375C18.1109 29.9223 17.2764 29.5767 16.4062 29.5767C15.5361 29.5767 14.7016 29.9223 14.0863 30.5375C13.4711 31.1528 13.1255 31.9873 13.1255 32.8574C13.1255 33.7276 13.4711 34.5621 14.0863 35.1774L19.0082 40.0993C19.6235 40.7144 20.458 41.06 21.3281 41.06C22.1982 41.06 23.0327 40.7144 23.6481 40.0993L31.8512 31.8961C32.4664 31.2808 32.812 30.4463 32.812 29.5762C32.812 28.7061 32.4664 27.8716 31.8512 27.2562C31.503 26.9077 31.0809 26.6421 30.616 26.479C30.1512 26.3159 29.6555 26.2596 29.1659 26.3142Z" fill="black"/>
<path fill-rule="evenodd" clip-rule="evenodd" d="M22.9688 13.1699C12.1345 13.1699 3.28125 22.0232 3.28125 32.8574C3.28125 38.6587 5.82208 43.891 9.84375 47.5013V85.3574C9.84384 86.2276 10.1896 87.0621 10.8049 87.6775C11.4202 88.2928 12.2548 88.6386 13.125 88.6387H20.2579C21.6219 92.4462 25.2809 95.2012 29.5312 95.2012C33.7816 95.2012 37.4406 92.4462 38.8046 88.6387H62.3438H69.4766C70.8406 92.4462 74.4996 95.2012 78.75 95.2012C83.0004 95.2012 86.6594 92.4462 88.0234 88.6387H98.4375C99.3077 88.6386 100.142 88.2928 100.758 87.6775C101.373 87.0621 101.719 86.2276 101.719 85.3574V62.3887C101.719 61.6434 101.466 60.9201 101.001 60.3379L87.876 43.9316C87.5683 43.5474 87.1782 43.2373 86.7344 43.0243C86.2907 42.8113 85.8047 42.7009 85.3125 42.7012H65.625V36.1387C65.6249 35.2685 65.2792 34.4339 64.6638 33.8185C64.0485 33.2032 63.214 32.8575 62.3438 32.8574H42.6562C42.6562 22.0232 33.803 13.1699 22.9688 13.1699ZM22.9688 19.7324C30.2563 19.7324 36.0938 25.5698 36.0938 32.8574C36.0938 40.145 30.2563 45.9824 22.9688 45.9824C20.1877 45.9824 17.6175 45.1317 15.5026 43.6753C15.2491 43.4075 14.9523 43.1843 14.6246 43.0152C11.6995 40.6146 9.84375 36.9665 9.84375 32.8574C9.84375 25.5698 15.6812 19.7324 22.9688 19.7324ZM41.5219 39.4199H59.0625V82.0762H38.8046C37.4406 78.2686 33.7816 75.5137 29.5312 75.5137C25.2809 75.5137 21.6219 78.2686 20.2579 82.0762H16.4062V51.4106C18.4612 52.1422 20.6697 52.5449 22.9688 52.5449C31.504 52.5449 38.8057 47.049 41.5219 39.4199ZM65.625 49.2637H72.1875V65.6699C72.1876 66.5401 72.5333 67.3746 73.1487 67.99C73.764 68.6053 74.5985 68.9511 75.4688 68.9512H95.1562V82.0762H88.0234C86.6594 78.2686 83.0004 75.5137 78.75 75.5137C74.4996 75.5137 70.8406 78.2686 69.4766 82.0762H65.625V49.2637ZM78.75 49.2637H83.736L94.2334 62.3887H78.75V49.2637ZM29.5312 82.0762C31.3823 82.0762 32.8125 83.5064 32.8125 85.3574C32.8125 87.2085 31.3823 88.6387 29.5312 88.6387C27.6802 88.6387 26.25 87.2085 26.25 85.3574C26.25 83.5064 27.6802 82.0762 29.5312 82.0762ZM78.75 82.0762C80.601 82.0762 82.0312 83.5064 82.0312 85.3574C82.0312 87.2085 80.601 88.6387 78.75 88.6387C76.899 88.6387 75.4688 87.2085 75.4688 85.3574C75.4688 83.5064 76.899 82.0762 78.75 82.0762Z" fill="black"/>
</svg>
