<svg width="800" height="800" viewBox="0 0 800 800" fill="none" xmlns="http://www.w3.org/2000/svg">
<g clip-path="url(#clip0_80_78)">
<path fill-rule="evenodd" clip-rule="evenodd" d="M101.225 83.172C108.733 70.332 123.84 64.0207 138.251 67.703C199.185 83.2724 251.706 108.39 301.043 145.51C332.324 135.314 365.57 129.823 400 129.823C434.426 129.823 467.673 135.314 498.956 145.51C548.293 108.39 600.813 83.2724 661.746 67.703C676.16 64.0207 691.266 70.332 698.773 83.172C720.453 120.245 722.733 161.502 718.076 198.539C714.14 229.841 704.93 260.546 695.87 286.881C719.836 335.247 733.333 390.16 733.333 448.243C733.333 469.32 731.55 489.263 728.11 508.067L759.123 500.863C777.056 496.697 794.97 507.857 799.133 525.79C803.3 543.723 792.14 561.637 774.206 565.8L703.256 582.283C692.916 602.4 680.09 620.553 665.056 636.713L687.603 656.707C701.38 668.923 702.643 689.99 690.43 703.763C678.216 717.537 657.147 718.803 643.373 706.587L612.953 679.613C553.603 716.997 478.6 733.333 400 733.333C321.397 733.333 246.395 716.997 187.045 679.613L156.624 706.59C142.85 718.803 121.783 717.537 109.568 703.763C97.3542 689.99 98.6185 668.923 112.393 656.707L134.941 636.713C119.907 620.553 107.081 602.4 96.7428 582.283L25.7901 565.8C7.85807 561.637 -3.30189 543.723 0.86365 525.79C5.0292 507.857 22.9428 496.697 40.8748 500.863L71.8895 508.067C68.4495 489.263 66.6658 469.32 66.6658 448.243C66.6658 390.16 80.1625 335.247 104.128 286.881C95.0702 260.546 85.8592 229.841 81.9235 198.539C77.2665 161.502 79.5448 120.245 101.225 83.172ZM655.186 525.007L546.41 550.273C534.266 553.097 524.713 562.457 521.646 574.543C518.576 586.627 522.51 599.413 531.836 607.683L560.316 632.937C516.96 655.227 462.003 666.667 400 666.667C337.996 666.667 283.037 655.227 239.681 632.937L268.16 607.683C277.488 599.413 281.42 586.627 278.353 574.543C275.285 562.46 265.73 553.097 253.586 550.277L144.812 525.007C137.387 502.66 133.332 477.183 133.332 448.243C133.332 396.073 146.579 347.357 169.581 305.537C174.185 297.167 174.977 287.223 171.754 278.229C161.51 249.637 151.737 219.395 148.069 190.222C145.749 171.769 146.053 155.109 149.518 140.375C195.312 155.42 235.33 177.575 273.984 208.969C283.327 216.556 296.034 218.519 307.23 214.102C336.103 202.714 367.34 196.49 400 196.49C432.66 196.49 463.896 202.714 492.77 214.102C503.963 218.519 516.673 216.556 526.013 208.969C564.666 177.575 604.686 155.42 650.48 140.375C653.946 155.109 654.25 171.769 651.93 190.222C648.26 219.395 638.486 249.637 628.243 278.229C625.02 287.223 625.813 297.167 630.416 305.537C653.42 347.357 666.666 396.073 666.666 448.243C666.666 477.183 662.613 502.66 655.186 525.007ZM533.333 450C560.946 450 583.333 427.613 583.333 400C583.333 372.383 560.946 350 533.333 350C505.72 350 483.333 372.383 483.333 400C483.333 427.613 505.72 450 533.333 450ZM270.71 454.043C298.324 454.043 320.71 431.657 320.71 404.043C320.71 376.427 298.324 354.043 270.71 354.043C243.096 354.043 220.71 376.427 220.71 404.043C220.71 431.657 243.096 454.043 270.71 454.043ZM366.666 500C353.183 500 341.03 508.12 335.87 520.577C330.711 533.033 333.563 547.37 343.096 556.903L376.43 590.237C389.446 603.253 410.553 603.253 423.57 590.237L456.903 556.903C466.436 547.37 469.286 533.033 464.13 520.577C458.97 508.12 446.813 500 433.333 500H366.666Z" fill="white" fill-opacity="0.3"/>
</g>
<defs>
<clipPath id="clip0_80_78">
<rect width="800" height="800" fill="white"/>
</clipPath>
</defs>
</svg>
