<svg width="239" height="470" viewBox="0 0 239 470" fill="none" xmlns="http://www.w3.org/2000/svg">
<g clip-path="url(#clip0_93_107)">
<path fill-rule="evenodd" clip-rule="evenodd" d="M60.3554 36.5913C64.8322 28.9354 73.8396 25.1723 82.4323 27.3679C118.764 36.6511 150.08 51.6275 179.497 73.7603C198.149 67.681 217.971 64.4071 238.5 64.4071C259.027 64.4071 278.85 67.681 297.503 73.7603C326.92 51.6275 358.235 36.6511 394.566 27.3679C403.16 25.1723 412.168 28.9354 416.644 36.5913C429.57 58.6961 430.93 83.2957 428.153 105.379C425.806 124.043 420.314 142.35 414.912 158.053C429.203 186.891 437.25 219.633 437.25 254.265C437.25 266.832 436.187 278.723 434.136 289.935L452.627 285.64C463.32 283.155 474.001 289.81 476.483 300.502C478.968 311.195 472.313 321.876 461.621 324.358L419.317 334.186C413.152 346.181 405.504 357.005 396.54 366.64L409.983 378.561C418.198 385.846 418.951 398.407 411.669 406.619C404.387 414.831 391.824 415.586 383.611 408.302L365.473 392.219C330.086 414.509 285.365 424.25 238.5 424.25C191.633 424.25 146.913 414.509 111.526 392.219L93.387 408.304C85.1743 415.586 72.6129 414.831 65.3301 406.619C58.0475 398.407 58.8013 385.846 67.0143 378.561L80.4583 366.64C71.4945 357.005 63.8472 346.181 57.683 334.186L15.3774 324.358C4.68544 321.876 -1.96868 311.195 0.515018 300.502C2.99873 289.81 13.6797 283.155 24.3717 285.64L42.8642 289.935C40.8131 278.723 39.7496 266.832 39.7496 254.265C39.7496 219.633 47.797 186.891 62.0865 158.053C56.6857 142.35 51.1936 124.043 48.847 105.379C46.0702 83.2957 47.4287 58.6961 60.3554 36.5913ZM390.655 300.035L325.797 315.1C318.556 316.784 312.86 322.365 311.032 329.571C309.201 336.776 311.547 344.4 317.108 349.331L334.089 364.388C308.237 377.679 275.469 384.5 238.5 384.5C201.53 384.5 168.761 377.679 142.91 364.388L159.89 349.331C165.452 344.4 167.797 336.776 165.968 329.571C164.139 322.367 158.442 316.784 151.201 315.102L86.3441 300.035C81.917 286.711 79.4996 271.521 79.4996 254.265C79.4996 223.159 87.3977 194.111 101.113 169.177C103.858 164.186 104.33 158.257 102.409 152.894C96.3007 135.846 90.4734 117.814 88.2863 100.42C86.9028 89.4174 87.0843 79.4837 89.1505 70.6984C116.455 79.6689 140.316 92.8789 163.363 111.598C168.934 116.122 176.51 117.292 183.186 114.658C200.402 107.868 219.026 104.157 238.5 104.157C257.973 104.157 276.598 107.868 293.814 114.658C300.488 117.292 308.066 116.122 313.635 111.598C336.682 92.8789 360.544 79.6689 387.849 70.6984C389.916 79.4837 390.097 89.4174 388.713 100.42C386.525 117.814 380.698 135.846 374.59 152.894C372.668 158.257 373.141 164.186 375.886 169.177C389.602 194.111 397.5 223.159 397.5 254.265C397.5 271.521 395.083 286.711 390.655 300.035ZM318 255.312C334.464 255.312 347.812 241.964 347.812 225.5C347.812 209.034 334.464 195.687 318 195.687C301.536 195.687 288.187 209.034 288.187 225.5C288.187 241.964 301.536 255.312 318 255.312ZM161.411 257.723C177.876 257.723 191.224 244.375 191.224 227.911C191.224 211.444 177.876 198.098 161.411 198.098C144.946 198.098 131.599 211.444 131.599 227.911C131.599 244.375 144.946 257.723 161.411 257.723ZM218.625 285.125C210.586 285.125 203.339 289.967 200.262 297.394C197.186 304.821 198.887 313.369 204.571 319.054L224.446 338.929C232.208 346.69 244.792 346.69 252.554 338.929L272.429 319.054C278.113 313.369 279.812 304.821 276.737 297.394C273.661 289.967 266.412 285.125 258.375 285.125H218.625Z" fill="#FDBBFE" fill-opacity="0.5"/>
</g>
<defs>
<clipPath id="clip0_93_107">
<rect width="477" height="477" fill="white"/>
</clipPath>
</defs>
</svg>
