<svg width="64" height="699" viewBox="0 0 64 699" fill="none" xmlns="http://www.w3.org/2000/svg">
<g clip-path="url(#clip0_344_6)">
<path d="M63.9903 10.9259C63.9468 10.5576 63.7574 10.2228 63.464 9.99404L51.6977 0.790155C51.0899 0.311701 50.2057 0.419131 49.727 1.02303L29.5856 26.4461C29.1069 27.0516 29.2109 27.9277 29.8215 28.4047C30.4306 28.8818 31.3121 28.7758 31.7922 28.1719L51.0647 3.84502L60.6246 11.322L37.9889 39.8183L32.0826 46.955C31.59 47.5506 31.677 48.4294 32.2763 48.9191C32.5374 49.1325 32.8519 49.2371 33.1663 49.2371C33.5719 49.2371 33.9734 49.0627 34.2512 48.7279L40.1758 41.5689L63.6999 11.9552C63.9285 11.6638 64.0338 11.2942 63.9903 10.9259Z" fill="#00D816"/>
<path d="M25.9799 29.4607C26.5779 29.949 27.4621 29.8639 27.9548 29.2696C28.4474 28.6739 28.3604 27.7951 27.761 27.3055L11.8036 14.2613C11.5159 14.0268 11.1425 13.9069 10.7776 13.9501C10.4057 13.985 10.066 14.1663 9.82876 14.4523L0.319489 25.9441C-0.173147 26.5397 -0.0861198 27.4186 0.511846 27.9082L27.7667 50.1913C28.0292 50.4048 28.3436 50.5093 28.658 50.5093C29.0637 50.5093 29.4651 50.3349 29.743 50.0001C30.2356 49.4058 30.1486 48.5256 29.5506 48.036L3.37804 26.6388L11.1048 17.3022L25.9799 29.4607Z" fill="#00D816"/>
</g>
<g clip-path="url(#clip1_344_6)">
<path d="M63.9903 91.9259C63.9468 91.5576 63.7574 91.2228 63.464 90.994L51.6977 81.7902C51.0899 81.3117 50.2057 81.4191 49.727 82.023L29.5856 107.446C29.1069 108.052 29.2109 108.928 29.8215 109.405C30.4306 109.882 31.3121 109.776 31.7922 109.172L51.0647 84.845L60.6246 92.322L37.9889 120.818L32.0826 127.955C31.59 128.551 31.677 129.429 32.2763 129.919C32.5374 130.133 32.8519 130.237 33.1663 130.237C33.5719 130.237 33.9734 130.063 34.2512 129.728L40.1758 122.569L63.6999 92.9552C63.9285 92.6638 64.0338 92.2942 63.9903 91.9259Z" fill="#00D3A1"/>
<path d="M25.9799 110.461C26.5779 110.949 27.4621 110.864 27.9548 110.27C28.4474 109.674 28.3604 108.795 27.761 108.305L11.8036 95.2613C11.5159 95.0268 11.1425 94.9069 10.7776 94.9501C10.4057 94.985 10.066 95.1663 9.82876 95.4523L0.319489 106.944C-0.173147 107.54 -0.0861198 108.419 0.511846 108.908L27.7667 131.191C28.0292 131.405 28.3436 131.509 28.658 131.509C29.0637 131.509 29.4651 131.335 29.743 131C30.2356 130.406 30.1486 129.526 29.5506 129.036L3.37804 107.639L11.1048 98.3022L25.9799 110.461Z" fill="#00D3A1"/>
</g>
<g clip-path="url(#clip2_344_6)">
<path d="M63.9903 172.926C63.9468 172.558 63.7574 172.223 63.464 171.994L51.6977 162.79C51.0899 162.312 50.2057 162.419 49.727 163.023L29.5856 188.446C29.1069 189.052 29.2109 189.928 29.8215 190.405C30.4306 190.882 31.3121 190.776 31.7922 190.172L51.0647 165.845L60.6246 173.322L37.9889 201.818L32.0826 208.955C31.59 209.551 31.677 210.429 32.2763 210.919C32.5374 211.133 32.8519 211.237 33.1663 211.237C33.5719 211.237 33.9734 211.063 34.2512 210.728L40.1758 203.569L63.6999 173.955C63.9285 173.664 64.0338 173.294 63.9903 172.926Z" fill="#00C1CD"/>
<path d="M25.9799 191.461C26.5779 191.949 27.4621 191.864 27.9548 191.27C28.4474 190.674 28.3604 189.795 27.761 189.305L11.8036 176.261C11.5159 176.027 11.1425 175.907 10.7776 175.95C10.4057 175.985 10.066 176.166 9.82876 176.452L0.319489 187.944C-0.173147 188.54 -0.0861198 189.419 0.511846 189.908L27.7667 212.191C28.0292 212.405 28.3436 212.509 28.658 212.509C29.0637 212.509 29.4651 212.335 29.743 212C30.2356 211.406 30.1486 210.526 29.5506 210.036L3.37804 188.639L11.1048 179.302L25.9799 191.461Z" fill="#00C1CD"/>
</g>
<g clip-path="url(#clip3_344_6)">
<path d="M63.9903 334.926C63.9468 334.558 63.7574 334.223 63.464 333.994L51.6977 324.79C51.0899 324.312 50.2057 324.419 49.727 325.023L29.5856 350.446C29.1069 351.052 29.2109 351.928 29.8215 352.405C30.4306 352.882 31.3121 352.776 31.7922 352.172L51.0647 327.845L60.6246 335.322L37.9889 363.818L32.0826 370.955C31.59 371.551 31.677 372.429 32.2763 372.919C32.5374 373.133 32.8519 373.237 33.1663 373.237C33.5719 373.237 33.9734 373.063 34.2512 372.728L40.1758 365.569L63.6999 335.955C63.9285 335.664 64.0338 335.294 63.9903 334.926Z" fill="#0059C2"/>
<path d="M25.9799 353.461C26.5779 353.949 27.4621 353.864 27.9548 353.27C28.4474 352.674 28.3604 351.795 27.761 351.305L11.8036 338.261C11.5159 338.027 11.1425 337.907 10.7776 337.95C10.4057 337.985 10.066 338.166 9.82876 338.452L0.319489 349.944C-0.173147 350.54 -0.0861198 351.419 0.511846 351.908L27.7667 374.191C28.0292 374.405 28.3436 374.509 28.658 374.509C29.0637 374.509 29.4651 374.335 29.743 374C30.2356 373.406 30.1486 372.526 29.5506 372.036L3.37804 350.639L11.1048 341.302L25.9799 353.461Z" fill="#0059C2"/>
</g>
<g clip-path="url(#clip4_344_6)">
<path d="M63.9903 577.926C63.9468 577.558 63.7574 577.223 63.464 576.994L51.6977 567.79C51.0899 567.312 50.2057 567.419 49.727 568.023L29.5856 593.446C29.1069 594.052 29.2109 594.928 29.8215 595.405C30.4306 595.882 31.3121 595.776 31.7922 595.172L51.0647 570.845L60.6246 578.322L37.9889 606.818L32.0826 613.955C31.59 614.551 31.677 615.429 32.2763 615.919C32.5374 616.133 32.8519 616.237 33.1663 616.237C33.5719 616.237 33.9734 616.063 34.2512 615.728L40.1758 608.569L63.6999 578.955C63.9285 578.664 64.0338 578.294 63.9903 577.926Z" fill="#C80084"/>
<path d="M25.9799 596.461C26.5779 596.949 27.4621 596.864 27.9548 596.27C28.4474 595.674 28.3604 594.795 27.761 594.305L11.8036 581.261C11.5159 581.027 11.1425 580.907 10.7776 580.95C10.4057 580.985 10.066 581.166 9.82876 581.452L0.319489 592.944C-0.173147 593.54 -0.0861198 594.419 0.511846 594.908L27.7667 617.191C28.0292 617.405 28.3436 617.509 28.658 617.509C29.0637 617.509 29.4651 617.335 29.743 617C30.2356 616.406 30.1486 615.526 29.5506 615.036L3.37804 593.639L11.1048 584.302L25.9799 596.461Z" fill="#C80084"/>
</g>
<g clip-path="url(#clip5_344_6)">
<path d="M63.9903 415.926C63.9468 415.558 63.7574 415.223 63.464 414.994L51.6977 405.79C51.0899 405.312 50.2057 405.419 49.727 406.023L29.5856 431.446C29.1069 432.052 29.2109 432.928 29.8215 433.405C30.4306 433.882 31.3121 433.776 31.7922 433.172L51.0647 408.845L60.6246 416.322L37.9889 444.818L32.0826 451.955C31.59 452.551 31.677 453.429 32.2763 453.919C32.5374 454.133 32.8519 454.237 33.1663 454.237C33.5719 454.237 33.9734 454.063 34.2512 453.728L40.1758 446.569L63.6999 416.955C63.9285 416.664 64.0338 416.294 63.9903 415.926Z" fill="#0008BF"/>
<path d="M25.9799 434.461C26.5779 434.949 27.4621 434.864 27.9548 434.27C28.4474 433.674 28.3604 432.795 27.761 432.305L11.8036 419.261C11.5159 419.027 11.1425 418.907 10.7776 418.95C10.4057 418.985 10.066 419.166 9.82876 419.452L0.319489 430.944C-0.173147 431.54 -0.0861198 432.419 0.511846 432.908L27.7667 455.191C28.0292 455.405 28.3436 455.509 28.658 455.509C29.0637 455.509 29.4651 455.335 29.743 455C30.2356 454.406 30.1486 453.526 29.5506 453.036L3.37804 431.639L11.1048 422.302L25.9799 434.461Z" fill="#0008BF"/>
</g>
<g clip-path="url(#clip6_344_6)">
<path d="M63.9903 658.926C63.9468 658.558 63.7574 658.223 63.464 657.994L51.6977 648.79C51.0899 648.312 50.2057 648.419 49.727 649.023L29.5856 674.446C29.1069 675.052 29.2109 675.928 29.8215 676.405C30.4306 676.882 31.3121 676.776 31.7922 676.172L51.0647 651.845L60.6246 659.322L37.9889 687.818L32.0826 694.955C31.59 695.551 31.677 696.429 32.2763 696.919C32.5374 697.133 32.8519 697.237 33.1663 697.237C33.5719 697.237 33.9734 697.063 34.2512 696.728L40.1758 689.569L63.6999 659.955C63.9285 659.664 64.0338 659.294 63.9903 658.926Z" fill="#C00000"/>
<path d="M25.9799 677.461C26.5779 677.949 27.4621 677.864 27.9548 677.27C28.4474 676.674 28.3604 675.795 27.761 675.305L11.8036 662.261C11.5159 662.027 11.1425 661.907 10.7776 661.95C10.4057 661.985 10.066 662.166 9.82876 662.452L0.319489 673.944C-0.173147 674.54 -0.0861198 675.419 0.511846 675.908L27.7667 698.191C28.0292 698.405 28.3436 698.509 28.658 698.509C29.0637 698.509 29.4651 698.335 29.743 698C30.2356 697.406 30.1486 696.526 29.5506 696.036L3.37804 674.639L11.1048 665.302L25.9799 677.461Z" fill="#C00000"/>
</g>
<g clip-path="url(#clip7_344_6)">
<path d="M63.9903 253.926C63.9468 253.558 63.7574 253.223 63.464 252.994L51.6977 243.79C51.0899 243.312 50.2057 243.419 49.727 244.023L29.5856 269.446C29.1069 270.052 29.2109 270.928 29.8215 271.405C30.4306 271.882 31.3121 271.776 31.7922 271.172L51.0647 246.845L60.6246 254.322L37.9889 282.818L32.0826 289.955C31.59 290.551 31.677 291.429 32.2763 291.919C32.5374 292.133 32.8519 292.237 33.1663 292.237C33.5719 292.237 33.9734 292.063 34.2512 291.728L40.1758 284.569L63.6999 254.955C63.9285 254.664 64.0338 254.294 63.9903 253.926Z" fill="#0098C8"/>
<path d="M25.9799 272.461C26.5779 272.949 27.4621 272.864 27.9548 272.27C28.4474 271.674 28.3604 270.795 27.761 270.305L11.8036 257.261C11.5159 257.027 11.1425 256.907 10.7776 256.95C10.4057 256.985 10.066 257.166 9.82876 257.452L0.319489 268.944C-0.173147 269.54 -0.0861198 270.419 0.511846 270.908L27.7667 293.191C28.0292 293.405 28.3436 293.509 28.658 293.509C29.0637 293.509 29.4651 293.335 29.743 293C30.2356 292.406 30.1486 291.526 29.5506 291.036L3.37804 269.639L11.1048 260.302L25.9799 272.461Z" fill="#0098C8"/>
</g>
<g clip-path="url(#clip8_344_6)">
<path d="M63.9903 496.926C63.9468 496.558 63.7574 496.223 63.464 495.994L51.6977 486.79C51.0899 486.312 50.2057 486.419 49.727 487.023L29.5856 512.446C29.1069 513.052 29.2109 513.928 29.8215 514.405C30.4306 514.882 31.3121 514.776 31.7922 514.172L51.0647 489.845L60.6246 497.322L37.9889 525.818L32.0826 532.955C31.59 533.551 31.677 534.429 32.2763 534.919C32.5374 535.133 32.8519 535.237 33.1663 535.237C33.5719 535.237 33.9734 535.063 34.2512 534.728L40.1758 527.569L63.6999 497.955C63.9285 497.664 64.0338 497.294 63.9903 496.926Z" fill="#7D00C9"/>
<path d="M25.9799 515.461C26.5779 515.949 27.4621 515.864 27.9548 515.27C28.4474 514.674 28.3604 513.795 27.761 513.305L11.8036 500.261C11.5159 500.027 11.1425 499.907 10.7776 499.95C10.4057 499.985 10.066 500.166 9.82876 500.452L0.319489 511.944C-0.173147 512.54 -0.0861198 513.419 0.511846 513.908L27.7667 536.191C28.0292 536.405 28.3436 536.509 28.658 536.509C29.0637 536.509 29.4651 536.335 29.743 536C30.2356 535.406 30.1486 534.526 29.5506 534.036L3.37804 512.639L11.1048 503.302L25.9799 515.461Z" fill="#7D00C9"/>
</g>
<defs>
<clipPath id="clip0_344_6">
<rect width="64" height="51" fill="white"/>
</clipPath>
<clipPath id="clip1_344_6">
<rect width="64" height="51" fill="white" transform="translate(0 81)"/>
</clipPath>
<clipPath id="clip2_344_6">
<rect width="64" height="51" fill="white" transform="translate(0 162)"/>
</clipPath>
<clipPath id="clip3_344_6">
<rect width="64" height="51" fill="white" transform="translate(0 324)"/>
</clipPath>
<clipPath id="clip4_344_6">
<rect width="64" height="51" fill="white" transform="translate(0 567)"/>
</clipPath>
<clipPath id="clip5_344_6">
<rect width="64" height="51" fill="white" transform="translate(0 405)"/>
</clipPath>
<clipPath id="clip6_344_6">
<rect width="64" height="51" fill="white" transform="translate(0 648)"/>
</clipPath>
<clipPath id="clip7_344_6">
<rect width="64" height="51" fill="white" transform="translate(0 243)"/>
</clipPath>
<clipPath id="clip8_344_6">
<rect width="64" height="51" fill="white" transform="translate(0 486)"/>
</clipPath>
</defs>
</svg>
