<?xml version="1.0" encoding="UTF-8"?>
<svg id="_Слой_1" data-name="Слой 1" xmlns="http://www.w3.org/2000/svg" xmlns:xlink="http://www.w3.org/1999/xlink" viewBox="0 0 1608.05 1078.68">
  <defs>
    <style>
      .cls-1 {
        fill: url(#_Безымянный_градиент_60-3);
      }

      .cls-2 {
        fill: url(#_Безымянный_градиент_60);
      }

      .cls-3 {
        fill: url(#_Безымянный_градиент_60-2);
      }

      .cls-4 {
        fill: url(#_Безымянный_градиент_60-4);
      }

      .cls-5 {
        fill: url(#_Безымянный_градиент_60-5);
      }
    </style>
    <linearGradient id="_Безымянный_градиент_60" data-name="Безымянный градиент 60" x1="369.56" y1="164.28" x2="636.62" y2="164.28" gradientUnits="userSpaceOnUse">
      <stop offset="0" stop-color="#ffe000"/>
      <stop offset=".06" stop-color="#ffda03"/>
      <stop offset=".36" stop-color="#ffc812"/>
      <stop offset=".67" stop-color="#ffbc1b"/>
      <stop offset="1" stop-color="#ffb91e"/>
    </linearGradient>
    <linearGradient id="_Безымянный_градиент_60-2" data-name="Безымянный градиент 60" x1="51.78" y1="296.35" x2="305.09" y2="296.35" xlink:href="#_Безымянный_градиент_60"/>
    <linearGradient id="_Безымянный_градиент_60-3" data-name="Безымянный градиент 60" x1="679.75" y1="313.51" x2="958.91" y2="313.51" xlink:href="#_Безымянный_градиент_60"/>
    <linearGradient id="_Безымянный_градиент_60-4" data-name="Безымянный градиент 60" x1="769.28" y1="648.09" x2="1078.3" y2="648.09" xlink:href="#_Безымянный_градиент_60"/>
    <linearGradient id="_Безымянный_градиент_60-5" data-name="Безымянный градиент 60" x1="26.49" y1="752.11" x2="755.18" y2="752.11" xlink:href="#_Безымянный_градиент_60"/>
  </defs>
  <g>
    <path class="cls-2" d="m445.19,322.51c66.44,24.33,146.21-26.81,178.19-114.21,31.97-87.4,4.03-177.95-62.39-202.26-66.45-24.29-146.21,26.83-178.2,114.23-31.97,87.4-4.04,177.95,62.4,202.24Z"/>
    <path class="cls-3" d="m192.75,461.9c69.5-6.03,119.41-85,111.51-176.45-7.92-91.42-70.67-160.65-140.17-154.66-69.49,6.04-119.4,85.03-111.49,176.46,7.92,91.42,70.66,160.65,140.15,154.64Z"/>
    <path class="cls-1" d="m733.99,458.8c61,35.85,148.64-.15,195.78-80.38,47.14-80.28,35.9-174.36-25.1-210.21-60.99-35.82-148.66.2-195.79,80.43-47.13,80.27-35.88,174.34,25.11,210.15Z"/>
    <path class="cls-4" d="m1060.68,553.91c-39.55-57.45-132.88-61.9-208.48-9.89-75.62,52.04-104.84,140.78-65.3,198.25,39.54,57.45,132.87,61.9,208.48,9.87,75.59-52.02,104.83-140.76,65.3-198.24Z"/>
    <path class="cls-5" d="m654.6,564.75c-7.54-52.19-39.54-99.79-90.68-123.93-51.13-24.12-108.22-18.55-153.29,8.78-49.82,30.23-81.69,69.73-124.59,86.99-42.9,17.26-163.07-34.15-237.88,101.71-52.84,95.96-4.33,217.27,94.73,264.02,75.29,35.53,134.88,31.56,178.63,52.19,43.74,20.63,78.56,69.17,153.85,104.69,99.06,46.75,223.53,7.08,264.02-94.72,57.32-144.12-58.77-204.2-72.73-248.29-13.94-44.09-3.71-93.8-12.05-151.45Z"/>
  </g>
  <g>
    <path d="m126.12,356.6c-19.33,11.88-23.48,32.87-20.44,53.86,2.76,25.13,20.71,38.94,40.32,38.67,30.1,0,30.66-28.17,31.21-49.44,12.98-17.68,87.27-14.91,90.04,33.14,2.21,35.63-20.71,108.26-124.56,108.26-90.04,0-121.8-50.82-134.78-88.65-11.05-31.48-10.22-69.6.55-101.91,12.15-36.18,37.56-60.21,71.81-76.78,45.85-22.37,101.36-22.37,160.19,11.6,13.53,52.48-35.35,79.82-71.26,65.18-16.57-4.14-28.45-3.31-43.08,6.08Z"/>
    <path d="m563.05,341.14c12.98,35.35,16.02,71.26,4.97,107.71-14.91,48.06-47.23,78.44-96.39,90.04-39.77,9.67-78.71,6.63-115.44-12.43-35.08-17.95-55.24-47.5-63.8-85.34-8.29-35.63-6.08-76.5,6.9-104.95,17.4-38.94,54.13-80.37,130.08-80.65,94.18-.55,125.39,63.8,133.67,85.62Zm-168.75,63.52c1.93,32.04,23.2,43.36,37.56,42.26,14.64-.83,32.59-12.15,34.25-43.36,1.93-31.21-15.74-49.16-35.35-49.16s-38.67,17.4-36.46,50.27Z"/>
    <path d="m684.57,537.5c-28.45,0-73.74-5.8-81.75-59.93-5.8-38.94-9.67-135.33,1.1-203.55,25.41-22.92,90.31-23.48,97.77,44.19,3.31,32.59,3.31,90.04,2.21,124.56,25.13-1.93,75.4-1.38,114.34,3.31,22.37,41.7-9.39,88.93-48.06,91.42-38.94,2.49-85.62,0-85.62,0Z"/>
    <path d="m947.78,543.03c-66.28,0-98.04-17.95-102.74-70.98-4.14-45.02-3.87-114.34.83-197.47,45.85-27.07,145-22.09,181.45-2.76,44.47,23.48,65.46,61.31,65.46,120.69,0,50.54-25.13,150.52-145,150.52Zm50.54-147.21c.28-54.13-35.63-50.27-57.72-46.12,0,17.4-.55,64.63,0,95.84.28,8.56,8.84,9.94,12.98,9.94,21.27-.55,44.74-3.59,44.74-59.66Z"/>
    <path d="m1118.74,263.25c46.12-4.7,150.24-3.59,199.4.28,10.22,14.64,17.4,83.13-49.16,83.13h-56.89v14.36c16.02,0,61.59-3.04,85.07,4.42,16.57,36.73,3.87,68.77-36.73,70.7-14.08.55-22.37,0-48.06,0v16.85h95.01c20.99,29.55,13.81,77.33-38.67,84.24-22.92,3.04-95.01,3.59-114.89-1.1-25.96-6.63-37.29-25.13-39.49-62.69-2.21-37.84-1.11-163.5,4.42-210.18Z"/>
    <path d="m1507.33,278.72c33.69-40.88,99.98-18.23,99.98,28.45,0,33.69,2.49,160.74-1.66,216.53-23.75,23.75-83.41,29-117.38-17.12-15.47-21.27-34.52-58.27-40.88-68.22-.83-1.66-2.21-3.04-3.31-4.69-.55,0-1.38.28-1.93.28.83,33.14,3.31,51.65,2.49,91.14-45.29,37.01-99.15,6.63-100.25-26.51-2.21-68.22-3.04-189.19.28-221.78,26.24-22.37,83.41-29.83,109.65,14.64,19.06,32.31,28.45,49.99,48.33,85.06,1.1,2.21,2.49,4.14,3.59,6.08.28-.28.83-.28,1.1-.55v-103.29Z"/>
    <path d="m128.88,742.73c-19.61,12.15-23.75,33.14-20.71,54.68,4.42,32.59,31.48,43.08,59.66,38.94,18.78-2.49,42.53-18.23,49.16-22.37,38.94,7.46,64.35,74.29-6.08,107.44-29.55,13.81-77.88,11.88-109.92,3.87-48.06-12.43-78.16-43.36-91.69-90.31-9.11-32.59-10.22-65.46.83-98.05,12.43-36.73,37.84-60.76,72.36-77.88,46.12-22.37,102.46-22.37,161.84,11.88,13.81,52.75-35.63,80.65-71.81,66.01-16.85-4.14-28.72-3.59-43.64,5.8Z"/>
    <path d="m328.29,656.84c37.84-12.43,120.14-29.83,151.62,46.95,14.91,36.46,44.47,134.5,54.96,192.5-3.87,30.1-88.1,64.35-109.92-11.32-17.4-.83-36.73.28-54.41-.28-4.7,11.6-9.11,25.41-12.98,39.77-67.94,24.86-99.15-18.5-87.27-81.2,10.77-55.51,40.32-151.9,58-186.42Zm86.17,148.03c-5.25-22.37-10.77-44.19-16.02-66.28-.83.28-1.66.28-2.49.28-4.97,21.82-10.22,43.36-15.47,66.01h33.97Z"/>
    <path d="m693.69,743c-9.67.55-16.57,1.1-17.95,1.1,1.93,51.37,0,134.78-5.25,172.62-23.2,25.69-83.68,16.57-95.84-47.5-2.76-15.47-5.25-72.64-4.42-125.39-18.5,1.38-38.67,1.66-56.62-1.93-17.68-22.92-13.81-87.55,38.67-90.86,34.8-2.21,150.52-.55,182.01-.83,14.64,19.33,21.27,88.93-40.6,92.8Z"/>
  </g>
  <path d="m1072.57,591.68c0,21.04-17.46,37.66-39.55,37.66h-19.77c-43.49,0-79.09,33.91-79.09,75.31s35.61,75.31,79.09,75.31l22.89-.29c-1.05,8-2.1,12-2.1,21l-1.02,124.89h39.55v-125.36c0-57.07,48.82-103.56,108.75-103.56,17.84,0,34.6,3.9,49.43,11.18v-40.6c-15.45-5.22-32.05-8.24-49.43-8.24-56.69,0-115.78,38.69-134.68,83.69l-33.39-.37c-22.09,0-39.55-16.62-39.55-37.66s17.46-37.66,39.55-37.66h19.77c43.49,0,79.09-33.91,79.09-75.31h-39.55Zm177.96,31.42v120.62c0,48.03,45.8,84.73,98.87,84.73s98.87-36.7,98.87-84.73v-120.62l-30.9,20.59-32.75,21.77c-11.28-3.82-22.4-8.24-35.22-8.24s-23.94,4.41-35.22,8.24l-32.75-21.77-30.9-20.59Zm98.87,71.78c11.43,0,21.94,2.65,30.9,7.06l10.5,5.3,9.89-6.47,8.03-5.3v48.25c0,24.79-25.03,47.07-59.32,47.07s-59.32-22.29-59.32-47.07v-48.25l8.03,5.3,9.89,6.47,10.5-5.3c8.96-4.41,19.46-7.06,30.9-7.06Zm-138.41,95.91c-54.53,0-98.87,42.22-98.87,94.14v40.63h39.55v-40.63c0-31.11,26.65-56.49,59.32-56.49s59.32,25.37,59.32,56.49v40.63h39.55v-40.63c0-18.17-5.41-35.01-14.83-49.43-19.08-8.68-35.07-21.77-46.34-37.66-11.59-4.56-24.41-7.06-37.69-7.06Zm177.96,50.6c-12.44,3.82-25.64,5.88-39.55,5.88v78.29h39.55v-84.17Z"/>
</svg>