<svg width="123" height="123" viewBox="0 0 123 123" fill="none" xmlns="http://www.w3.org/2000/svg">
<path d="M20.5 58.6926V86.1011C20.5 91.8416 20.5 94.7136 21.6172 96.9066C22.5999 98.8352 24.1668 100.402 26.0955 101.384C28.2859 102.501 31.1548 102.501 36.8842 102.501H86.1159C91.8451 102.501 94.71 102.501 96.9004 101.384C98.829 100.402 100.401 98.8352 101.384 96.9066C102.5 94.7157 102.5 91.8482 102.5 86.119V58.6926C102.5 55.9543 102.497 54.5844 102.165 53.3098C101.87 52.1807 101.385 51.112 100.73 50.1463C99.9898 49.0566 98.9617 48.153 96.9004 46.3497L72.3004 24.8247C68.4741 21.4766 66.5609 19.8034 64.4079 19.1666C62.5106 18.6056 60.4883 18.6056 58.591 19.1666C56.4396 19.8029 54.529 21.4745 50.7086 24.8176L26.1004 46.3497C24.0395 48.153 23.0115 49.0566 22.2717 50.1463C21.6162 51.112 21.1281 52.1807 20.833 53.3098C20.5 54.5844 20.5 55.9543 20.5 58.6926Z" stroke="black" stroke-width="10.25" stroke-linecap="round" stroke-linejoin="round"/>
</svg>
