<svg width="123" height="123" viewBox="0 0 123 123" fill="none" xmlns="http://www.w3.org/2000/svg">
<path d="M10.25 102.5H20.5M20.5 102.5H46.125M20.5 102.5V36.901C20.5 31.1605 20.5 28.2881 21.6172 26.0955C22.5999 24.1668 24.1668 22.5999 26.0955 21.6172C28.2881 20.5 31.1605 20.5 36.901 20.5H45.101C50.8415 20.5 53.7079 20.5 55.9004 21.6172C57.829 22.5999 59.4013 24.1668 60.3838 26.0955C61.5 28.2859 61.5 31.1548 61.5 36.8842V51.251M46.125 102.5H102.5M46.125 102.5V73.637C46.125 70.9444 46.125 69.5975 46.4479 68.3419C46.734 67.2287 47.205 66.173 47.8417 65.2166C48.5596 64.1378 49.5645 63.2343 51.5652 61.437L63.3609 50.8398C67.2287 47.3648 69.1644 45.626 71.3528 44.9664C73.2819 44.3848 75.3411 44.3848 77.2701 44.9664C79.4606 45.6266 81.3988 47.3663 85.2733 50.8471L97.0608 61.437C99.0637 63.2364 100.063 64.1373 100.782 65.2166C101.418 66.173 101.889 67.2287 102.175 68.3419C102.497 69.5975 102.5 70.9444 102.5 73.637V102.5M102.5 102.5H112.75" stroke="black" stroke-width="10.25" stroke-linecap="round" stroke-linejoin="round"/>
</svg>
