<svg width="86" height="86" viewBox="0 0 86 86" fill="none" xmlns="http://www.w3.org/2000/svg">
<g clip-path="url(#clip0_58_458)">
<path d="M76.3104 39.9431L86 32.768L77.6244 4.54053L34.5124 5.92224L30.359 12.3719L15.5941 8.82054L0 41.0146L7.10323 47.1285L3.35282 52.9323C2.16831 54.7655 1.76854 56.9501 2.22727 59.084C2.68582 61.2179 3.94811 63.0452 5.78115 64.2297C7.11868 65.0941 8.64367 65.5406 10.1994 65.5406C10.6089 65.5406 11.0203 65.5081 11.4311 65.4457C11.9513 67.2955 13.1187 68.971 14.8557 70.0934C16.2233 70.9772 17.7585 71.3991 19.2771 71.3991C19.6873 71.3991 20.0956 71.3645 20.4996 71.3039C21.0367 73.2255 22.2397 74.8648 23.93 75.9571C25.2978 76.841 26.8328 77.2629 28.3514 77.2629C31.0344 77.2629 33.6658 75.9452 35.2271 73.5288L36.3414 71.8041L42.8675 76.1307L42.8947 76.1486C44.2322 77.013 45.7572 77.4596 47.3129 77.4596C47.8891 77.4596 48.4697 77.3983 49.0464 77.2745C51.1802 76.8158 53.0076 75.5535 54.1921 73.7206C55.0257 72.4305 55.4478 70.9913 55.493 69.5575C55.9111 69.533 56.3303 69.4772 56.7477 69.3876C58.8816 68.9288 60.7089 67.6665 61.8935 65.8337C62.7106 64.5692 63.1539 63.1371 63.1998 61.6702C63.6161 61.6455 64.0334 61.5899 64.4488 61.5006C66.5828 61.0419 68.4101 59.7799 69.5947 57.9467C70.4291 56.6554 70.8512 55.2143 70.8956 53.7792C73.4106 53.6333 75.8268 52.3332 77.2955 50.0597C78.48 48.2265 78.8798 46.0419 78.4214 43.908C78.0951 42.3903 77.3627 41.0277 76.3104 39.9431ZM37.5946 11.3639L73.531 10.2123L79.588 30.6254L71.5323 36.5905L40.7277 16.5333L31.9836 29.8047L31.9702 29.8254C31.1817 31.0448 29.5487 31.3957 28.3293 30.6081C27.1098 29.8202 26.7588 28.1868 27.5491 26.9637L37.5946 11.3639ZM12.4273 58.7961C11.6389 60.0157 10.0056 60.3666 8.78661 59.5788C8.19587 59.1971 7.78905 58.6082 7.64123 57.9205C7.49359 57.2328 7.62225 56.5289 8.00422 55.9381L13.5423 47.3672C14.0457 46.5883 14.8933 46.1639 15.7582 46.1639C16.2474 46.1639 16.7425 46.2999 17.1832 46.5846C17.774 46.9664 18.1806 47.5551 18.3284 48.2428C18.4762 48.9305 18.3474 49.6346 17.9658 50.2253L12.4273 58.7961ZM21.5018 64.6597C20.7134 65.8792 19.0802 66.2299 17.861 65.4423C16.6415 64.6544 16.2904 63.021 17.0786 61.8016L22.6168 53.2306C23.1202 52.4518 23.9678 52.0273 24.8327 52.0273C25.322 52.0273 25.817 52.1634 26.2577 52.4482C27.4772 53.2362 27.8282 54.8695 27.0403 56.089L21.5018 64.6597ZM36.1143 61.9524L30.576 70.5234C29.7881 71.7431 28.1548 72.0937 26.9355 71.3059C26.3447 70.9241 25.9379 70.3352 25.7903 69.6476C25.6424 68.9599 25.7711 68.2559 26.1529 67.665L31.6912 59.0941C32.073 58.5033 32.6617 58.0967 33.3494 57.9489C33.5353 57.9091 33.7222 57.8892 33.9077 57.8892C34.4091 57.8892 34.9005 58.0332 35.3316 58.3119C36.5512 59.0998 36.9022 60.733 36.1143 61.9524ZM72.6445 47.0538C72.2627 47.6445 71.6739 48.0512 70.9863 48.199C70.2986 48.3469 69.5945 48.2179 69.0039 47.8363L67.1665 46.6491L67.1663 46.649L58.5952 41.1107L55.5899 45.7617L57.4275 46.9493L64.161 51.3003C64.7518 51.6821 65.1584 52.2709 65.3063 52.9585C65.4541 53.6462 65.3252 54.3503 64.9436 54.9411C64.562 55.5318 63.9729 55.9386 63.2854 56.0864C62.5976 56.2341 61.8938 56.1054 61.3029 55.7238L52.7319 50.1855L49.7266 54.8366L56.46 59.1873C57.6795 59.9753 58.0305 61.6084 57.2426 62.828C56.8608 63.4188 56.2719 63.8256 55.5844 63.9734C54.8966 64.1211 54.1928 63.9924 53.602 63.6108L46.2856 58.8833L43.2803 63.5343L48.759 67.0745C49.9784 67.8627 50.3297 69.4957 49.5415 70.7153C49.1598 71.3061 48.571 71.7129 47.8834 71.8607C47.2001 72.0075 46.5006 71.8812 45.9122 71.5051L39.3479 67.1532L40.766 64.9582C43.2111 61.174 42.1219 56.1059 38.3377 53.661C36.5994 52.5378 34.5905 52.1624 32.6891 52.4492C32.1694 50.5977 31.0017 48.9206 29.2635 47.7974C27.5264 46.675 25.5192 46.2992 23.6189 46.5851C23.0816 44.6642 21.8788 43.0255 20.189 41.9337C17.0614 39.9124 13.0574 40.3085 10.3811 42.6432L6.84103 39.5963L18.635 15.2479L27.1841 17.304L22.8963 23.9621C20.4512 27.7463 21.5405 32.8142 25.3246 35.2593C29.105 37.7023 34.1669 36.617 36.615 32.8419L42.3224 24.1794L71.8631 43.4132C72.4537 43.795 72.8605 44.3837 73.0083 45.0714C73.1551 45.7589 73.0263 46.4628 72.6445 47.0538Z" fill="black"/>
</g>
<defs>
<clipPath id="clip0_58_458">
<rect width="86" height="86" fill="white"/>
</clipPath>
</defs>
</svg>
