<svg width="349" height="331" viewBox="0 0 349 331" fill="none" xmlns="http://www.w3.org/2000/svg">
<path d="M185.402 101.491H77.7666V119.43H185.402V101.491Z" fill="white"/>
<path d="M185.402 167.268H77.7666V185.207H185.402V167.268Z" fill="white"/>
<path d="M143.544 233.045H77.7666V250.984H143.544V233.045Z" fill="white"/>
<path d="M310.112 59.0433C256.837 66.3832 201.165 195.258 176.058 241.513C169.751 253.134 184.417 262.833 190.908 251.709C195.585 243.715 221.099 193.36 221.099 193.36C248.889 194.277 259.138 174.872 248.031 162.819C285.381 163.59 303.893 143.034 293.3 130.561C304.441 134.088 314.089 131.729 328.419 123.916C358.995 107.237 357.57 51.4103 310.112 59.0433Z" fill="white"/>
<path d="M239.254 209.284V302.069C239.254 304.819 237.012 307.056 234.268 307.061H28.9063C26.1614 307.056 23.9249 304.819 23.9195 302.069V46.9311C23.9256 44.18 26.162 41.9442 28.9063 41.9381H234.268C237.013 41.9442 239.254 44.1807 239.254 46.9311V93.2561C247.08 82.7158 255.032 73.3903 263.173 65.6469V46.9318C263.161 30.9602 250.245 18.0316 234.267 18.0193H28.9063C12.9348 18.0316 0.00613477 30.9602 0 46.9318V302.07C0.00613477 318.041 12.9348 330.97 28.9063 330.981H234.268C250.245 330.97 263.162 318.041 263.174 302.07V194.066C257.638 201.359 249.392 206.615 239.254 209.284Z" fill="white"/>
</svg>
