<svg width="366" height="366" viewBox="0 0 366 366" fill="none" xmlns="http://www.w3.org/2000/svg">
<path d="M161.04 0C148.945 0 139.08 9.86484 139.08 21.96V36.6C139.08 45.0923 145.227 51.24 153.72 51.24C153.72 55.9294 151.089 59.3034 146.4 60.1613C111.973 67.71 87.8398 97.4475 87.8398 132.446V147.315C87.8398 156.865 93.9589 165.1 102.48 168.131V271.298C93.9589 274.328 87.8398 282.563 87.8398 292.114V329.4C87.8398 349.587 104.253 366 124.44 366H241.56C261.747 366 278.16 349.587 278.16 329.4V292.114C278.16 282.563 272.041 274.328 263.52 271.298V270.84H117.12V256.2H263.52V183H117.12V168.36H263.52V168.131C272.041 165.1 278.16 156.865 278.16 147.315V132.446C278.16 97.4475 254.055 67.7672 219.371 60.1613C214.939 59.3606 212.28 55.9294 212.28 51.24C220.772 51.24 226.92 45.0923 226.92 36.6V21.96C226.92 9.86484 217.055 0 204.96 0H161.04Z" fill="white"/>
</svg>
