<svg width="149" height="104" viewBox="0 0 149 104" fill="none" xmlns="http://www.w3.org/2000/svg">
<g id="LifeWater logo 1" clip-path="url(#clip0_181_2)">
<g id="Group">
<path id="Vector" d="M143.719 27.522L123.556 0.1745V68.18C137.433 68.18 148.682 56.7794 148.682 42.7168C148.682 37.0213 146.838 31.7631 143.719 27.522Z" fill="#9FCFFF" stroke="white" stroke-miterlimit="10"/>
<path id="Vector_2" d="M103.393 27.522C100.275 31.7631 98.4297 37.0213 98.4297 42.7168C98.4297 56.7794 109.679 68.18 123.556 68.18V0.1745L103.393 27.522Z" fill="#B3EFFF" stroke="white" stroke-miterlimit="10"/>
</g>
<g id="Group_2">
<path id="Vector_3" d="M5.90444 43.7371L4.27499 42.0858V7.41382L5.90444 5.76358H9.81426L11.4437 7.41382V36.6712H28.8269L30.4563 38.3214V42.0858L28.8269 43.7371H5.90444Z" fill="black" stroke="white" stroke-miterlimit="10"/>
<path id="Vector_4" d="M36.6464 43.7371L35.017 42.0858V17.3195L36.6464 15.6682H40.5563L42.1857 17.3195V42.0858L40.5563 43.7371H36.6464ZM38.6013 12.5326C36.4679 12.5326 34.9193 10.9633 34.9193 8.80126C34.9193 6.63925 36.4679 5.01987 38.6013 5.01987C40.7347 5.01987 42.3327 6.60946 42.3327 8.80126C42.3327 10.9931 40.7641 12.5326 38.6013 12.5326Z" fill="black" stroke="white" stroke-miterlimit="10"/>
<path id="Vector_5" d="M50.7226 43.7371L49.0932 42.0858V22.6862H45.4931L43.8636 21.0349V17.3206L45.4931 15.6693H49.173C49.8386 8.96618 54.6419 5.01987 62.3062 5.01987L63.9356 6.67117V9.94078L62.3062 11.5921C58.7596 11.5921 56.8793 12.8646 56.3921 15.6703H62.3062L63.9356 17.3216V21.036L62.3062 22.6873H56.2619V42.0869L54.6325 43.7382H50.7226V43.7371Z" fill="black" stroke="white" stroke-miterlimit="10"/>
<path id="Vector_6" d="M78.5806 44.4798C70.5184 44.4798 64.4395 38.148 64.4395 29.7521C64.4395 25.6494 65.8527 21.8946 68.4176 19.1804C71.0108 16.4364 74.6204 14.9255 78.5816 14.9255C82.5429 14.9255 86.2774 16.3992 88.8612 19.0751C91.4461 21.752 92.8697 25.5441 92.8697 29.7521C92.8697 29.9766 92.855 30.1873 92.8424 30.3746C92.8309 30.5395 92.8204 30.6948 92.8204 30.8427L91.1909 32.494H71.9662C72.8712 35.8158 75.413 38.0086 78.5806 38.0086C81.2809 38.0086 83.618 36.6297 84.9913 34.2262L86.4013 33.4027H90.4088L91.9091 35.6966C89.615 41.1974 84.6322 44.4808 78.5806 44.4808V44.4798ZM85.3514 26.9124C84.4632 23.5693 81.9434 21.4967 78.5806 21.4967C75.2178 21.4967 72.8565 23.6098 71.9631 26.9124H85.3514Z" fill="black" stroke="white" stroke-miterlimit="10"/>
<path id="Vector_7" d="M32.8836 103.174L31.3234 101.998L24.6723 79.5316L18.0223 101.998L16.4611 103.174H12.3559L10.7947 101.995L0.579224 67.3235L2.14042 65.1998H6.19724L7.75844 66.3765L14.4085 88.8436L21.0596 66.3765L22.6198 65.1998H26.7259L28.2861 66.3776L34.9361 88.883L41.5873 66.3776L43.1474 65.1998H47.2042L48.7654 67.3256L38.5006 101.998L36.9404 103.174H32.8836Z" fill="black" stroke="white" stroke-miterlimit="10"/>
<path id="Vector_8" d="M58.397 103.917C54.6909 103.917 51.2808 102.401 48.7947 99.6472C46.34 96.9298 44.9888 93.2155 44.9888 89.1894C44.9888 80.7371 50.7527 74.3628 58.397 74.3628C61.6381 74.3628 64.5453 75.514 66.7857 77.6143L66.8949 76.5812L68.5149 75.1054H71.8872L73.5166 76.7567V101.523L71.8872 103.174H68.5149L66.8939 101.683L66.7973 100.678C66.203 101.228 65.5605 101.716 64.877 102.133C62.9641 103.3 60.7236 103.917 58.397 103.917ZM59.4238 81.2318C55.0773 81.2318 52.1575 84.4099 52.1575 89.1404C52.1575 93.8709 55.2137 96.999 59.4238 96.999C63.6339 96.999 66.3479 93.8411 66.3479 89.1404C66.3479 84.4397 63.5657 81.2318 59.4238 81.2318Z" fill="black" stroke="white" stroke-miterlimit="10"/>
<path id="Vector_9" d="M94.0761 103.917C89.6057 103.917 86.372 102.724 84.1903 100.269C82.1157 97.9353 81.1078 94.554 81.1078 89.932V82.1224H77.6053L75.9759 80.4711V78.7868L76.4494 77.6228L83.8785 70.0441L85.0344 69.5568H86.647L88.2765 71.2081V75.1044H94.0761L95.7056 76.7557V80.4711L94.0761 82.1224H88.2765V89.932C88.2765 92.5441 88.7279 94.3273 89.655 95.386C90.5191 96.3712 91.9648 96.85 94.0761 96.85L95.7056 98.5013V102.266L94.0761 103.917Z" fill="black" stroke="white" stroke-miterlimit="10"/>
<path id="Vector_10" d="M110.742 103.917C102.68 103.917 96.601 97.5852 96.601 89.1894C96.601 85.0866 98.0141 81.3319 100.579 78.6176C103.172 75.8736 106.782 74.3628 110.743 74.3628C114.704 74.3628 118.439 75.8364 121.023 78.5123C123.608 81.1893 125.031 84.9813 125.031 89.1894C125.031 89.4139 125.016 89.6245 125.004 89.8107C124.992 89.9756 124.982 90.131 124.982 90.2789L123.352 91.9302H104.128C105.033 95.2519 107.575 97.4448 110.742 97.4448C113.442 97.4448 115.779 96.0659 117.153 93.6623L118.563 92.8388H122.57L124.071 95.1328C121.776 100.634 116.794 103.918 110.742 103.918V103.917ZM117.513 86.3496C116.625 83.0066 114.105 80.9339 110.742 80.9339C107.379 80.9339 105.018 83.047 104.125 86.3496H117.512H117.513Z" fill="black" stroke="white" stroke-miterlimit="10"/>
<path id="Vector_11" d="M129.266 103.174L127.636 101.523V76.7567L129.266 75.1054H132.638L134.263 76.6429L134.436 79.1762C135.11 78.3559 135.852 77.6281 136.651 77.0068C138.876 75.2767 141.562 74.3628 144.418 74.3628L146.047 76.0141V80.1742L144.418 81.8255C138.489 81.8255 134.806 86.6784 134.806 94.4891V101.523L133.176 103.174H129.267H129.266Z" fill="black" stroke="white" stroke-miterlimit="10"/>
</g>
</g>
<defs>
<clipPath id="clip0_181_2">
<rect width="148.249" height="104" fill="white" transform="translate(0.489868)"/>
</clipPath>
</defs>
</svg>
