<?xml version="1.0" encoding="UTF-8"?>
<svg id="_Слой_1" data-name="Слой 1" xmlns="http://www.w3.org/2000/svg" viewBox="0 0 2488.62 981.44">
  <defs>
    <style>
      .cls-1 {
        fill-rule: evenodd;
      }
    </style>
  </defs>
  <g>
    <path d="m402.33,0c9.3,0,17.39,3.44,24.27,10.32,6.87,6.88,10.32,14.97,10.32,24.27v373.8c0,9.31-3.44,17.4-10.32,24.27s-14.97,10.32-24.27,10.32h-44.3c-9.31,0-17.4-3.43-24.27-10.32-6.88-6.87-10.32-14.96-10.32-24.27v-207.53c0-.4-.21-.61-.61-.61s-.61.21-.61.61l-44.3,118.94c-3.64,9.71-9.71,17.5-18.2,23.36-8.5,5.87-18.01,8.8-28.52,8.8h-27.91c-10.52,0-20.03-2.93-28.52-8.8-8.5-5.86-14.56-13.65-18.2-23.36l-44.3-118.94c0-.4-.21-.61-.61-.61s-.61.21-.61.61v207.53c0,9.31-3.44,17.4-10.32,24.27s-14.97,10.32-24.27,10.32h-41.87c-9.31,0-17.4-3.43-24.27-10.32-6.88-6.87-10.32-14.96-10.32-24.27V34.59c0-9.3,3.43-17.39,10.32-24.27S25.28,0,34.59,0h54.01c10.52,0,20.03,2.94,28.52,8.8,8.5,5.87,14.36,13.65,17.6,23.36l81.92,228.17c0,.41.2.61.61.61s.61-.2.61-.61l81.92-228.17c3.23-9.71,9.1-17.49,17.6-23.36,8.5-5.86,18-8.8,28.52-8.8h56.43Z"/>
    <path d="m655.98,121.36c53.4,0,92.03,9.71,115.9,29.13,23.87,19.42,35.8,50.17,35.8,92.24v165.66c0,9.31-3.44,17.4-10.32,24.27s-14.97,10.32-24.27,10.32h-38.23c-9.71,0-18.01-3.34-24.88-10.01-6.88-6.67-10.52-14.87-10.92-24.58v-4.85c0-.4-.21-.61-.61-.61s-.82.21-1.21.61c-25.89,30.34-57.86,45.51-95.88,45.51-28.32,0-51.58-9-69.78-27-18.21-18-27.31-41.36-27.31-70.09,0-72.82,54.61-109.23,163.84-109.23h18.81c3.64,0,5.46-1.82,5.46-5.46v-.61c0-24.27-14.17-36.41-42.48-36.41-24.27,0-55.63,3.64-94.06,10.92-8.5,1.62-16.19-.3-23.06-5.77-6.88-5.46-10.32-12.64-10.32-21.54v-9.71c0-10.11,3.13-19.21,9.41-27.31,6.27-8.09,14.26-12.94,23.97-14.56,40.05-7.28,73.43-10.92,100.13-10.92Zm36.41,194.18v-3.64c0-3.64-1.82-5.46-5.46-5.46h-18.81c-40.46,0-60.68,12.14-60.68,36.41,0,18.2,10.11,27.31,30.34,27.31,15.78,0,28.82-4.95,39.14-14.87,10.32-9.91,15.47-23.15,15.47-39.75Z"/>
    <path d="m1149.93,127.43c9.3,0,17.39,3.44,24.27,10.32,6.88,6.88,10.32,14.97,10.32,24.27v250.62c0,54.21-16.49,96.08-49.46,125.61-32.98,29.53-79.19,44.3-138.66,44.3-23.06,0-46.12-1.82-69.18-5.46-9.71-1.62-17.81-6.37-24.27-14.26-6.48-7.89-9.71-16.9-9.71-27v-24.88c0-8.5,3.34-15.08,10.01-19.72,6.68-4.66,14.26-5.97,22.76-3.94,18.2,4.86,39.64,7.28,64.32,7.28,28.31,0,49.05-6.28,62.2-18.81,13.14-12.54,19.72-33.57,19.72-63.11v-15.17c0-.4-.21-.61-.61-.61-.81,0-1.21.21-1.21.61-21.85,24.27-50.58,36.41-86.17,36.41s-64.23-13.85-87.08-41.57c-22.86-27.71-34.29-65.43-34.29-113.17,0-50.16,11.02-88.99,33.07-116.51,22.04-27.51,51.48-41.26,88.29-41.26s65.13,15.17,89.81,45.51c.4.41.81.61,1.21.61s.61-.2.61-.61v-4.85c.4-9.71,4.04-17.9,10.92-24.58,6.88-6.68,15.17-10.01,24.88-10.01h38.23Zm-77.67,179.01v-51.58c0-14.16-4.66-25.79-13.96-34.89-9.31-9.1-20.84-13.65-34.59-13.65-32.37,0-48.54,24.27-48.54,72.82,0,23.06,4.34,40.46,13.05,52.19,8.69,11.74,20.53,17.6,35.5,17.6,13.35,0,24.78-4.25,34.29-12.74,9.5-8.5,14.26-18.4,14.26-29.73Z"/>
    <path d="m1467.29,121.36c36.81,0,63.2,10.52,79.19,31.56,15.98,21.04,23.97,57.04,23.97,108.01v147.46c0,9.31-3.44,17.4-10.32,24.27-6.88,6.88-14.97,10.32-24.27,10.32h-43.08c-9.31,0-17.4-3.43-24.27-10.32-6.88-6.87-10.32-14.96-10.32-24.27v-147.46c0-18.6-2.64-31.35-7.89-38.23-5.26-6.87-14.77-10.32-28.52-10.32-11.33,0-21.75,4.46-31.25,13.35-9.51,8.9-14.26,18.61-14.26,29.13v153.53c0,9.31-3.44,17.4-10.32,24.27s-14.97,10.32-24.27,10.32h-46.12c-9.31,0-17.4-3.43-24.27-10.32-6.88-6.87-10.32-14.96-10.32-24.27v-246.37c0-9.3,3.43-17.39,10.32-24.27s14.96-10.32,24.27-10.32h41.26c9.71,0,18,3.34,24.88,10.01,6.87,6.68,10.52,14.87,10.92,24.58v4.85c0,.41.2.61.61.61.81,0,1.21-.2,1.21-.61,25.08-30.34,56.03-45.51,92.84-45.51Z"/>
    <path d="m1912.7,127.43c9.3,0,17.39,3.44,24.27,10.32,6.88,6.88,10.32,14.97,10.32,24.27v246.37c0,9.31-3.44,17.4-10.32,24.27-6.88,6.88-14.97,10.32-24.27,10.32h-41.26c-9.71,0-18-3.34-24.88-10.01-6.88-6.67-10.53-14.87-10.92-24.58v-4.85c0-.4-.21-.61-.61-.61-.82,0-1.21.21-1.21.61-25.09,30.34-56.04,45.51-92.84,45.51s-61.19-9.91-76.76-29.73c-15.58-19.82-23.36-54.41-23.36-103.77v-153.53c0-9.3,3.43-17.39,10.32-24.27s14.96-10.32,24.27-10.32h43.08c9.3,0,17.39,3.44,24.27,10.32,6.87,6.88,10.32,14.97,10.32,24.27v147.46c0,18.61,2.52,31.36,7.58,38.23,5.05,6.88,13.65,10.32,25.79,10.32,11.32,0,21.74-4.45,31.25-13.35,9.5-8.89,14.26-18.6,14.26-29.13v-153.53c0-9.3,3.43-17.39,10.32-24.27s14.96-10.32,24.27-10.32h46.12Z"/>
    <path d="m2384.81,121.36c34.79,0,60.17,9.41,76.16,28.22,15.98,18.81,23.97,49.86,23.97,93.15v165.66c0,9.31-3.44,17.4-10.32,24.27s-14.97,10.32-24.27,10.32h-43.08c-9.31,0-17.29-3.43-23.97-10.32-6.68-6.87-10.01-14.96-10.01-24.27v-165.66c0-13.75-2.03-23.06-6.07-27.91-4.05-4.85-11.33-7.28-21.85-7.28-8.1,0-15.68,2.64-22.76,7.89-7.08,5.26-10.62,10.32-10.62,15.17v177.8c0,9.31-3.44,17.4-10.32,24.27s-14.97,10.32-24.27,10.32h-43.08c-9.31,0-17.29-3.43-23.97-10.32-6.68-6.87-10.01-14.96-10.01-24.27v-165.66c0-13.75-2.03-23.06-6.07-27.91-4.05-4.85-11.33-7.28-21.85-7.28-8.1,0-15.68,2.64-22.76,7.89-7.08,5.26-10.62,10.32-10.62,15.17v177.8c0,9.31-3.44,17.4-10.32,24.27s-14.97,10.32-24.27,10.32h-46.12c-9.31,0-17.4-3.43-24.27-10.32-6.88-6.87-10.32-14.96-10.32-24.27v-246.37c0-9.3,3.43-17.39,10.32-24.27s14.96-10.32,24.27-10.32h37.02c9.71,0,18,3.34,24.88,10.01,6.88,6.68,10.71,14.87,11.53,24.58l.61,7.28c0,.41.2.61.61.61.81,0,1.21-.2,1.21-.61,10.92-14.96,23.97-26.7,39.14-35.2s30.04-12.74,44.6-12.74c18.6,0,33.47,3.24,44.6,9.71,11.12,6.48,21.74,18.2,31.86,35.2,0,.41.2.61.61.61.81,0,1.41-.2,1.82-.61,29.93-29.93,59.26-44.91,87.99-44.91Z"/>
    <path d="m992.92,619.29c9.59,0,17.33,3.6,23.22,10.79,5.89,7.19,7.95,15.59,6.21,25.18l-56.24,268.14c-2.19,10.46-7.52,19.08-16.02,25.83-8.5,6.76-18.21,10.14-29.1,10.14h-69.32c-10.9,0-20.39-3.48-28.45-10.46-8.07-6.97-12.98-15.7-14.72-26.16l-32.7-198.17c0-.43-.23-.65-.65-.65s-.65.22-.65.65l-32.7,198.17c-1.75,10.46-6.65,19.19-14.71,26.16-8.07,6.98-17.56,10.46-28.45,10.46h-69.33c-10.9,0-20.6-3.37-29.1-10.14-8.5-6.75-13.85-15.37-16.02-25.83l-56.24-268.14c-1.75-9.59.33-17.99,6.21-25.18,5.89-7.19,13.62-10.79,23.22-10.79h47.74c10.46,0,19.72,3.5,27.8,10.46,8.06,6.98,12.75,15.7,14.06,26.16l24.2,204.71c0,.44.21.65.65.65s.65-.21.65-.65l30.08-204.71c1.74-10.46,6.54-19.18,14.39-26.16,7.85-6.97,17.22-10.46,28.12-10.46h62.78c10.89,0,20.27,3.5,28.12,10.46,7.85,6.98,12.64,15.7,14.39,26.16l30.08,204.71c0,.44.21.65.65.65s.65-.21.65-.65l24.2-204.71c1.31-10.46,5.99-19.18,14.06-26.16,8.06-6.97,17.33-10.46,27.8-10.46h45.13Z"/>
    <path d="m1230.98,612.75c57.55,0,99.18,10.46,124.92,31.39,25.72,20.93,38.59,54.07,38.59,99.41v178.54c0,10.04-3.71,18.75-11.12,26.16s-16.14,11.12-26.16,11.12h-41.2c-10.46,0-19.41-3.6-26.81-10.79-7.42-7.19-11.34-16.02-11.77-26.49v-5.23c0-.43-.22-.65-.65-.65s-.88.22-1.31.65c-27.91,32.7-62.36,49.05-103.33,49.05-30.52,0-55.59-9.7-75.21-29.1-19.62-19.4-29.43-44.57-29.43-75.54,0-78.48,58.86-117.72,176.58-117.72h20.27c3.92,0,5.89-1.96,5.89-5.89v-.65c0-26.16-15.27-39.24-45.78-39.24-26.16,0-59.95,3.92-101.37,11.77-9.16,1.75-17.44-.33-24.85-6.21-7.42-5.89-11.12-13.62-11.12-23.22v-10.46c0-10.89,3.37-20.7,10.14-29.43,6.75-8.72,15.37-13.95,25.83-15.7,43.16-7.85,79.13-11.77,107.91-11.77Zm39.24,209.28v-3.92c0-3.92-1.96-5.89-5.89-5.89h-20.27c-43.6,0-65.4,13.08-65.4,39.24,0,19.62,10.89,29.43,32.7,29.43,17,0,31.07-5.33,42.18-16.02,11.12-10.68,16.68-24.96,16.68-42.84Z"/>
    <path d="m1714.28,632.37c10.03,0,18.74,3.71,26.16,11.12,7.41,7.42,11.12,16.14,11.12,26.16v10.46c0,10.04-3.71,18.75-11.12,26.16-7.42,7.42-16.14,11.12-26.16,11.12h-58.21c-3.92,0-5.89,1.96-5.89,5.89v92.21c0,26.16,2.18,42.51,6.54,49.05,4.35,6.54,14.16,9.81,29.43,9.81,6.1,0,13.51-.65,22.24-1.96,9.16-1.31,17.55.98,25.18,6.87,7.62,5.89,11.44,13.41,11.44,22.56v17c0,10.9-3.38,20.6-10.14,29.1-6.76,8.5-15.37,13.41-25.83,14.72-15.27,2.18-33.79,3.27-55.59,3.27-46.66,0-79.57-10.02-98.75-30.08-19.19-20.05-28.78-55.81-28.78-107.26v-105.29c0-3.92-1.96-5.89-5.89-5.89h-25.51c-10.04,0-18.75-3.7-26.16-11.12-7.42-7.41-11.12-16.13-11.12-26.16v-10.46c0-10.02,3.7-18.74,11.12-26.16,7.41-7.41,16.12-11.12,26.16-11.12h25.51c3.92,0,5.89-1.96,5.89-5.89v-81.1c0-10.02,3.7-18.74,11.12-26.16s16.12-11.12,26.16-11.12h49.7c10.03,0,18.74,3.71,26.16,11.12,7.41,7.42,11.12,16.14,11.12,26.16v81.1c0,3.92,1.96,5.89,5.89,5.89h58.21Z"/>
    <path d="m1984.39,612.75c110.74,0,166.33,58.43,166.77,175.27,0,10.46-3.92,19.29-11.77,26.49-7.85,7.19-17.23,10.79-28.12,10.79h-171.35c-3.92,0-5.46,1.96-4.58,5.89,3.92,18.31,12.53,31.18,25.83,38.59,13.29,7.42,34.11,11.12,62.46,11.12,17.87,0,39.67-2.62,65.4-7.85,9.16-2.18,17.43-.33,24.85,5.56,7.41,5.89,11.12,13.63,11.12,23.22v10.46c0,10.9-3.38,20.83-10.14,29.76-6.76,8.94-15.37,14.29-25.83,16.02-26.6,5.23-54.94,7.85-85.02,7.85-61.92,0-109.55-15.14-142.9-45.45-33.35-30.3-50.03-74.01-50.03-131.13s14.82-100.28,44.47-130.8c29.64-30.51,72.59-45.78,128.84-45.78Zm46.43,143.88c3.92,0,5.89-1.96,5.89-5.89-.44-20.05-4.69-34.44-12.75-43.16-8.07-8.72-20.17-13.08-36.3-13.08-17,0-29.76,4.25-38.26,12.75s-13.85,23.22-16.02,44.15c0,3.5,1.74,5.23,5.23,5.23h92.21Z"/>
    <path d="m2451.34,620.6c10.02-1.31,18.74,1.75,26.16,9.16,7.41,7.42,11.12,16.35,11.12,26.81v17c0,10.04-3.5,18.64-10.46,25.83-6.98,7.19-15.7,11.44-26.16,12.75-33.58,4.36-60.39,16.9-80.44,37.61-20.06,20.71-30.08,45.89-30.08,75.54v96.79c0,10.04-3.71,18.75-11.12,26.16s-16.14,11.12-26.16,11.12h-52.97c-10.03,0-18.75-3.7-26.16-11.12-7.42-7.41-11.12-16.12-11.12-26.16v-265.53c0-10.02,3.7-18.74,11.12-26.16s16.13-11.12,26.16-11.12h49.71c10.02,0,18.74,3.71,26.16,11.12,7.41,7.42,11.12,16.14,11.12,26.16v27.47c0,.44.21.65.65.65s.87-.21,1.31-.65c27.47-36.19,64.52-57.33,111.18-63.44Z"/>
  </g>
  <g id="Page-1">
    <g id="Dribbble-Light-Preview">
      <g id="icons">
        <path id="drop-_76_" data-name="drop-[#76]" class="cls-1" d="m369.59,809.74c0-69.1-80.54-107.31-152.15-265.4-70.76,154.75-149.57,196.3-149.57,265.4s67.68,128.78,150.86,128.78,150.86-57.78,150.86-128.78m50.29,0c0,94.83-90.06,171.71-201.14,171.71S17.59,904.56,17.59,809.73c0-80.67,134.35-162.47,170.74-283.8v-37.51h-9.63c-2.7-4.33-5.24-35.47.14-38.44,6.76,0,75.83,0,79.39,0,4.67,3.31,4.81,34.89-.13,38.57q-2.91,0-9.26-.02c0,3.55,0,33.08,0,37.4,32.11,117.96,171.02,204.17,171.02,283.79m-100.57,5.57"/>
      </g>
    </g>
  </g>
  <path d="m288.03,497.71c-3.21.34-6.58.85-10.06,1.5,7.28,10.59,15.18,18.04,23.28,21.04,6.88,2.54,14.88-.06,17.86-5.83,2.98-5.77-.19-12.5-7.06-15.04-6.08-2.25-14.38-2.7-24.02-1.67Z"/>
  <path d="m268.37,507.4c-5.61,8.27-8.47,15.67-7.71,21.46.65,4.91,5.84,8.46,11.6,7.91,5.76-.54,9.89-4.97,9.24-9.88-.77-5.79-5.62-12.58-13.13-19.5Z"/>
  <path d="m287.86,523.3c.04,9.54,1.93,17.16,6.02,21.85,3.47,3.98,10.06,4.85,14.72,1.95,4.66-2.9,5.63-8.49,2.16-12.46-4.08-4.69-12.3-8.52-22.9-11.33Z"/>
  <path class="cls-1" d="m31.21,786.89s79.03,91.67,187.52,0c108.5-91.67,166.18,0,166.18,0l14.98,51.19-75.56,97.21-127.02,20.02-119.2-41.28-46.9-127.14Z"/>
</svg>