<svg width="421" height="457" viewBox="0 0 421 457" fill="none" xmlns="http://www.w3.org/2000/svg">
<g clip-path="url(#clip0_138_84)">
<path fill-rule="evenodd" clip-rule="evenodd" d="M333.236 235.7C310.475 193.614 248.756 196.914 152.996 124.253C160.807 241.857 126.418 293.156 149.18 335.242C171.941 377.329 232.887 391.348 283.631 363.905C334.374 336.462 356.63 278.94 333.243 235.697M363.922 219.105C395.158 276.862 365.542 353.4 297.778 390.049C230.014 426.697 149.734 409.586 118.5 351.834C91.9281 302.701 146.943 208.554 129.177 122.65L116.821 99.8039L110.946 102.981C107.873 101.235 96.0661 83.1063 98.3698 79.5224C102.494 77.2921 144.63 54.5041 146.801 53.3295C150.741 53.8048 161.228 72.9928 159.427 76.864C158.243 77.5041 156.358 78.5184 153.771 79.907C154.941 82.0692 164.668 100.055 166.091 102.686C224.535 163.937 337.674 170.615 363.9 219.108" fill="black"/>
<path d="M180.703 72.5685C178.857 73.8346 176.969 75.2571 175.06 76.8011C182.989 80.8493 190.263 82.7804 196.192 81.9352C201.226 81.2123 205.25 76.9893 205.167 72.4918C205.085 67.9943 200.934 64.9412 195.906 65.6608C191.456 66.2963 186.245 68.7606 180.703 72.5685Z" fill="black"/>
<path d="M171.898 84.9504C171.2 91.8382 171.893 97.2889 174.263 100.565C176.277 103.341 180.613 103.791 183.946 101.555C187.281 99.3259 188.342 95.2652 186.328 92.4891C183.951 89.2167 178.756 86.6813 171.895 84.9443L171.898 84.9504Z" fill="black"/>
<path d="M189.028 88.2104C192.195 94.0077 195.858 98.0252 199.898 99.5323C203.326 100.812 207.633 99.1673 209.52 95.8635C211.408 92.5598 210.158 88.8351 206.734 87.5619C202.7 86.0515 196.424 86.4308 189.032 88.2165L189.028 88.2104Z" fill="black"/>
<path fill-rule="evenodd" clip-rule="evenodd" d="M119.286 333.43C119.286 333.43 197.694 363.188 233.682 271.562C269.676 179.932 335.059 216.734 335.059 216.734L361.059 242.97L346.985 327.107L276.092 381.207L189.777 395.393L119.286 333.43Z" fill="black"/>
</g>
<defs>
<clipPath id="clip0_138_84">
<rect width="279" height="368" fill="white" transform="translate(0 132.723) rotate(-28.4056)"/>
</clipPath>
</defs>
</svg>
