<svg width="84" height="84" viewBox="0 0 84 84" fill="none" xmlns="http://www.w3.org/2000/svg">
<g clip-path="url(#clip0_58_469)">
<path d="M79.8 69.72C71.4443 65.289 65.035 62.8044 59.3296 61.8519L59.9201 61.0401C60.2001 60.7601 60.3401 60.3401 60.2001 59.9201L58.8881 54.6722C59.3636 54 59.8121 53.3051 60.2323 52.5906C65.4495 50.8149 68.0878 47.8134 68.531 43.3942C70.8227 43.2748 72.7999 41.2294 72.7999 38.9201V28.4201C72.7999 26.1212 70.9711 24.084 68.5753 23.9477C68.2671 15.8601 64.701 0 42 0C19.2985 0 15.7328 15.8607 15.4245 23.9482C13.1517 24.0824 11.2001 25.9906 11.2001 28.4199V38.9199C11.2001 41.2999 13.3001 43.3999 15.8201 43.3999H17.9201C18.6918 43.3999 19.4335 43.1781 20.0796 42.7985C20.8735 47.0124 22.6255 51.1572 25.1121 54.672L23.8001 59.9199C23.8001 60.1999 23.8001 60.6199 24.0801 61.0399L24.6706 61.8517C18.9651 62.8044 12.5559 65.2888 4.20016 69.7198C1.54005 70.98 0 73.6399 0 76.5799V82.5999C0 83.4401 0.559945 84 1.39995 84H34.9999H35.5599H48.4399H48.9999H82.5999C83.4399 84 83.9998 83.4401 83.9998 82.6001V76.5801C84 73.7801 82.32 71.1199 79.8 69.72ZM42.0077 66.5177L45.36 74.2001H38.5932L42.0077 66.5177ZM37.5761 76.9999H46.4185L47.238 81.2H36.7359L37.5761 76.9999ZM56.7 57.4001L57.2599 59.9201L55.8298 61.8837C55.7386 61.9584 55.6541 62.0488 55.58 62.16L49.7566 70.2232L47.9089 72.7602L44.1346 64.2682C48.7379 63.7068 52.8372 61.3607 56.1238 57.999C56.3181 57.8032 56.5103 57.6041 56.7 57.4001ZM62.1667 48.6911C62.9564 46.7698 63.5516 44.7727 63.9279 42.7596C64.461 43.0825 65.0678 43.2982 65.7221 43.3714C65.4795 45.3503 64.6003 47.2187 62.1667 48.6911ZM69.8599 28.2799V38.7799C69.8599 39.6199 69.1599 40.4599 68.18 40.4599H66.08C65.24 40.4599 64.3999 39.7599 64.3999 38.7799V37.8V28.2799C64.3999 27.4399 65.1 26.5999 66.08 26.5999H68.18C69.02 26.5999 69.8599 27.3 69.8599 28.2799ZM42 2.80005C50.6292 2.80005 65.1522 5.61701 65.7766 23.9628C65.1899 24.023 64.628 24.2014 64.1197 24.4753C62.4161 13.8144 53.1213 5.59995 42 5.59995C30.8802 5.59995 21.5864 13.8121 19.8809 24.4707C19.3802 24.2004 18.8211 24.0217 18.2232 23.9623C18.848 5.61701 33.371 2.80005 42 2.80005ZM19.4599 38.7799C19.4599 39.6199 18.7599 40.4599 17.7799 40.4599H15.6799C14.8399 40.4599 13.9999 39.7599 13.9999 38.7799V28.2799C13.9999 27.4399 14.7 26.5999 15.6799 26.5999H17.7799C18.6199 26.5999 19.4599 27.3 19.4599 28.2799V38.7799ZM22.3999 28.0001C22.3999 17.22 31.2199 8.4 42 8.4C52.7801 8.4 61.6001 17.22 61.6001 28.0001V37.8C61.6001 42.4318 60.3942 46.6723 58.4392 50.2502C55.0976 51.2195 50.2904 51.7999 43.4001 51.7999C42.5601 51.7999 42.0002 52.3599 42.0002 53.1999C42.0002 54.0399 42.5601 54.5998 43.4001 54.5998C48.4442 54.5998 52.6628 54.2901 56.1174 53.6425C56.0316 53.7283 55.9458 53.8141 55.86 53.8999C55.1557 54.839 54.4123 55.6953 53.6356 56.4674C50.3391 59.5384 46.4074 61.3988 42.6185 61.583C42.4279 61.5011 42.2141 61.4599 42 61.4599C41.7848 61.4599 41.5908 61.5021 41.4169 61.5848C39.0977 61.4785 36.7242 60.7433 34.4745 59.4859C32.1951 58.1764 30.051 56.2885 28.14 53.8999C28.0001 53.76 27.8599 53.6199 27.72 53.4799L27.6383 53.4527C24.4942 49.3292 22.3999 43.9044 22.3999 37.8V28.0001ZM39.8652 64.2682L36.091 72.7602L34.2433 70.2232L28.4199 62.16C28.3753 62.1154 28.326 62.0712 28.2749 62.0278L26.7399 59.9201L27.2998 57.4001C27.4893 57.6041 27.6816 57.803 27.8755 57.9987C31.1624 61.3604 35.262 63.7066 39.8652 64.2682ZM2.80005 76.5799C2.80005 74.76 3.78 73.08 5.46 72.24C14.3839 67.4993 20.8077 65.1199 26.5302 64.4091L34.8846 75.8965L33.8239 81.2H2.80005V76.5799ZM81.2 81.2H50.1761L49.1154 75.8965L57.5603 64.2846C63.2627 65.1451 69.8019 67.5227 78.5402 72.0999C80.2202 73.0798 81.2001 74.7598 81.2001 76.5799L81.2 81.2Z" fill="black"/>
</g>
<defs>
<clipPath id="clip0_58_469">
<rect width="84" height="84" fill="white"/>
</clipPath>
</defs>
</svg>
