<svg width="79" height="74" viewBox="0 0 79 74" fill="none" xmlns="http://www.w3.org/2000/svg">
<g clip-path="url(#clip0_296_4)">
<path d="M33.25 22V55.75" stroke="#DE0101" stroke-width="5" stroke-linecap="round" stroke-linejoin="round"/>
<path d="M25.75 48.25H48.25" stroke="#DE0101" stroke-width="5" stroke-linecap="round" stroke-linejoin="round"/>
<path d="M70.75 37C70.75 55.6398 55.6398 70.75 37 70.75C18.3604 70.75 3.25 55.6398 3.25 37C3.25 18.3604 18.3604 3.25 37 3.25C55.6398 3.25 70.75 18.3604 70.75 37Z" stroke="#DE0101" stroke-width="5"/>
<path d="M33.25 22H42.625C53.875 22 53.875 37 42.625 37H25.75" stroke="#DE0101" stroke-width="5" stroke-linecap="round" stroke-linejoin="round"/>
</g>
<g clip-path="url(#clip1_296_4)">
<path d="M77.8948 65.8832L73.9998 69.8909L70.1049 65.8832" stroke="#DE0101" stroke-width="2.5" stroke-linecap="round" stroke-linejoin="round"/>
<path d="M73.9998 56.6113L73.9998 69.8367" stroke="#DE0101" stroke-width="2.5" stroke-linecap="round" stroke-linejoin="round"/>
</g>
<defs>
<clipPath id="clip0_296_4">
<rect width="74" height="74" fill="white"/>
</clipPath>
<clipPath id="clip1_296_4">
<rect width="10" height="17" fill="white" transform="translate(79 71) rotate(-180)"/>
</clipPath>
</defs>
</svg>
