<svg width="87" height="78" viewBox="0 0 87 78" fill="none" xmlns="http://www.w3.org/2000/svg">
<g clip-path="url(#clip0_296_6)">
<path d="M33.25 26V59.75" stroke="#FFE600" stroke-width="5" stroke-linecap="round" stroke-linejoin="round"/>
<path d="M25.75 52.25H48.25" stroke="#FFE600" stroke-width="5" stroke-linecap="round" stroke-linejoin="round"/>
<path d="M70.75 41C70.75 59.6398 55.6398 74.75 37 74.75C18.3604 74.75 3.25 59.6398 3.25 41C3.25 22.3604 18.3604 7.25 37 7.25C55.6398 7.25 70.75 22.3604 70.75 41Z" stroke="#FFE600" stroke-width="5"/>
<path d="M33.25 26H42.625C53.875 26 53.875 41 42.625 41H25.75" stroke="#FFE600" stroke-width="5" stroke-linecap="round" stroke-linejoin="round"/>
</g>
<path d="M70.1251 14.3438C70.8001 10.8 71.7282 9.87187 75.272 9.19687C75.6938 9.1125 75.947 8.775 75.947 8.35312C75.947 7.93125 75.6938 7.59375 75.272 7.50937C71.7282 6.83437 70.8001 5.90625 70.1251 2.3625C70.0407 1.94062 69.7032 1.6875 69.2813 1.6875C68.8595 1.6875 68.522 1.94062 68.4376 2.3625C67.7626 5.90625 66.8345 6.83437 63.2907 7.50937C62.9532 7.59375 62.6157 7.93125 62.6157 8.35312C62.6157 8.775 62.8688 9.1125 63.2907 9.19687C66.8345 9.87187 67.7626 10.8 68.4376 14.3438C68.522 14.7656 68.8595 15.0187 69.2813 15.0187C69.7032 15.0187 70.0407 14.6812 70.1251 14.3438Z" fill="#FFE500"/>
<path d="M78.5627 20.25C76.2002 19.7437 75.6939 19.2375 75.1877 16.875C75.1033 16.4531 74.7658 16.2 74.3439 16.2C73.9221 16.2 73.5846 16.4531 73.5002 16.875C72.9939 19.2375 72.4877 19.7437 70.1252 20.25C69.7033 20.3343 69.4502 20.6718 69.4502 21.0937C69.4502 21.5156 69.7033 21.8531 70.1252 21.9375C72.4877 22.4437 72.9939 22.95 73.5002 25.3125C73.5846 25.7343 73.9221 25.9874 74.3439 25.9874C74.7658 25.9874 75.1033 25.7343 75.1877 25.3125C75.6939 22.95 76.2002 22.4437 78.5627 21.9375C78.9846 21.8531 79.2377 21.5156 79.2377 21.0937C79.2377 20.6718 78.9002 20.3343 78.5627 20.25Z" fill="#FFE500"/>
<path d="M84.6377 11.8126C82.7814 11.4751 82.3596 11.0532 82.0221 9.19697C81.9377 8.7751 81.6002 8.52197 81.1783 8.52197C80.7564 8.52197 80.4189 8.7751 80.3346 9.19697C79.9971 11.0532 79.5752 11.4751 77.7189 11.8126C77.2971 11.897 77.0439 12.2345 77.0439 12.6563C77.0439 13.0782 77.2971 13.4157 77.7189 13.5001C79.5752 13.8376 79.9971 14.2595 80.3346 16.1157C80.4189 16.5376 80.7564 16.7907 81.1783 16.7907C81.6002 16.7907 81.9377 16.5376 82.0221 16.1157C82.3596 14.2595 82.7814 13.8376 84.6377 13.5001C85.0596 13.4157 85.3127 13.0782 85.3127 12.6563C85.3127 12.2345 85.0596 11.897 84.6377 11.8126Z" fill="#FFE500"/>
<path d="M64.8094 18.8156C64.5562 18.5625 64.2187 18.4781 63.8812 18.6469C63.7969 18.6469 63.7125 18.7313 63.6281 18.8156C63.5438 18.9 63.4594 18.9844 63.4594 19.0688C63.375 19.1531 63.375 19.3219 63.375 19.4063C63.375 19.4906 63.375 19.6594 63.4594 19.7438C63.5437 19.8281 63.5438 19.9125 63.6281 19.9969C63.7125 20.0813 63.7969 20.1656 63.8812 20.1656C63.9656 20.25 64.1344 20.25 64.2188 20.25C64.3031 20.25 64.4719 20.25 64.5563 20.1656C64.6406 20.0813 64.725 20.0813 64.8094 19.9969C64.8937 19.9125 64.9781 19.8281 64.9781 19.7438C65.0625 19.6594 65.0625 19.4906 65.0625 19.4063C65.0625 19.3219 65.0625 19.1531 64.9781 19.0688C64.9781 18.9844 64.8937 18.9 64.8094 18.8156Z" fill="#FFE500"/>
<path d="M83.625 5.90615C83.8781 5.90615 84.0469 5.82178 84.2156 5.65303C84.3844 5.48428 84.4688 5.31553 84.4688 5.0624C84.4688 4.80928 84.3844 4.64053 84.2156 4.47178C84.1313 4.3874 84.0469 4.30303 83.9625 4.30303C83.7937 4.21865 83.5406 4.21865 83.2875 4.30303C83.2031 4.30303 83.1187 4.3874 83.0344 4.47178C82.8656 4.64053 82.7812 4.80928 82.7812 5.0624C82.7812 5.31553 82.8656 5.48428 83.0344 5.65303C83.2031 5.82178 83.3719 5.90615 83.625 5.90615Z" fill="#FFE500"/>
<defs>
<clipPath id="clip0_296_6">
<rect width="74" height="74" fill="white" transform="translate(0 4)"/>
</clipPath>
</defs>
</svg>
