<svg width="24" height="24" viewBox="0 0 24 24" fill="none" xmlns="http://www.w3.org/2000/svg">
<path d="M15.1921 1.72332C16.9309 1.9165 18.4957 2.75772 19.7336 3.99406C20.9715 5.2304 21.8089 6.79694 22.0043 8.53554M14.6244 5.69712C15.4614 5.86041 16.2922 6.22951 16.8952 6.83249C17.4982 7.43546 17.8673 8.26628 18.0305 9.10323M7.47216 16.2549C-0.359606 8.42225 0.754056 4.83554 1.57966 3.67975C1.68572 3.49293 4.29992 -0.420391 7.10215 1.87554C14.0577 7.60391 5.54148 7.40017 11.0928 12.6357C16.644 17.8712 16.1247 9.67086 21.8521 16.6249C24.1481 19.4283 20.2346 22.0424 20.049 22.1473C18.8932 22.974 15.3051 24.0876 7.47216 16.2549Z" stroke="white" stroke-width="1.70305" stroke-linecap="round" stroke-linejoin="round"/>
</svg>
