<svg width="535" height="575" viewBox="0 0 535 575" fill="none" xmlns="http://www.w3.org/2000/svg">
<g clip-path="url(#clip0_533_2)">
<path d="M482.56 221.817C479.426 209.088 467.279 201.498 455.436 204.866C453.486 205.487 441.353 208.964 428.224 220.972C421.71 226.979 415.023 235.292 410.083 246.189C405.121 257.071 402.053 270.421 402.082 285.532C402.095 303.889 406.4 324.721 416.128 348.712C422.692 364.887 425.682 382.063 425.682 399.076C425.747 427.856 416.865 456.077 403.613 475.761C397.034 485.618 389.458 493.287 381.862 498.246C378.741 500.279 375.652 501.763 372.574 502.942L373.608 496.368C373.55 477.242 369.376 457.241 360.002 439.622C330.372 383.871 290.804 288.302 290.804 288.302L289.208 282.823C320.002 274.067 350.419 256.534 365.642 221.072C406.322 126.349 322.717 60.7793 322.717 60.7793C322.717 60.7793 295.593 -2.36067 282.044 0.0673584C268.483 2.49763 239.104 43.7887 239.104 43.7887H214.248H189.391C189.391 43.7887 160.02 2.49763 146.466 0.0673584C132.904 -2.36179 105.793 60.7793 105.793 60.7793C105.793 60.7793 22.1806 126.349 62.8605 221.072C77.3034 254.71 105.432 272.251 134.578 281.433L131.494 292.284C131.494 292.284 98.1527 383.871 68.5072 439.622C38.8691 495.367 61.105 575 101.856 575C132.65 575 184.551 575 208.116 575C215.736 575 220.408 575 220.408 575C243.964 575 295.874 575 326.667 575C339.889 575 351.097 566.524 359.272 553.298C375.809 553.284 391.466 547.827 404.943 538.97C425.272 525.589 441.21 504.92 452.418 480.689C463.583 456.411 470.031 428.314 470.054 399.075C470.054 376.07 465.994 352.335 456.802 329.656C448.902 310.182 446.439 295.722 446.453 285.531C446.483 277.079 448.021 271.444 449.963 267.098C451.444 263.853 453.228 261.291 455.17 259.134C458.066 255.913 461.402 253.655 463.894 252.335C465.129 251.667 466.125 251.248 466.688 251.03L467.157 250.859L467.15 250.828C478.761 247.283 485.658 234.407 482.56 221.817Z" fill="#FED6FF"/>
</g>
<defs>
<clipPath id="clip0_533_2">
<rect width="535" height="575" fill="white"/>
</clipPath>
</defs>
</svg>
