<svg width="275" height="275" viewBox="0 0 275 275" fill="none" xmlns="http://www.w3.org/2000/svg">
<path d="M157.008 140.986C155.97 144.568 154.62 147.457 154.394 150.394C153.522 161.927 150.991 173.4 153.2 185.088C153.94 189.052 152.686 190.7 149.033 192.252C147.469 192.929 145.836 193.433 144.162 193.756C132.723 196.096 120.895 195.728 109.623 192.681C106.395 191.564 103.277 190.149 100.311 188.455C96.5379 186.593 95.1171 183.465 95.0933 179.262C95.0933 163.192 94.4605 147.135 94.7829 131.077C94.9381 123.269 96.4543 115.473 97.7079 107.724C98.7494 102.284 100.993 97.1444 104.274 92.6815C109.229 91.0339 114.363 91.5831 119.437 91.6547C129.027 91.8355 138.594 90.6292 147.839 88.0731C152.197 86.8792 156.065 84.778 158.584 80.7187C159.753 79.0262 160.426 77.0416 160.529 74.9877C160.633 72.9337 160.162 70.8915 159.169 69.0903C153.462 57.9871 144.866 53.6414 132.928 57.0559C115.652 61.9867 102.412 71.9795 95.1171 88.9566C91.631 97.075 89.1477 98.2331 81.0412 96.0363C79.0332 95.6029 77.1043 94.8619 75.3225 93.8396C66.7504 88.2283 58.226 82.5454 49.8211 76.6834C47.0871 74.7851 46.4901 72.0272 47.302 68.5411C48.6324 62.8692 51.1558 57.5457 54.7041 52.9251C66.3187 37.6652 80.2675 24.3328 96.0364 13.4193C104.955 7.16335 115.27 4.77558 125.633 2.48331C138.455 -0.358138 151.158 -1.03865 164.231 1.91025C177.009 4.61781 188.612 11.2754 197.397 20.9408C202.937 26.9819 208.142 33.3453 213.193 39.8162C219.844 48.5335 224.376 58.6781 226.433 69.4484C231.984 95.8572 222.421 116.106 202.424 132.724C195.141 138.766 186.724 140.724 177.663 140.95C171.204 141.117 164.721 140.986 157.008 140.986ZM141.929 183.011C142.216 180.862 142.622 178.558 142.813 176.23C143.41 169.066 143.756 161.903 144.544 154.74C145.213 148.627 146.407 142.574 147.266 136.485C147.78 132.904 149.976 131.065 153.236 130.516C155.246 130.133 157.29 129.957 159.336 129.99C165.497 130.134 171.645 130.337 177.782 130.707C181.868 131.115 185.989 130.427 189.721 128.713C202.185 122.433 211.629 113.192 215.198 99.4867C218.255 87.7866 218.386 75.8477 213.694 64.2192C211.12 57.5118 207.545 51.2325 203.092 45.5946C198.544 40.0311 194.269 34.2288 189.458 28.8802C181.984 20.6423 173.126 14.4699 161.999 11.7598C141.977 6.81712 122.851 10.1242 104.382 18.8634C102.573 19.8328 100.848 20.951 99.2241 22.2063C85.3989 31.9246 73.6869 43.8754 63.0732 56.9007C60.3392 60.2555 57.3187 63.7297 57.1873 68.4098C65.1773 76.6675 74.8243 83.1409 85.4944 87.4045L90.5923 78.8682C94.6515 72.0869 98.9495 65.4489 105.54 60.8525C115.186 54.1189 125.836 49.0807 137.381 47.3377C153.474 44.9499 165.843 53.0803 170.702 70.7259C171.649 74.4164 171.329 78.3179 169.795 81.8052C166.762 89.1356 161.879 94.3171 154.071 96.8123C145.616 99.5938 136.766 100.985 127.865 100.931C122.481 100.931 117.037 100.358 111.999 101.445C107.725 107.414 107.223 114.052 106.889 120.547C106.029 136.533 105.468 152.531 104.895 168.529C104.943 171.061 105.134 173.588 105.468 176.098C117.944 184.933 127.794 186.784 141.929 183.011Z" fill="url(#paint0_linear_80_84)"/>
<path d="M124.57 274.964C117.686 275.222 110.894 273.305 105.16 269.486C99.4256 265.668 95.0389 260.141 92.6218 253.689C91.0069 249.9 90.3666 245.767 90.7594 241.667C92.204 230.528 96.3945 220.857 104.811 212.858C112.572 205.468 120.893 203.641 131.077 206.304C137.775 208.059 144.281 209.682 149.487 214.601C157.187 221.86 161.342 230.361 159.396 241.189C159.097 242.873 158.942 244.58 158.656 246.263C155.492 264.888 143.481 274.988 124.57 274.964ZM126.707 265.043C129.11 264.703 131.481 264.172 133.799 263.455C143.052 260.148 151.242 246.92 150.119 237.273C149.804 235.621 149.278 234.016 148.555 232.498C143.78 220.356 133.512 216.5 121.741 215.377C119.374 215.184 117.011 215.78 115.019 217.073C107.856 222.206 102.627 229.214 101.194 237.834C98.83 252.113 110.411 265.353 126.707 265.043Z" fill="url(#paint1_linear_80_84)"/>
<path d="M141.93 183.011C127.794 186.784 117.944 184.933 105.468 176.098C105.153 173.571 104.981 171.028 104.955 168.481C105.528 152.483 106.089 136.485 106.949 120.499C107.307 114.052 107.784 107.474 112.059 101.397C117.097 100.31 122.541 100.86 127.925 100.883C136.826 100.937 145.676 99.5461 154.131 96.7646C161.939 94.2097 166.822 89.0879 169.855 81.7574C171.389 78.2701 171.709 74.3686 170.762 70.6781C165.843 53.0802 153.475 44.9021 137.381 47.3376C125.764 49.0807 115.187 54.1189 105.54 60.8883C98.9377 65.4847 94.6517 72.1227 90.5925 78.904L85.4946 87.4403C74.8213 83.1662 65.174 76.6804 57.1875 68.4097C57.3188 63.7297 60.3394 60.2555 63.0734 56.9007C73.687 43.8754 85.3991 31.9245 99.2243 22.2063C100.848 20.9509 102.573 19.8328 104.382 18.8634C122.851 10.1242 141.977 6.8171 162.178 11.7837C173.245 14.4938 182.104 20.6662 189.637 28.904C194.413 34.2049 198.723 40.0072 203.272 45.6184C207.725 51.2563 211.299 57.5356 213.873 64.2431C218.565 75.8715 218.434 87.8104 215.378 99.5105C211.796 113.181 202.364 122.457 189.9 128.737C186.168 130.451 182.047 131.139 177.961 130.731C171.825 130.361 165.676 130.158 159.516 130.014C157.469 129.981 155.425 130.157 153.415 130.54C150.096 131.137 147.899 132.927 147.445 136.509C146.586 142.598 145.392 148.651 144.723 154.764C143.935 161.927 143.529 169.09 142.992 176.254C142.622 178.558 142.216 180.862 141.93 183.011Z" fill="white"/>
<path d="M126.707 265.043C110.411 265.377 98.8302 252.137 101.194 237.858C102.627 229.226 107.856 222.206 115.019 217.073C117.004 215.759 119.368 215.142 121.741 215.318C133.513 216.44 143.744 220.296 148.556 232.438C149.279 233.957 149.804 235.561 150.12 237.213C151.242 246.86 143.052 260.088 133.799 263.395C131.483 264.133 129.111 264.684 126.707 265.043Z" fill="white"/>
<defs>
<linearGradient id="paint0_linear_80_84" x1="137.48" y1="0.000183105" x2="137.48" y2="195.275" gradientUnits="userSpaceOnUse">
<stop stop-color="#FFBD1E"/>
<stop offset="1" stop-color="#FFDB05"/>
</linearGradient>
<linearGradient id="paint1_linear_80_84" x1="125.26" y1="205.146" x2="125.26" y2="274.987" gradientUnits="userSpaceOnUse">
<stop stop-color="#FFBD1E"/>
<stop offset="1" stop-color="#FFDB05"/>
</linearGradient>
</defs>
</svg>
