<svg width="407" height="46" viewBox="0 0 407 46" fill="none" xmlns="http://www.w3.org/2000/svg">
<path fill-rule="evenodd" clip-rule="evenodd" d="M5 0C2.23858 0 0 2.23857 0 5V41C0 43.7614 2.23857 46 4.99999 46H402C404.761 46 407 43.7614 407 41V5C407 2.23858 404.761 0 402 0H5ZM15.616 30.424C16.672 30.904 17.848 31.144 19.144 31.144C20.424 31.144 21.592 30.912 22.648 30.448C23.704 29.968 24.616 29.328 25.384 28.528C26.168 27.712 26.768 26.792 27.184 25.768C27.616 24.744 27.832 23.672 27.832 22.552C27.832 21.464 27.624 20.408 27.208 19.384C26.808 18.344 26.232 17.408 25.48 16.576C24.728 15.744 23.824 15.088 22.768 14.608C21.712 14.112 20.536 13.864 19.24 13.864C17.976 13.864 16.808 14.096 15.736 14.56C14.68 15.024 13.76 15.664 12.976 16.48C12.208 17.28 11.608 18.192 11.176 19.216C10.744 20.24 10.528 21.32 10.528 22.456C10.528 23.56 10.728 24.632 11.128 25.672C11.544 26.696 12.128 27.624 12.88 28.456C13.648 29.272 14.56 29.928 15.616 30.424ZM15.52 24.184C15.36 23.64 15.28 23.08 15.28 22.504C15.28 21.944 15.352 21.4 15.496 20.872C15.656 20.328 15.896 19.848 16.216 19.432C16.536 19 16.936 18.656 17.416 18.4C17.912 18.144 18.496 18.016 19.168 18.016C19.824 18.016 20.4 18.136 20.896 18.376C21.392 18.616 21.8 18.952 22.12 19.384C22.44 19.8 22.68 20.272 22.84 20.8C23 21.328 23.08 21.88 23.08 22.456C23.08 23.016 23 23.568 22.84 24.112C22.696 24.64 22.464 25.128 22.144 25.576C21.84 26.008 21.44 26.352 20.944 26.608C20.448 26.864 19.864 26.992 19.192 26.992C18.52 26.992 17.936 26.872 17.44 26.632C16.96 26.376 16.56 26.04 16.24 25.624C15.92 25.192 15.68 24.712 15.52 24.184ZM31.5196 29.296C32.7036 30.592 34.4236 31.24 36.6796 31.24C38.1836 31.24 39.4476 30.968 40.4716 30.424C41.4956 29.864 42.2716 29.104 42.7996 28.144C43.3276 27.184 43.5916 26.112 43.5916 24.928C43.5916 23.84 43.3436 22.888 42.8476 22.072C42.3676 21.24 41.7036 20.592 40.8556 20.128C40.0236 19.648 39.0796 19.408 38.0236 19.408C36.7596 19.408 35.7116 19.624 34.8796 20.056C34.0476 20.488 33.3516 21.056 32.7916 21.76C32.8556 21.056 33.0636 20.456 33.4156 19.96C33.7676 19.448 34.2156 19.032 34.7596 18.712C35.3196 18.392 35.9196 18.16 36.5596 18.016L42.1276 16.792V13.24L36.6316 14.32C35.4636 14.528 34.4476 14.84 33.5836 15.256C32.7196 15.672 32.0076 16.224 31.4476 16.912C30.8876 17.6 30.4636 18.472 30.1756 19.528C29.9036 20.568 29.7676 21.832 29.7676 23.32C29.7676 25.992 30.3516 27.984 31.5196 29.296ZM38.2876 26.8C37.8716 27.2 37.3356 27.4 36.6796 27.4C36.2476 27.4 35.8636 27.312 35.5276 27.136C35.1916 26.96 34.9276 26.704 34.7356 26.368C34.5436 26.032 34.4476 25.632 34.4476 25.168C34.4476 24.752 34.5436 24.384 34.7356 24.064C34.9276 23.728 35.1916 23.472 35.5276 23.296C35.8636 23.104 36.2476 23.008 36.6796 23.008C37.3356 23.008 37.8716 23.216 38.2876 23.632C38.7036 24.032 38.9116 24.544 38.9116 25.168C38.9116 25.84 38.7036 26.384 38.2876 26.8ZM45.7225 18.376V31H50.2825V26.392H53.6425V31H58.2025V18.376H53.6425V22.672H50.2825V18.376H45.7225ZM64.2773 30.712C65.1413 31.064 66.1333 31.24 67.2533 31.24C68.3893 31.24 69.3813 31.064 70.2293 30.712C71.0933 30.36 71.8133 29.88 72.3893 29.272C72.9813 28.648 73.4213 27.944 73.7093 27.16C74.0133 26.376 74.1653 25.552 74.1653 24.688C74.1653 23.824 74.0133 23 73.7093 22.216C73.4213 21.416 72.9813 20.712 72.3893 20.104C71.8133 19.496 71.0933 19.016 70.2293 18.664C69.3813 18.312 68.3893 18.136 67.2533 18.136C66.1333 18.136 65.1413 18.312 64.2773 18.664C63.4133 19.016 62.6853 19.496 62.0933 20.104C61.5173 20.712 61.0773 21.416 60.7733 22.216C60.4853 23 60.3413 23.824 60.3413 24.688C60.3413 25.552 60.4853 26.376 60.7733 27.16C61.0773 27.944 61.5173 28.648 62.0933 29.272C62.6853 29.88 63.4133 30.36 64.2773 30.712ZM65.3093 26.152C65.1173 25.736 65.0213 25.248 65.0213 24.688C65.0213 24.128 65.1173 23.648 65.3093 23.248C65.5013 22.832 65.7653 22.52 66.1013 22.312C66.4373 22.088 66.8213 21.976 67.2533 21.976C67.6853 21.976 68.0693 22.088 68.4053 22.312C68.7413 22.52 69.0053 22.832 69.1973 23.248C69.3893 23.648 69.4853 24.128 69.4853 24.688C69.4853 25.248 69.3893 25.736 69.1973 26.152C69.0053 26.552 68.7413 26.864 68.4053 27.088C68.0693 27.296 67.6853 27.4 67.2533 27.4C66.8213 27.4 66.4373 27.296 66.1013 27.088C65.7653 26.864 65.5013 26.552 65.3093 26.152ZM83.9395 18.376H76.3075V31H83.3395C84.4595 31 85.4115 30.896 86.1955 30.688C86.9795 30.48 87.5715 30.12 87.9715 29.608C88.3875 29.096 88.5955 28.4 88.5955 27.52C88.5955 26.64 88.3555 25.968 87.8755 25.504C87.3955 25.04 86.7875 24.704 86.0515 24.496C86.7395 24.192 87.2355 23.784 87.5395 23.272C87.8595 22.76 88.0195 22.136 88.0195 21.4C88.0195 20.856 87.8835 20.36 87.6115 19.912C87.3555 19.448 86.9315 19.08 86.3395 18.808C85.7475 18.52 84.9475 18.376 83.9395 18.376ZM83.1955 27.976H80.6275V26.008H83.1955C83.3875 26.008 83.5555 26.048 83.6995 26.128C83.8595 26.208 83.9795 26.32 84.0595 26.464C84.1555 26.608 84.2035 26.784 84.2035 26.992C84.2035 27.2 84.1555 27.376 84.0595 27.52C83.9795 27.664 83.8595 27.776 83.6995 27.856C83.5555 27.936 83.3875 27.976 83.1955 27.976ZM82.8115 23.248H80.6275V21.4H82.8115C83.0995 21.4 83.3235 21.48 83.4835 21.64C83.6595 21.8 83.7475 22.016 83.7475 22.288C83.7475 22.48 83.7075 22.648 83.6275 22.792C83.5635 22.936 83.4595 23.048 83.3155 23.128C83.1715 23.208 83.0035 23.248 82.8115 23.248ZM90.2941 27.208V31.24C91.3821 31.224 92.3181 31.088 93.1021 30.832C93.8861 30.576 94.5421 30.152 95.0701 29.56C95.5981 28.952 96.0061 28.128 96.2941 27.088C96.5821 26.048 96.7661 24.752 96.8461 23.2L96.8941 22.336H98.8381V31H103.398V18.376H92.8621L92.6701 22.72C92.6221 23.648 92.5421 24.408 92.4301 25C92.3181 25.576 92.1581 26.024 91.9501 26.344C91.7581 26.648 91.5261 26.864 91.2541 26.992C90.9821 27.12 90.6621 27.192 90.2941 27.208ZM109.499 30.736C110.363 31.072 111.347 31.24 112.451 31.24C113.475 31.24 114.395 31.096 115.211 30.808C116.027 30.504 116.731 30.096 117.323 29.584C117.931 29.072 118.403 28.48 118.739 27.808L114.875 26.704C114.731 27.104 114.435 27.416 113.987 27.64C113.555 27.864 113.091 27.976 112.595 27.976C112.243 27.976 111.899 27.912 111.563 27.784C111.243 27.656 110.971 27.456 110.747 27.184C110.539 26.896 110.419 26.528 110.387 26.08H119.243C119.275 25.888 119.299 25.672 119.315 25.432C119.347 25.176 119.363 24.928 119.363 24.688C119.363 23.52 119.099 22.44 118.571 21.448C118.043 20.456 117.267 19.656 116.243 19.048C115.219 18.44 113.955 18.136 112.451 18.136C110.947 18.136 109.683 18.448 108.659 19.072C107.635 19.68 106.859 20.496 106.331 21.52C105.803 22.528 105.539 23.64 105.539 24.856C105.539 25.704 105.691 26.512 105.995 27.28C106.299 28.048 106.739 28.728 107.315 29.32C107.907 29.912 108.635 30.384 109.499 30.736ZM114.467 23.344H110.291C110.339 22.928 110.451 22.576 110.627 22.288C110.819 22 111.059 21.776 111.347 21.616C111.651 21.456 111.995 21.376 112.379 21.376C112.763 21.376 113.099 21.456 113.387 21.616C113.691 21.776 113.931 22 114.107 22.288C114.299 22.576 114.419 22.928 114.467 23.344ZM125.948 18.376H121.388V31H125.948V26.392H129.308V31H133.868V18.376H129.308V22.672H125.948V18.376ZM141.311 18.376H136.751V31H140.927L144.887 24.664V31H149.447V18.376H145.295L141.311 24.928V18.376ZM155.541 30.736C156.405 31.072 157.389 31.24 158.493 31.24C159.517 31.24 160.437 31.096 161.253 30.808C162.069 30.504 162.773 30.096 163.365 29.584C163.973 29.072 164.445 28.48 164.781 27.808L160.917 26.704C160.773 27.104 160.477 27.416 160.029 27.64C159.597 27.864 159.133 27.976 158.637 27.976C158.285 27.976 157.941 27.912 157.605 27.784C157.285 27.656 157.013 27.456 156.789 27.184C156.581 26.896 156.461 26.528 156.429 26.08H165.285C165.317 25.888 165.341 25.672 165.357 25.432C165.389 25.176 165.405 24.928 165.405 24.688C165.405 23.52 165.141 22.44 164.613 21.448C164.085 20.456 163.309 19.656 162.285 19.048C161.261 18.44 159.997 18.136 158.493 18.136C156.989 18.136 155.725 18.448 154.701 19.072C153.677 19.68 152.901 20.496 152.373 21.52C151.845 22.528 151.581 23.64 151.581 24.856C151.581 25.704 151.733 26.512 152.037 27.28C152.341 28.048 152.781 28.728 153.357 29.32C153.949 29.912 154.677 30.384 155.541 30.736ZM160.509 23.344H156.333C156.381 22.928 156.493 22.576 156.669 22.288C156.861 22 157.101 21.776 157.389 21.616C157.693 21.456 158.037 21.376 158.421 21.376C158.805 21.376 159.141 21.456 159.429 21.616C159.733 21.776 159.973 22 160.149 22.288C160.341 22.576 160.461 22.928 160.509 23.344ZM182.372 18.376H173.3V31H177.86V22.336H182.372V18.376ZM190.423 30.712C191.095 31.064 191.887 31.24 192.799 31.24C193.839 31.24 194.759 30.952 195.559 30.376C196.375 29.8 197.015 29.016 197.479 28.024C197.943 27.032 198.175 25.904 198.175 24.64C198.175 23.696 198.031 22.832 197.743 22.048C197.455 21.264 197.047 20.576 196.519 19.984C195.991 19.392 195.375 18.936 194.671 18.616C193.967 18.296 193.191 18.136 192.343 18.136C191.399 18.136 190.591 18.32 189.919 18.688C189.263 19.056 188.711 19.584 188.263 20.272V18.376H184.303V36.112H188.863V29.128C189.231 29.816 189.751 30.344 190.423 30.712ZM192.127 27.184C191.855 27.328 191.551 27.4 191.215 27.4C190.895 27.4 190.583 27.32 190.279 27.16C189.975 26.984 189.695 26.752 189.439 26.464C189.199 26.16 189.007 25.824 188.863 25.456V23.272C189.007 23.048 189.159 22.856 189.319 22.696C189.495 22.536 189.671 22.408 189.847 22.312C190.023 22.2 190.207 22.12 190.399 22.072C190.607 22.008 190.815 21.976 191.023 21.976C191.391 21.976 191.727 22.04 192.031 22.168C192.335 22.296 192.599 22.48 192.823 22.72C193.047 22.944 193.215 23.216 193.327 23.536C193.455 23.856 193.519 24.216 193.519 24.616C193.519 25 193.463 25.36 193.351 25.696C193.239 26.032 193.079 26.328 192.871 26.584C192.663 26.84 192.415 27.04 192.127 27.184ZM200.322 24.952C199.858 25.592 199.626 26.336 199.626 27.184C199.626 27.952 199.818 28.648 200.202 29.272C200.586 29.88 201.114 30.36 201.786 30.712C202.458 31.064 203.21 31.24 204.042 31.24C204.874 31.24 205.658 31.056 206.394 30.688C207.13 30.304 207.778 29.752 208.338 29.032L208.434 29.488C208.562 30.064 208.834 30.504 209.25 30.808C209.682 31.096 210.306 31.24 211.122 31.24C211.378 31.24 211.666 31.216 211.986 31.168C212.322 31.136 212.674 31.08 213.042 31V27.16C212.722 27.128 212.498 27.032 212.37 26.872C212.242 26.696 212.178 26.392 212.178 25.96V23.512C212.178 21.736 211.626 20.4 210.522 19.504C209.434 18.592 207.89 18.136 205.89 18.136C204.818 18.136 203.81 18.272 202.866 18.544C201.938 18.8 201.05 19.2 200.202 19.744L201.522 22.576C202.194 22.128 202.834 21.792 203.442 21.568C204.066 21.328 204.73 21.208 205.434 21.208C206.202 21.208 206.754 21.352 207.09 21.64C207.442 21.928 207.618 22.368 207.618 22.96V23.344C207.298 23.184 206.914 23.064 206.466 22.984C206.034 22.904 205.57 22.864 205.074 22.864C204.018 22.864 203.074 23.048 202.242 23.416C201.426 23.784 200.786 24.296 200.322 24.952ZM207.45 27.088C207.338 27.232 207.194 27.368 207.018 27.496C206.81 27.64 206.554 27.76 206.25 27.856C205.962 27.936 205.682 27.976 205.41 27.976C205.122 27.976 204.866 27.928 204.642 27.832C204.418 27.72 204.242 27.576 204.114 27.4C203.986 27.208 203.922 27 203.922 26.776C203.922 26.36 204.106 26.016 204.474 25.744C204.858 25.472 205.322 25.336 205.866 25.336C206.122 25.336 206.41 25.368 206.73 25.432C207.066 25.496 207.362 25.576 207.618 25.672V26.608C207.618 26.768 207.562 26.928 207.45 27.088ZM221.145 31V36.112H225.705V31H225.945C227.337 31 228.513 30.704 229.473 30.112C230.433 29.52 231.153 28.744 231.633 27.784C232.129 26.824 232.377 25.792 232.377 24.688C232.377 23.568 232.129 22.528 231.633 21.568C231.153 20.608 230.433 19.84 229.473 19.264C228.513 18.672 227.337 18.376 225.945 18.376H225.705V13.48H221.145V18.376H220.905C219.513 18.376 218.337 18.672 217.377 19.264C216.433 19.84 215.713 20.608 215.217 21.568C214.721 22.528 214.473 23.568 214.473 24.688C214.473 25.792 214.721 26.824 215.217 27.784C215.713 28.744 216.433 29.52 217.377 30.112C218.337 30.704 219.513 31 220.905 31H221.145ZM221.385 27.4H220.905C220.521 27.4 220.177 27.296 219.873 27.088C219.585 26.864 219.353 26.552 219.177 26.152C219.001 25.736 218.913 25.248 218.913 24.688C218.913 24.128 219.001 23.648 219.177 23.248C219.353 22.832 219.585 22.52 219.873 22.312C220.177 22.088 220.521 21.976 220.905 21.976H221.385V27.4ZM225.945 27.4H225.465V21.976H225.945C226.329 21.976 226.673 22.088 226.977 22.312C227.281 22.52 227.513 22.832 227.673 23.248C227.849 23.648 227.937 24.128 227.937 24.688C227.937 25.248 227.849 25.736 227.673 26.152C227.513 26.552 227.281 26.864 226.977 27.088C226.673 27.296 226.329 27.4 225.945 27.4ZM239.077 18.376H234.517V31H238.693L242.653 24.664V31H247.213V18.376H243.061L239.077 24.928V18.376ZM254.627 18.376H250.091V31H254.627V26.536H255.227L258.179 31H263.363L258.779 24.424L262.955 18.376H258.107L255.347 22.624H254.627V18.376ZM265.429 24.952C264.965 25.592 264.733 26.336 264.733 27.184C264.733 27.952 264.925 28.648 265.309 29.272C265.693 29.88 266.221 30.36 266.893 30.712C267.565 31.064 268.317 31.24 269.149 31.24C269.981 31.24 270.765 31.056 271.501 30.688C272.237 30.304 272.885 29.752 273.445 29.032L273.541 29.488C273.669 30.064 273.941 30.504 274.357 30.808C274.789 31.096 275.413 31.24 276.229 31.24C276.485 31.24 276.773 31.216 277.093 31.168C277.429 31.136 277.781 31.08 278.149 31V27.16C277.829 27.128 277.605 27.032 277.477 26.872C277.349 26.696 277.285 26.392 277.285 25.96V23.512C277.285 21.736 276.733 20.4 275.629 19.504C274.541 18.592 272.997 18.136 270.997 18.136C269.925 18.136 268.917 18.272 267.973 18.544C267.045 18.8 266.157 19.2 265.309 19.744L266.629 22.576C267.301 22.128 267.941 21.792 268.549 21.568C269.173 21.328 269.837 21.208 270.541 21.208C271.309 21.208 271.861 21.352 272.197 21.64C272.549 21.928 272.725 22.368 272.725 22.96V23.344C272.405 23.184 272.021 23.064 271.573 22.984C271.141 22.904 270.677 22.864 270.181 22.864C269.125 22.864 268.181 23.048 267.349 23.416C266.533 23.784 265.893 24.296 265.429 24.952ZM272.557 27.088C272.445 27.232 272.301 27.368 272.125 27.496C271.917 27.64 271.661 27.76 271.357 27.856C271.069 27.936 270.789 27.976 270.517 27.976C270.229 27.976 269.973 27.928 269.749 27.832C269.525 27.72 269.349 27.576 269.221 27.4C269.093 27.208 269.029 27 269.029 26.776C269.029 26.36 269.213 26.016 269.581 25.744C269.965 25.472 270.429 25.336 270.973 25.336C271.229 25.336 271.517 25.368 271.837 25.432C272.173 25.496 272.469 25.576 272.725 25.672V26.608C272.725 26.768 272.669 26.928 272.557 27.088ZM289.387 30.712C290.251 31.064 291.243 31.24 292.363 31.24C293.499 31.24 294.491 31.064 295.339 30.712C296.203 30.36 296.923 29.88 297.499 29.272C298.091 28.648 298.531 27.944 298.819 27.16C299.123 26.376 299.275 25.552 299.275 24.688C299.275 23.824 299.123 23 298.819 22.216C298.531 21.416 298.091 20.712 297.499 20.104C296.923 19.496 296.203 19.016 295.339 18.664C294.491 18.312 293.499 18.136 292.363 18.136C291.243 18.136 290.251 18.312 289.387 18.664C288.523 19.016 287.795 19.496 287.203 20.104C286.627 20.712 286.187 21.416 285.883 22.216C285.595 23 285.451 23.824 285.451 24.688C285.451 25.552 285.595 26.376 285.883 27.16C286.187 27.944 286.627 28.648 287.203 29.272C287.795 29.88 288.523 30.36 289.387 30.712ZM290.419 26.152C290.227 25.736 290.131 25.248 290.131 24.688C290.131 24.128 290.227 23.648 290.419 23.248C290.611 22.832 290.875 22.52 291.211 22.312C291.547 22.088 291.931 21.976 292.363 21.976C292.795 21.976 293.179 22.088 293.515 22.312C293.851 22.52 294.115 22.832 294.307 23.248C294.499 23.648 294.595 24.128 294.595 24.688C294.595 25.248 294.499 25.736 294.307 26.152C294.115 26.552 293.851 26.864 293.515 27.088C293.179 27.296 292.795 27.4 292.363 27.4C291.931 27.4 291.547 27.296 291.211 27.088C290.875 26.864 290.611 26.552 290.419 26.152ZM304.129 22.336V31H308.689V22.336H312.289V18.376H300.529V22.336H304.129ZM323.297 18.376H314.225V31H318.785V22.336H323.297V18.376ZM331.348 30.712C332.02 31.064 332.812 31.24 333.724 31.24C334.764 31.24 335.684 30.952 336.484 30.376C337.3 29.8 337.94 29.016 338.404 28.024C338.868 27.032 339.1 25.904 339.1 24.64C339.1 23.696 338.956 22.832 338.668 22.048C338.38 21.264 337.972 20.576 337.444 19.984C336.916 19.392 336.3 18.936 335.596 18.616C334.892 18.296 334.116 18.136 333.268 18.136C332.324 18.136 331.516 18.32 330.844 18.688C330.188 19.056 329.636 19.584 329.188 20.272V18.376H325.228V36.112H329.788V29.128C330.156 29.816 330.676 30.344 331.348 30.712ZM333.052 27.184C332.78 27.328 332.476 27.4 332.14 27.4C331.82 27.4 331.508 27.32 331.204 27.16C330.9 26.984 330.62 26.752 330.364 26.464C330.124 26.16 329.932 25.824 329.788 25.456V23.272C329.932 23.048 330.084 22.856 330.244 22.696C330.42 22.536 330.596 22.408 330.772 22.312C330.948 22.2 331.132 22.12 331.324 22.072C331.532 22.008 331.74 21.976 331.948 21.976C332.316 21.976 332.652 22.04 332.956 22.168C333.26 22.296 333.524 22.48 333.748 22.72C333.972 22.944 334.14 23.216 334.252 23.536C334.38 23.856 334.444 24.216 334.444 24.616C334.444 25 334.388 25.36 334.276 25.696C334.164 26.032 334.004 26.328 333.796 26.584C333.588 26.84 333.34 27.04 333.052 27.184ZM341.809 36.496C342.241 36.576 342.657 36.616 343.057 36.616C343.921 36.616 344.729 36.44 345.481 36.088C346.233 35.752 346.881 35.272 347.425 34.648C347.969 34.04 348.361 33.328 348.601 32.512L352.873 18.376H348.625L346.681 26.32L344.281 18.376H339.601L344.185 31L344.113 31.456C344.049 31.856 343.881 32.16 343.609 32.368C343.337 32.576 342.993 32.68 342.577 32.68C342.321 32.68 342.033 32.64 341.713 32.56C341.409 32.496 341.073 32.4 340.705 32.272L340.225 36.16C340.849 36.32 341.377 36.432 341.809 36.496ZM356.082 30.472C357.058 30.984 358.306 31.24 359.826 31.24C360.882 31.24 361.826 31.104 362.658 30.832C363.506 30.544 364.17 30.12 364.65 29.56C365.13 29 365.37 28.304 365.37 27.472C365.37 26.752 365.178 26.128 364.794 25.6C364.41 25.056 363.818 24.672 363.018 24.448C363.674 24.224 364.13 23.856 364.386 23.344C364.642 22.832 364.77 22.32 364.77 21.808C364.77 20.992 364.546 20.312 364.098 19.768C363.65 19.224 363.034 18.816 362.25 18.544C361.482 18.272 360.618 18.136 359.658 18.136C358.41 18.136 357.314 18.368 356.37 18.832C355.442 19.296 354.722 19.944 354.21 20.776L357.618 22.6C357.826 22.312 358.066 22.096 358.338 21.952C358.61 21.808 358.97 21.736 359.418 21.736C359.914 21.736 360.266 21.808 360.474 21.952C360.682 22.08 360.786 22.256 360.786 22.48C360.786 22.64 360.746 22.776 360.666 22.888C360.586 23 360.466 23.088 360.306 23.152C360.146 23.2 359.938 23.224 359.682 23.224H358.362V25.96H359.682C360.21 25.96 360.586 26.032 360.81 26.176C361.05 26.32 361.17 26.512 361.17 26.752C361.17 27.008 361.042 27.224 360.786 27.4C360.53 27.56 360.122 27.64 359.562 27.64C359.034 27.64 358.602 27.56 358.266 27.4C357.946 27.24 357.666 27.008 357.426 26.704L353.802 28.384C354.362 29.264 355.122 29.96 356.082 30.472ZM370.994 30.712C371.858 31.064 372.85 31.24 373.97 31.24C375.106 31.24 376.098 31.064 376.946 30.712C377.81 30.36 378.53 29.88 379.106 29.272C379.698 28.648 380.138 27.944 380.426 27.16C380.73 26.376 380.882 25.552 380.882 24.688C380.882 23.824 380.73 23 380.426 22.216C380.138 21.416 379.698 20.712 379.106 20.104C378.53 19.496 377.81 19.016 376.946 18.664C376.098 18.312 375.106 18.136 373.97 18.136C372.85 18.136 371.858 18.312 370.994 18.664C370.13 19.016 369.402 19.496 368.81 20.104C368.234 20.712 367.794 21.416 367.49 22.216C367.202 23 367.058 23.824 367.058 24.688C367.058 25.552 367.202 26.376 367.49 27.16C367.794 27.944 368.234 28.648 368.81 29.272C369.402 29.88 370.13 30.36 370.994 30.712ZM372.026 26.152C371.834 25.736 371.738 25.248 371.738 24.688C371.738 24.128 371.834 23.648 372.026 23.248C372.218 22.832 372.482 22.52 372.818 22.312C373.154 22.088 373.538 21.976 373.97 21.976C374.402 21.976 374.786 22.088 375.122 22.312C375.458 22.52 375.722 22.832 375.914 23.248C376.106 23.648 376.202 24.128 376.202 24.688C376.202 25.248 376.106 25.736 375.914 26.152C375.722 26.552 375.458 26.864 375.122 27.088C374.786 27.296 374.402 27.4 373.97 27.4C373.538 27.4 373.154 27.296 372.818 27.088C372.482 26.864 372.218 26.552 372.026 26.152ZM387.56 18.376H383.024V31H387.56V26.536H388.16L391.112 31H396.296L391.712 24.424L395.888 18.376H391.04L388.28 22.624H387.56V18.376Z" fill="white"/>
</svg>
