<svg width="407" height="46" viewBox="0 0 407 46" fill="none" xmlns="http://www.w3.org/2000/svg">
<rect width="407" height="46" rx="5" fill="black"/>
<path d="M19.144 31.144C17.848 31.144 16.672 30.904 15.616 30.424C14.56 29.928 13.648 29.272 12.88 28.456C12.128 27.624 11.544 26.696 11.128 25.672C10.728 24.632 10.528 23.56 10.528 22.456C10.528 21.32 10.744 20.24 11.176 19.216C11.608 18.192 12.208 17.28 12.976 16.48C13.76 15.664 14.68 15.024 15.736 14.56C16.808 14.096 17.976 13.864 19.24 13.864C20.536 13.864 21.712 14.112 22.768 14.608C23.824 15.088 24.728 15.744 25.48 16.576C26.232 17.408 26.808 18.344 27.208 19.384C27.624 20.408 27.832 21.464 27.832 22.552C27.832 23.672 27.616 24.744 27.184 25.768C26.768 26.792 26.168 27.712 25.384 28.528C24.616 29.328 23.704 29.968 22.648 30.448C21.592 30.912 20.424 31.144 19.144 31.144ZM15.28 22.504C15.28 23.08 15.36 23.64 15.52 24.184C15.68 24.712 15.92 25.192 16.24 25.624C16.56 26.04 16.96 26.376 17.44 26.632C17.936 26.872 18.52 26.992 19.192 26.992C19.864 26.992 20.448 26.864 20.944 26.608C21.44 26.352 21.84 26.008 22.144 25.576C22.464 25.128 22.696 24.64 22.84 24.112C23 23.568 23.08 23.016 23.08 22.456C23.08 21.88 23 21.328 22.84 20.8C22.68 20.272 22.44 19.8 22.12 19.384C21.8 18.952 21.392 18.616 20.896 18.376C20.4 18.136 19.824 18.016 19.168 18.016C18.496 18.016 17.912 18.144 17.416 18.4C16.936 18.656 16.536 19 16.216 19.432C15.896 19.848 15.656 20.328 15.496 20.872C15.352 21.4 15.28 21.944 15.28 22.504ZM36.6796 31.24C34.4236 31.24 32.7036 30.592 31.5196 29.296C30.3516 27.984 29.7676 25.992 29.7676 23.32C29.7676 21.832 29.9036 20.568 30.1756 19.528C30.4636 18.472 30.8876 17.6 31.4476 16.912C32.0076 16.224 32.7196 15.672 33.5836 15.256C34.4476 14.84 35.4636 14.528 36.6316 14.32L42.1276 13.24V16.792L36.5596 18.016C35.9196 18.16 35.3196 18.392 34.7596 18.712C34.2156 19.032 33.7676 19.448 33.4156 19.96C33.0636 20.456 32.8556 21.056 32.7916 21.76C33.3516 21.056 34.0476 20.488 34.8796 20.056C35.7116 19.624 36.7596 19.408 38.0236 19.408C39.0796 19.408 40.0236 19.648 40.8556 20.128C41.7036 20.592 42.3676 21.24 42.8476 22.072C43.3436 22.888 43.5916 23.84 43.5916 24.928C43.5916 26.112 43.3276 27.184 42.7996 28.144C42.2716 29.104 41.4956 29.864 40.4716 30.424C39.4476 30.968 38.1836 31.24 36.6796 31.24ZM36.6796 27.4C37.3356 27.4 37.8716 27.2 38.2876 26.8C38.7036 26.384 38.9116 25.84 38.9116 25.168C38.9116 24.544 38.7036 24.032 38.2876 23.632C37.8716 23.216 37.3356 23.008 36.6796 23.008C36.2476 23.008 35.8636 23.104 35.5276 23.296C35.1916 23.472 34.9276 23.728 34.7356 24.064C34.5436 24.384 34.4476 24.752 34.4476 25.168C34.4476 25.632 34.5436 26.032 34.7356 26.368C34.9276 26.704 35.1916 26.96 35.5276 27.136C35.8636 27.312 36.2476 27.4 36.6796 27.4ZM45.7225 31V18.376H50.2825V22.672H53.6425V18.376H58.2025V31H53.6425V26.392H50.2825V31H45.7225ZM67.2533 31.24C66.1333 31.24 65.1413 31.064 64.2773 30.712C63.4133 30.36 62.6853 29.88 62.0933 29.272C61.5173 28.648 61.0773 27.944 60.7733 27.16C60.4853 26.376 60.3413 25.552 60.3413 24.688C60.3413 23.824 60.4853 23 60.7733 22.216C61.0773 21.416 61.5173 20.712 62.0933 20.104C62.6853 19.496 63.4133 19.016 64.2773 18.664C65.1413 18.312 66.1333 18.136 67.2533 18.136C68.3893 18.136 69.3813 18.312 70.2293 18.664C71.0933 19.016 71.8133 19.496 72.3893 20.104C72.9813 20.712 73.4213 21.416 73.7093 22.216C74.0133 23 74.1653 23.824 74.1653 24.688C74.1653 25.552 74.0133 26.376 73.7093 27.16C73.4213 27.944 72.9813 28.648 72.3893 29.272C71.8133 29.88 71.0933 30.36 70.2293 30.712C69.3813 31.064 68.3893 31.24 67.2533 31.24ZM65.0213 24.688C65.0213 25.248 65.1173 25.736 65.3093 26.152C65.5013 26.552 65.7653 26.864 66.1013 27.088C66.4373 27.296 66.8213 27.4 67.2533 27.4C67.6853 27.4 68.0693 27.296 68.4053 27.088C68.7413 26.864 69.0053 26.552 69.1973 26.152C69.3893 25.736 69.4853 25.248 69.4853 24.688C69.4853 24.128 69.3893 23.648 69.1973 23.248C69.0053 22.832 68.7413 22.52 68.4053 22.312C68.0693 22.088 67.6853 21.976 67.2533 21.976C66.8213 21.976 66.4373 22.088 66.1013 22.312C65.7653 22.52 65.5013 22.832 65.3093 23.248C65.1173 23.648 65.0213 24.128 65.0213 24.688ZM76.3075 31V18.376H83.9395C84.9475 18.376 85.7475 18.52 86.3395 18.808C86.9315 19.08 87.3555 19.448 87.6115 19.912C87.8835 20.36 88.0195 20.856 88.0195 21.4C88.0195 22.136 87.8595 22.76 87.5395 23.272C87.2355 23.784 86.7395 24.192 86.0515 24.496C86.7875 24.704 87.3955 25.04 87.8755 25.504C88.3555 25.968 88.5955 26.64 88.5955 27.52C88.5955 28.4 88.3875 29.096 87.9715 29.608C87.5715 30.12 86.9795 30.48 86.1955 30.688C85.4115 30.896 84.4595 31 83.3395 31H76.3075ZM80.6275 27.976H83.1955C83.3875 27.976 83.5555 27.936 83.6995 27.856C83.8595 27.776 83.9795 27.664 84.0595 27.52C84.1555 27.376 84.2035 27.2 84.2035 26.992C84.2035 26.784 84.1555 26.608 84.0595 26.464C83.9795 26.32 83.8595 26.208 83.6995 26.128C83.5555 26.048 83.3875 26.008 83.1955 26.008H80.6275V27.976ZM80.6275 23.248H82.8115C83.0035 23.248 83.1715 23.208 83.3155 23.128C83.4595 23.048 83.5635 22.936 83.6275 22.792C83.7075 22.648 83.7475 22.48 83.7475 22.288C83.7475 22.016 83.6595 21.8 83.4835 21.64C83.3235 21.48 83.0995 21.4 82.8115 21.4H80.6275V23.248ZM90.2941 31.24V27.208C90.6621 27.192 90.9821 27.12 91.2541 26.992C91.5261 26.864 91.7581 26.648 91.9501 26.344C92.1581 26.024 92.3181 25.576 92.4301 25C92.5421 24.408 92.6221 23.648 92.6701 22.72L92.8621 18.376H103.398V31H98.8381V22.336H96.8941L96.8461 23.2C96.7661 24.752 96.5821 26.048 96.2941 27.088C96.0061 28.128 95.5981 28.952 95.0701 29.56C94.5421 30.152 93.8861 30.576 93.1021 30.832C92.3181 31.088 91.3821 31.224 90.2941 31.24ZM112.451 31.24C111.347 31.24 110.363 31.072 109.499 30.736C108.635 30.384 107.907 29.912 107.315 29.32C106.739 28.728 106.299 28.048 105.995 27.28C105.691 26.512 105.539 25.704 105.539 24.856C105.539 23.64 105.803 22.528 106.331 21.52C106.859 20.496 107.635 19.68 108.659 19.072C109.683 18.448 110.947 18.136 112.451 18.136C113.955 18.136 115.219 18.44 116.243 19.048C117.267 19.656 118.043 20.456 118.571 21.448C119.099 22.44 119.363 23.52 119.363 24.688C119.363 24.928 119.347 25.176 119.315 25.432C119.299 25.672 119.275 25.888 119.243 26.08H110.387C110.419 26.528 110.539 26.896 110.747 27.184C110.971 27.456 111.243 27.656 111.563 27.784C111.899 27.912 112.243 27.976 112.595 27.976C113.091 27.976 113.555 27.864 113.987 27.64C114.435 27.416 114.731 27.104 114.875 26.704L118.739 27.808C118.403 28.48 117.931 29.072 117.323 29.584C116.731 30.096 116.027 30.504 115.211 30.808C114.395 31.096 113.475 31.24 112.451 31.24ZM110.291 23.344H114.467C114.419 22.928 114.299 22.576 114.107 22.288C113.931 22 113.691 21.776 113.387 21.616C113.099 21.456 112.763 21.376 112.379 21.376C111.995 21.376 111.651 21.456 111.347 21.616C111.059 21.776 110.819 22 110.627 22.288C110.451 22.576 110.339 22.928 110.291 23.344ZM121.388 31V18.376H125.948V22.672H129.308V18.376H133.868V31H129.308V26.392H125.948V31H121.388ZM136.751 31V18.376H141.311V24.928L145.295 18.376H149.447V31H144.887V24.664L140.927 31H136.751ZM158.493 31.24C157.389 31.24 156.405 31.072 155.541 30.736C154.677 30.384 153.949 29.912 153.357 29.32C152.781 28.728 152.341 28.048 152.037 27.28C151.733 26.512 151.581 25.704 151.581 24.856C151.581 23.64 151.845 22.528 152.373 21.52C152.901 20.496 153.677 19.68 154.701 19.072C155.725 18.448 156.989 18.136 158.493 18.136C159.997 18.136 161.261 18.44 162.285 19.048C163.309 19.656 164.085 20.456 164.613 21.448C165.141 22.44 165.405 23.52 165.405 24.688C165.405 24.928 165.389 25.176 165.357 25.432C165.341 25.672 165.317 25.888 165.285 26.08H156.429C156.461 26.528 156.581 26.896 156.789 27.184C157.013 27.456 157.285 27.656 157.605 27.784C157.941 27.912 158.285 27.976 158.637 27.976C159.133 27.976 159.597 27.864 160.029 27.64C160.477 27.416 160.773 27.104 160.917 26.704L164.781 27.808C164.445 28.48 163.973 29.072 163.365 29.584C162.773 30.096 162.069 30.504 161.253 30.808C160.437 31.096 159.517 31.24 158.493 31.24ZM156.333 23.344H160.509C160.461 22.928 160.341 22.576 160.149 22.288C159.973 22 159.733 21.776 159.429 21.616C159.141 21.456 158.805 21.376 158.421 21.376C158.037 21.376 157.693 21.456 157.389 21.616C157.101 21.776 156.861 22 156.669 22.288C156.493 22.576 156.381 22.928 156.333 23.344ZM173.3 31V18.376H182.372V22.336H177.86V31H173.3ZM192.799 31.24C191.887 31.24 191.095 31.064 190.423 30.712C189.751 30.344 189.231 29.816 188.863 29.128V36.112H184.303V18.376H188.263V20.272C188.711 19.584 189.263 19.056 189.919 18.688C190.591 18.32 191.399 18.136 192.343 18.136C193.191 18.136 193.967 18.296 194.671 18.616C195.375 18.936 195.991 19.392 196.519 19.984C197.047 20.576 197.455 21.264 197.743 22.048C198.031 22.832 198.175 23.696 198.175 24.64C198.175 25.904 197.943 27.032 197.479 28.024C197.015 29.016 196.375 29.8 195.559 30.376C194.759 30.952 193.839 31.24 192.799 31.24ZM191.215 27.4C191.551 27.4 191.855 27.328 192.127 27.184C192.415 27.04 192.663 26.84 192.871 26.584C193.079 26.328 193.239 26.032 193.351 25.696C193.463 25.36 193.519 25 193.519 24.616C193.519 24.216 193.455 23.856 193.327 23.536C193.215 23.216 193.047 22.944 192.823 22.72C192.599 22.48 192.335 22.296 192.031 22.168C191.727 22.04 191.391 21.976 191.023 21.976C190.815 21.976 190.607 22.008 190.399 22.072C190.207 22.12 190.023 22.2 189.847 22.312C189.671 22.408 189.495 22.536 189.319 22.696C189.159 22.856 189.007 23.048 188.863 23.272V25.456C189.007 25.824 189.199 26.16 189.439 26.464C189.695 26.752 189.975 26.984 190.279 27.16C190.583 27.32 190.895 27.4 191.215 27.4ZM199.626 27.184C199.626 26.336 199.858 25.592 200.322 24.952C200.786 24.296 201.426 23.784 202.242 23.416C203.074 23.048 204.018 22.864 205.074 22.864C205.57 22.864 206.034 22.904 206.466 22.984C206.914 23.064 207.298 23.184 207.618 23.344V22.96C207.618 22.368 207.442 21.928 207.09 21.64C206.754 21.352 206.202 21.208 205.434 21.208C204.73 21.208 204.066 21.328 203.442 21.568C202.834 21.792 202.194 22.128 201.522 22.576L200.202 19.744C201.05 19.2 201.938 18.8 202.866 18.544C203.81 18.272 204.818 18.136 205.89 18.136C207.89 18.136 209.434 18.592 210.522 19.504C211.626 20.4 212.178 21.736 212.178 23.512V25.96C212.178 26.392 212.242 26.696 212.37 26.872C212.498 27.032 212.722 27.128 213.042 27.16V31C212.674 31.08 212.322 31.136 211.986 31.168C211.666 31.216 211.378 31.24 211.122 31.24C210.306 31.24 209.682 31.096 209.25 30.808C208.834 30.504 208.562 30.064 208.434 29.488L208.338 29.032C207.778 29.752 207.13 30.304 206.394 30.688C205.658 31.056 204.874 31.24 204.042 31.24C203.21 31.24 202.458 31.064 201.786 30.712C201.114 30.36 200.586 29.88 200.202 29.272C199.818 28.648 199.626 27.952 199.626 27.184ZM207.018 27.496C207.194 27.368 207.338 27.232 207.45 27.088C207.562 26.928 207.618 26.768 207.618 26.608V25.672C207.362 25.576 207.066 25.496 206.73 25.432C206.41 25.368 206.122 25.336 205.866 25.336C205.322 25.336 204.858 25.472 204.474 25.744C204.106 26.016 203.922 26.36 203.922 26.776C203.922 27 203.986 27.208 204.114 27.4C204.242 27.576 204.418 27.72 204.642 27.832C204.866 27.928 205.122 27.976 205.41 27.976C205.682 27.976 205.962 27.936 206.25 27.856C206.554 27.76 206.81 27.64 207.018 27.496ZM221.145 36.112V31H220.905C219.513 31 218.337 30.704 217.377 30.112C216.433 29.52 215.713 28.744 215.217 27.784C214.721 26.824 214.473 25.792 214.473 24.688C214.473 23.568 214.721 22.528 215.217 21.568C215.713 20.608 216.433 19.84 217.377 19.264C218.337 18.672 219.513 18.376 220.905 18.376H221.145V13.48H225.705V18.376H225.945C227.337 18.376 228.513 18.672 229.473 19.264C230.433 19.84 231.153 20.608 231.633 21.568C232.129 22.528 232.377 23.568 232.377 24.688C232.377 25.792 232.129 26.824 231.633 27.784C231.153 28.744 230.433 29.52 229.473 30.112C228.513 30.704 227.337 31 225.945 31H225.705V36.112H221.145ZM220.905 27.4H221.385V21.976H220.905C220.521 21.976 220.177 22.088 219.873 22.312C219.585 22.52 219.353 22.832 219.177 23.248C219.001 23.648 218.913 24.128 218.913 24.688C218.913 25.248 219.001 25.736 219.177 26.152C219.353 26.552 219.585 26.864 219.873 27.088C220.177 27.296 220.521 27.4 220.905 27.4ZM225.465 27.4H225.945C226.329 27.4 226.673 27.296 226.977 27.088C227.281 26.864 227.513 26.552 227.673 26.152C227.849 25.736 227.937 25.248 227.937 24.688C227.937 24.128 227.849 23.648 227.673 23.248C227.513 22.832 227.281 22.52 226.977 22.312C226.673 22.088 226.329 21.976 225.945 21.976H225.465V27.4ZM234.517 31V18.376H239.077V24.928L243.061 18.376H247.213V31H242.653V24.664L238.693 31H234.517ZM250.091 31V18.376H254.627V22.624H255.347L258.107 18.376H262.955L258.779 24.424L263.363 31H258.179L255.227 26.536H254.627V31H250.091ZM264.733 27.184C264.733 26.336 264.965 25.592 265.429 24.952C265.893 24.296 266.533 23.784 267.349 23.416C268.181 23.048 269.125 22.864 270.181 22.864C270.677 22.864 271.141 22.904 271.573 22.984C272.021 23.064 272.405 23.184 272.725 23.344V22.96C272.725 22.368 272.549 21.928 272.197 21.64C271.861 21.352 271.309 21.208 270.541 21.208C269.837 21.208 269.173 21.328 268.549 21.568C267.941 21.792 267.301 22.128 266.629 22.576L265.309 19.744C266.157 19.2 267.045 18.8 267.973 18.544C268.917 18.272 269.925 18.136 270.997 18.136C272.997 18.136 274.541 18.592 275.629 19.504C276.733 20.4 277.285 21.736 277.285 23.512V25.96C277.285 26.392 277.349 26.696 277.477 26.872C277.605 27.032 277.829 27.128 278.149 27.16V31C277.781 31.08 277.429 31.136 277.093 31.168C276.773 31.216 276.485 31.24 276.229 31.24C275.413 31.24 274.789 31.096 274.357 30.808C273.941 30.504 273.669 30.064 273.541 29.488L273.445 29.032C272.885 29.752 272.237 30.304 271.501 30.688C270.765 31.056 269.981 31.24 269.149 31.24C268.317 31.24 267.565 31.064 266.893 30.712C266.221 30.36 265.693 29.88 265.309 29.272C264.925 28.648 264.733 27.952 264.733 27.184ZM272.125 27.496C272.301 27.368 272.445 27.232 272.557 27.088C272.669 26.928 272.725 26.768 272.725 26.608V25.672C272.469 25.576 272.173 25.496 271.837 25.432C271.517 25.368 271.229 25.336 270.973 25.336C270.429 25.336 269.965 25.472 269.581 25.744C269.213 26.016 269.029 26.36 269.029 26.776C269.029 27 269.093 27.208 269.221 27.4C269.349 27.576 269.525 27.72 269.749 27.832C269.973 27.928 270.229 27.976 270.517 27.976C270.789 27.976 271.069 27.936 271.357 27.856C271.661 27.76 271.917 27.64 272.125 27.496ZM292.363 31.24C291.243 31.24 290.251 31.064 289.387 30.712C288.523 30.36 287.795 29.88 287.203 29.272C286.627 28.648 286.187 27.944 285.883 27.16C285.595 26.376 285.451 25.552 285.451 24.688C285.451 23.824 285.595 23 285.883 22.216C286.187 21.416 286.627 20.712 287.203 20.104C287.795 19.496 288.523 19.016 289.387 18.664C290.251 18.312 291.243 18.136 292.363 18.136C293.499 18.136 294.491 18.312 295.339 18.664C296.203 19.016 296.923 19.496 297.499 20.104C298.091 20.712 298.531 21.416 298.819 22.216C299.123 23 299.275 23.824 299.275 24.688C299.275 25.552 299.123 26.376 298.819 27.16C298.531 27.944 298.091 28.648 297.499 29.272C296.923 29.88 296.203 30.36 295.339 30.712C294.491 31.064 293.499 31.24 292.363 31.24ZM290.131 24.688C290.131 25.248 290.227 25.736 290.419 26.152C290.611 26.552 290.875 26.864 291.211 27.088C291.547 27.296 291.931 27.4 292.363 27.4C292.795 27.4 293.179 27.296 293.515 27.088C293.851 26.864 294.115 26.552 294.307 26.152C294.499 25.736 294.595 25.248 294.595 24.688C294.595 24.128 294.499 23.648 294.307 23.248C294.115 22.832 293.851 22.52 293.515 22.312C293.179 22.088 292.795 21.976 292.363 21.976C291.931 21.976 291.547 22.088 291.211 22.312C290.875 22.52 290.611 22.832 290.419 23.248C290.227 23.648 290.131 24.128 290.131 24.688ZM304.129 31V22.336H300.529V18.376H312.289V22.336H308.689V31H304.129ZM314.225 31V18.376H323.297V22.336H318.785V31H314.225ZM333.724 31.24C332.812 31.24 332.02 31.064 331.348 30.712C330.676 30.344 330.156 29.816 329.788 29.128V36.112H325.228V18.376H329.188V20.272C329.636 19.584 330.188 19.056 330.844 18.688C331.516 18.32 332.324 18.136 333.268 18.136C334.116 18.136 334.892 18.296 335.596 18.616C336.3 18.936 336.916 19.392 337.444 19.984C337.972 20.576 338.38 21.264 338.668 22.048C338.956 22.832 339.1 23.696 339.1 24.64C339.1 25.904 338.868 27.032 338.404 28.024C337.94 29.016 337.3 29.8 336.484 30.376C335.684 30.952 334.764 31.24 333.724 31.24ZM332.14 27.4C332.476 27.4 332.78 27.328 333.052 27.184C333.34 27.04 333.588 26.84 333.796 26.584C334.004 26.328 334.164 26.032 334.276 25.696C334.388 25.36 334.444 25 334.444 24.616C334.444 24.216 334.38 23.856 334.252 23.536C334.14 23.216 333.972 22.944 333.748 22.72C333.524 22.48 333.26 22.296 332.956 22.168C332.652 22.04 332.316 21.976 331.948 21.976C331.74 21.976 331.532 22.008 331.324 22.072C331.132 22.12 330.948 22.2 330.772 22.312C330.596 22.408 330.42 22.536 330.244 22.696C330.084 22.856 329.932 23.048 329.788 23.272V25.456C329.932 25.824 330.124 26.16 330.364 26.464C330.62 26.752 330.9 26.984 331.204 27.16C331.508 27.32 331.82 27.4 332.14 27.4ZM343.057 36.616C342.657 36.616 342.241 36.576 341.809 36.496C341.377 36.432 340.849 36.32 340.225 36.16L340.705 32.272C341.073 32.4 341.409 32.496 341.713 32.56C342.033 32.64 342.321 32.68 342.577 32.68C342.993 32.68 343.337 32.576 343.609 32.368C343.881 32.16 344.049 31.856 344.113 31.456L344.185 31L339.601 18.376H344.281L346.681 26.32L348.625 18.376H352.873L348.601 32.512C348.361 33.328 347.969 34.04 347.425 34.648C346.881 35.272 346.233 35.752 345.481 36.088C344.729 36.44 343.921 36.616 343.057 36.616ZM359.826 31.24C358.306 31.24 357.058 30.984 356.082 30.472C355.122 29.96 354.362 29.264 353.802 28.384L357.426 26.704C357.666 27.008 357.946 27.24 358.266 27.4C358.602 27.56 359.034 27.64 359.562 27.64C360.122 27.64 360.53 27.56 360.786 27.4C361.042 27.224 361.17 27.008 361.17 26.752C361.17 26.512 361.05 26.32 360.81 26.176C360.586 26.032 360.21 25.96 359.682 25.96H358.362V23.224H359.682C359.938 23.224 360.146 23.2 360.306 23.152C360.466 23.088 360.586 23 360.666 22.888C360.746 22.776 360.786 22.64 360.786 22.48C360.786 22.256 360.682 22.08 360.474 21.952C360.266 21.808 359.914 21.736 359.418 21.736C358.97 21.736 358.61 21.808 358.338 21.952C358.066 22.096 357.826 22.312 357.618 22.6L354.21 20.776C354.722 19.944 355.442 19.296 356.37 18.832C357.314 18.368 358.41 18.136 359.658 18.136C360.618 18.136 361.482 18.272 362.25 18.544C363.034 18.816 363.65 19.224 364.098 19.768C364.546 20.312 364.77 20.992 364.77 21.808C364.77 22.32 364.642 22.832 364.386 23.344C364.13 23.856 363.674 24.224 363.018 24.448C363.818 24.672 364.41 25.056 364.794 25.6C365.178 26.128 365.37 26.752 365.37 27.472C365.37 28.304 365.13 29 364.65 29.56C364.17 30.12 363.506 30.544 362.658 30.832C361.826 31.104 360.882 31.24 359.826 31.24ZM373.97 31.24C372.85 31.24 371.858 31.064 370.994 30.712C370.13 30.36 369.402 29.88 368.81 29.272C368.234 28.648 367.794 27.944 367.49 27.16C367.202 26.376 367.058 25.552 367.058 24.688C367.058 23.824 367.202 23 367.49 22.216C367.794 21.416 368.234 20.712 368.81 20.104C369.402 19.496 370.13 19.016 370.994 18.664C371.858 18.312 372.85 18.136 373.97 18.136C375.106 18.136 376.098 18.312 376.946 18.664C377.81 19.016 378.53 19.496 379.106 20.104C379.698 20.712 380.138 21.416 380.426 22.216C380.73 23 380.882 23.824 380.882 24.688C380.882 25.552 380.73 26.376 380.426 27.16C380.138 27.944 379.698 28.648 379.106 29.272C378.53 29.88 377.81 30.36 376.946 30.712C376.098 31.064 375.106 31.24 373.97 31.24ZM371.738 24.688C371.738 25.248 371.834 25.736 372.026 26.152C372.218 26.552 372.482 26.864 372.818 27.088C373.154 27.296 373.538 27.4 373.97 27.4C374.402 27.4 374.786 27.296 375.122 27.088C375.458 26.864 375.722 26.552 375.914 26.152C376.106 25.736 376.202 25.248 376.202 24.688C376.202 24.128 376.106 23.648 375.914 23.248C375.722 22.832 375.458 22.52 375.122 22.312C374.786 22.088 374.402 21.976 373.97 21.976C373.538 21.976 373.154 22.088 372.818 22.312C372.482 22.52 372.218 22.832 372.026 23.248C371.834 23.648 371.738 24.128 371.738 24.688ZM383.024 31V18.376H387.56V22.624H388.28L391.04 18.376H395.888L391.712 24.424L396.296 31H391.112L388.16 26.536H387.56V31H383.024Z" fill="white"/>
</svg>
