<svg width="340" height="105" viewBox="0 0 340 105" fill="none" xmlns="http://www.w3.org/2000/svg">
<path d="M146.791 52.0063C144.443 52.0063 142.223 51.6211 140.132 50.8506C138.078 50.0801 136.408 48.9795 135.124 47.5486C133.84 46.1178 133.198 44.4301 133.198 42.4856C133.198 41.8619 133.308 41.2015 133.528 40.5044C133.822 39.5505 134.152 39.0735 134.519 39.0735C135.069 39.0735 135.344 39.3854 135.344 40.0091C135.344 40.2659 135.271 40.6145 135.124 41.0547C134.977 41.495 134.904 41.9169 134.904 42.3205C134.904 43.9348 135.454 45.3473 136.555 46.558C137.656 47.7321 139.068 48.6309 140.793 49.2546C142.554 49.8783 144.388 50.1902 146.296 50.1902C150.442 50.1902 153.964 49.1996 156.862 47.2184C158.366 46.1911 159.614 44.9621 160.604 43.5312C161.595 42.0637 162.09 40.5044 162.09 38.8534C162.09 37.3492 161.705 36.1018 160.935 35.1112C160.201 34.1206 159.173 33.2768 157.853 32.5797C156.532 31.8459 155.009 31.1855 153.285 30.5985C148.369 28.8741 145.911 26.7829 145.911 24.3247C145.911 23.0039 146.406 21.7382 147.396 20.5275C148.387 19.3167 149.598 18.2528 151.029 17.3356C152.459 16.3816 153.835 15.6662 155.156 15.1893C157.101 14.4555 158.898 13.9602 160.549 13.7034C162.237 13.4099 163.796 13.2631 165.227 13.2631C167.172 13.2631 168.547 13.7217 169.355 14.6389C170.162 15.5195 170.565 16.6201 170.565 17.9409C170.565 18.9682 170.308 19.9588 169.795 20.9127C169.318 21.8666 168.657 22.6921 167.814 23.3892C166.86 24.1963 166.089 24.5999 165.502 24.5999C164.879 24.5999 164.567 24.3064 164.567 23.7194C164.567 23.3892 164.732 23.1507 165.062 23.0039C167.52 21.7565 168.749 20.0505 168.749 17.8859C168.749 16.932 168.474 16.2349 167.924 15.7946C167.41 15.3177 166.511 15.0792 165.227 15.0792C164.053 15.0792 162.732 15.2076 161.265 15.4644C159.834 15.7213 158.366 16.1065 156.862 16.6201C155.541 17.0971 154.202 17.7391 152.845 18.5463C151.487 19.3534 150.35 20.234 149.433 21.1879C148.552 22.1418 148.112 23.0957 148.112 24.0496C148.112 26.0674 150.056 27.6817 153.945 28.8925C160.659 31.0204 164.016 34.2857 164.016 38.6883C164.016 40.0091 163.705 41.3116 163.081 42.5957C162.494 43.8798 161.705 45.0538 160.714 46.1178C159.761 47.1817 158.733 48.0989 157.633 48.8694C156.055 49.9701 154.331 50.7589 152.459 51.2358C150.625 51.7495 148.736 52.0063 146.791 52.0063ZM167.336 51.6761C166.676 51.6761 166.346 51.3642 166.346 50.7405C166.346 50.447 166.456 50.0618 166.676 49.5848C166.933 49.0712 167.153 48.6126 167.336 48.209C168.437 45.8976 169.886 43.1643 171.684 40.0091C173.518 36.8539 175.701 33.2951 178.233 29.3327C177.242 29.3327 176.747 29.0392 176.747 28.4522C176.747 27.8285 177.096 27.5166 177.793 27.5166L179.444 27.5717C180.581 25.8473 181.553 24.3981 182.36 23.2241C183.168 22.05 183.81 21.1328 184.287 20.4724C185.094 19.4085 185.956 18.3445 186.873 17.2805C187.827 16.1799 188.873 15.1159 190.01 14.0886C191.734 13.7217 193.495 13.4649 195.293 13.3181C197.128 13.1347 198.98 13.043 200.851 13.043C204.153 13.043 206.465 13.2081 207.786 13.5383C208.263 13.6483 208.574 13.7768 208.721 13.9235C208.905 14.0703 208.996 14.2721 208.996 14.5289C208.996 15.1526 208.721 15.4644 208.171 15.4644C207.731 15.4644 206.887 15.3727 205.639 15.1893C204.392 14.9691 202.484 14.8591 199.916 14.8591C198.668 14.8591 197.293 14.9324 195.788 15.0792C194.284 15.226 192.633 15.4461 190.835 15.7396C189.295 16.9136 186.194 20.8577 181.535 27.5717H195.018C195.605 27.5717 195.898 27.8652 195.898 28.4522C195.898 29.0392 195.605 29.3327 195.018 29.3327H180.379C175.059 37.4776 171.152 44.1916 168.657 49.4748C178.563 47.2735 186.048 46.1728 191.111 46.1728C194.633 46.1728 196.394 47.0166 196.394 48.7043C196.394 49.2913 196.1 49.5848 195.513 49.5848C195.036 49.5848 194.779 49.4014 194.743 49.0345C194.706 48.6309 194.376 48.3741 193.752 48.264C193.165 48.1173 192.23 48.0439 190.946 48.0439C189.331 48.0439 187.515 48.1723 185.497 48.4291C183.516 48.6493 181.388 48.9428 179.113 49.3097C175.885 49.7866 173.262 50.3003 171.244 50.8506C169.226 51.4009 167.923 51.6761 167.336 51.6761ZM201.753 52.5566C201.019 52.5566 200.652 52.2081 200.652 51.511C200.652 51.3275 200.725 51.0524 200.872 50.6855C201.056 50.3553 201.312 49.8783 201.643 49.2546L204.779 43.4211C206.467 40.376 207.935 37.5877 209.182 35.0561C210.466 32.4879 211.567 30.1949 212.484 28.177C215.236 21.9033 216.611 17.1521 216.611 13.9235C216.611 13.7034 216.758 13.4466 217.052 13.1531C217.382 12.8595 217.694 12.7128 217.987 12.7128C218.428 12.7128 218.648 13.1347 218.648 13.9785C218.648 16.3633 217.786 19.9771 216.061 24.82C215.364 26.6545 214.649 28.4339 213.915 30.1582C213.181 31.8826 212.411 33.5519 211.604 35.1662C213.181 33.2584 214.814 31.4056 216.501 29.6079C218.189 27.8101 219.95 26.0674 221.785 24.3798C227.215 19.28 231.177 16.7302 233.672 16.7302C235.249 16.7302 236.038 17.7575 236.038 19.812C236.038 22.0133 234.956 25.9757 232.791 31.6991C230.003 38.8901 228.462 43.0176 228.168 44.0815C236.497 33.9922 244.972 26.6361 253.594 22.0133C254.768 21.3896 255.997 20.7843 257.281 20.1973C258.602 19.5736 259.611 19.2617 260.308 19.2617C261.335 19.2617 261.849 19.8854 261.849 21.1328C261.849 21.7565 261.738 22.5086 261.518 23.3892C261.298 24.2697 260.931 25.2419 260.418 26.3059L255.355 37.0373C254.878 38.0646 254.346 39.202 253.759 40.4494C253.208 41.6968 252.676 42.9442 252.163 44.1916C251.686 45.4023 251.282 46.503 250.952 47.4936C250.622 48.4475 250.457 49.1813 250.457 49.6949C250.457 50.2819 250.695 50.5754 251.172 50.5754C251.906 50.5754 252.823 50.1352 253.924 49.2546C255.061 48.3741 256.272 47.2551 257.556 45.8976C257.739 45.6775 257.978 45.4207 258.271 45.1272C258.602 44.8337 258.895 44.6869 259.152 44.6869C259.739 44.6869 260.032 45.0171 260.032 45.6775C260.032 45.7876 259.996 45.916 259.922 46.0627C259.849 46.1728 259.684 46.3562 259.427 46.6131C258.95 47.09 258.473 47.567 257.996 48.0439C257.519 48.5209 257.079 48.9428 256.675 49.3097C255.722 50.1168 254.713 50.8322 253.649 51.456C252.621 52.1163 251.631 52.4465 250.677 52.4465C249.173 52.4465 248.421 51.6027 248.421 49.915C248.421 48.8878 248.787 47.2918 249.521 45.1272C250.255 42.9625 251.374 40.2292 252.878 36.9273L258.657 24.3798C259.06 23.5359 259.317 22.9489 259.427 22.6187C259.537 22.2518 259.592 21.995 259.592 21.8483C259.592 21.6281 259.5 21.5181 259.317 21.5181C259.244 21.5181 259.042 21.5731 258.712 21.6832C258.418 21.7565 257.886 21.9767 257.116 22.3435C254.878 23.3708 252.42 24.7466 249.741 26.471C247.063 28.1954 244.568 30.0665 242.257 32.0844C240.386 33.6987 238.716 35.2396 237.249 36.7071C235.781 38.1747 234.35 39.6973 232.956 41.2749C231.562 42.8525 230.021 44.6502 228.334 46.6681C227.857 47.2184 227.526 47.6036 227.343 47.8238C227.159 48.0072 226.866 48.0989 226.462 48.0989C225.839 48.0989 225.527 47.7687 225.527 47.1084C225.527 46.4113 225.674 45.4941 225.967 44.3567C226.261 43.2194 226.627 42.0637 227.068 40.8896L231.14 29.9931C232.131 27.3149 232.865 25.0952 233.342 23.3341C233.818 21.5731 234.057 20.2523 234.057 19.3718C234.057 18.638 233.745 18.2711 233.121 18.2711C231.911 18.2711 229.177 20.2156 224.921 24.1046C223.454 25.4621 222.078 26.7645 220.794 28.0119C219.51 29.2593 218.336 30.4701 217.272 31.6441C215.841 33.185 214.539 34.6526 213.365 36.0467C212.191 37.4409 211.053 38.8901 209.953 40.3943C208.889 41.8619 207.788 43.4945 206.651 45.2923C205.513 47.09 204.284 49.1813 202.963 51.566C202.596 52.2264 202.193 52.5566 201.753 52.5566ZM264.92 52.0063C264.663 52.0063 264.388 51.8779 264.095 51.6211C263.801 51.4009 263.654 51.1624 263.654 50.9056C263.654 50.392 263.856 49.5665 264.26 48.4291C264.7 47.2918 265.269 45.9894 265.966 44.5218C266.663 43.0543 267.415 41.6051 268.222 40.1742L274.331 29.3878C279.027 21.0228 281.522 15.923 281.815 14.0886C281.852 13.5016 282.109 13.2081 282.586 13.2081C282.989 13.2081 283.264 13.3732 283.411 13.7034C283.558 13.9969 283.631 14.3087 283.631 14.6389C283.631 15.3727 283.374 16.4183 282.861 17.7758C282.384 19.1333 281.595 20.7843 280.494 22.7288L275.982 30.5985C274.111 33.8638 272.625 36.4503 271.524 38.3581C270.46 40.2292 269.616 41.7335 268.993 42.8708C268.075 44.6319 267.268 46.3012 266.571 47.8788C265.874 49.4564 265.489 50.6305 265.415 51.4009C265.415 51.8045 265.25 52.0063 264.92 52.0063ZM290.51 50.5754C289.887 50.5754 289.575 50.3736 289.575 49.9701C289.575 49.7866 289.758 49.4564 290.125 48.9795C290.529 48.5025 290.914 47.9705 291.281 47.3835C292.125 46.026 292.913 44.4851 293.647 42.7608C294.418 41.0364 294.803 39.4404 294.803 37.9729C294.803 36.5787 294.399 35.4597 293.592 34.6159C292.822 33.7354 291.776 33.0933 290.455 32.6897C289.171 32.2495 287.74 32.0293 286.163 32.0293C284.659 32.0293 282.586 32.4513 279.944 33.2951C277.302 34.1389 275.78 34.5609 275.376 34.5609C274.789 34.5609 274.496 34.249 274.496 33.6253C274.496 33.5519 274.588 33.3501 274.771 33.0199C274.954 32.653 275.175 32.2862 275.431 31.9193C275.688 31.5524 275.89 31.3506 276.037 31.3139L277.358 31.0938L282.2 29.1676C284.255 28.3238 286.31 27.4616 288.364 26.5811C290.455 25.6639 292.51 24.7283 294.528 23.7744C297.426 22.4169 300.123 21.0411 302.618 19.6469C305.149 18.2161 307.424 16.8403 309.442 15.5195C309.809 15.2626 310.065 15.1159 310.212 15.0792C310.396 15.0058 310.561 14.9691 310.707 14.9691C311.294 14.9691 311.588 15.2443 311.588 15.7946C311.588 16.1248 311.313 16.5284 310.762 17.0054C308.378 18.9865 303.26 21.8116 295.408 25.4804C294.051 25.9941 292.235 26.7095 289.96 27.6267C287.722 28.5439 285.246 29.5529 282.531 30.6535C283.411 30.4334 284.292 30.3233 285.172 30.3233C287.227 30.3233 289.153 30.5801 290.951 31.0938C292.748 31.5707 294.198 32.3595 295.298 33.4602C296.436 34.5242 297.004 35.955 297.004 37.7528C297.004 39.1836 296.674 40.7245 296.014 42.3755C295.39 44.0265 294.546 45.6958 293.482 47.3835L291.996 49.6949C291.629 50.2819 291.134 50.5754 290.51 50.5754ZM299.161 51.0157C298.538 51.0157 298.226 50.7038 298.226 50.0801C298.226 49.4931 298.574 49.1996 299.271 49.1996C299.895 49.1996 300.666 49.1629 301.583 49.0895C302.5 48.9795 303.307 48.9061 304.004 48.8694C304.114 48.1723 304.481 47.145 305.105 45.7876C305.729 44.4301 306.554 42.8892 307.581 41.1648C308.609 39.4404 309.764 37.661 311.048 35.8266L320.239 22.7288C320.642 22.1051 321.193 21.2429 321.89 20.1422C322.624 19.0049 323.486 17.6291 324.476 16.0148C323.376 16.0881 322.367 16.1799 321.45 16.2899C320.569 16.4 319.78 16.5101 319.083 16.6201C318.056 16.7669 317.377 16.8769 317.047 16.9503C316.717 17.0237 316.46 17.0604 316.277 17.0604C315.653 17.0604 315.341 16.7118 315.341 16.0148C315.341 15.6112 315.598 15.3544 316.111 15.2443C318.276 14.8407 320.386 14.5289 322.44 14.3087C324.531 14.0886 326.586 13.9785 328.604 13.9785C330.585 13.9785 332.199 14.1436 333.447 14.4738C334.034 14.6573 334.419 14.8407 334.602 15.0242C334.823 15.2076 334.933 15.4461 334.933 15.7396C334.933 16.3266 334.658 16.6201 334.107 16.6201C333.924 16.6201 333.667 16.5467 333.337 16.4C333.007 16.2532 332.493 16.1248 331.796 16.0148C331.135 15.868 330.126 15.7946 328.769 15.7946C328.255 15.7946 327.797 15.7946 327.393 15.7946C327.026 15.7946 326.714 15.813 326.458 15.8497C326.421 16.6201 325.724 17.9776 324.366 19.9221L321.615 23.8294L314.571 34.1206C313.25 36.0284 312.039 37.8628 310.938 39.6239C309.838 41.3849 308.81 43.0359 307.856 44.5768C307.306 45.4941 306.701 46.8332 306.04 48.5942C307.435 48.4475 308.59 48.3558 309.507 48.3191C310.425 48.2457 311.085 48.209 311.489 48.209C312.296 48.209 313.011 48.2457 313.635 48.3191C314.295 48.3558 314.864 48.4108 315.341 48.4842C315.891 48.5942 316.166 48.8694 316.166 49.3097C316.166 49.8967 315.836 50.1902 315.176 50.1902C314.736 50.1902 314.167 50.1535 313.47 50.0801C312.809 50.0434 312.222 50.0251 311.709 50.0251C310.058 50.0251 308.04 50.1902 305.655 50.5204C305.472 50.8139 305.215 50.9607 304.885 50.9607C304.591 50.9607 304.371 50.8322 304.224 50.5754C303.124 50.7222 302.151 50.8322 301.308 50.9056C300.464 50.979 299.748 51.0157 299.161 51.0157ZM131.721 93.5204C131.322 93.5204 131.122 93.3208 131.122 92.9216C131.122 92.5459 131.345 92.3581 131.791 92.3581C132.19 92.3581 132.684 92.3346 133.271 92.2877C133.858 92.2172 134.374 92.1703 134.82 92.1468C134.891 91.7006 135.126 91.0432 135.525 90.1744C135.924 89.3056 136.452 88.3194 137.11 87.2158C137.767 86.1122 138.507 84.9734 139.329 83.7994L145.211 75.4168C145.469 75.0176 145.821 74.4658 146.267 73.7614C146.737 73.0335 147.289 72.153 147.923 71.1198C147.218 71.1668 146.572 71.2255 145.985 71.2959C145.422 71.3663 144.917 71.4368 144.471 71.5072C143.813 71.6012 143.379 71.6716 143.168 71.7186C142.956 71.7655 142.792 71.789 142.675 71.789C142.275 71.789 142.076 71.5659 142.076 71.1198C142.076 70.8615 142.24 70.6971 142.569 70.6267C143.954 70.3684 145.304 70.1688 146.619 70.0279C147.958 69.8871 149.273 69.8166 150.564 69.8166C151.832 69.8166 152.865 69.9223 153.664 70.1336C154.039 70.251 154.286 70.3684 154.403 70.4858C154.544 70.6032 154.615 70.7558 154.615 70.9437C154.615 71.3194 154.438 71.5072 154.086 71.5072C153.969 71.5072 153.804 71.4603 153.593 71.3663C153.382 71.2724 153.053 71.1902 152.607 71.1198C152.184 71.0259 151.539 70.9789 150.67 70.9789C150.341 70.9789 150.048 70.9789 149.789 70.9789C149.554 70.9789 149.355 70.9907 149.191 71.0141C149.167 71.5072 148.721 72.376 147.852 73.6205L146.091 76.1212L141.583 82.7075C140.737 83.9285 139.963 85.1026 139.258 86.2296C138.554 87.3567 137.896 88.4133 137.286 89.3995C136.934 89.9865 136.546 90.8436 136.124 91.9707C137.016 91.8767 137.755 91.818 138.342 91.7946C138.929 91.7476 139.352 91.7241 139.61 91.7241C140.127 91.7241 140.585 91.7476 140.984 91.7946C141.407 91.818 141.771 91.8533 142.076 91.9002C142.428 91.9707 142.604 92.1468 142.604 92.4285C142.604 92.8042 142.393 92.9921 141.97 92.9921C141.688 92.9921 141.324 92.9686 140.878 92.9216C140.456 92.8982 140.08 92.8864 139.751 92.8864C138.695 92.8864 137.403 92.9921 135.877 93.2034C135.76 93.3912 135.595 93.4852 135.384 93.4852C135.196 93.4852 135.055 93.403 134.961 93.2386C134.257 93.3325 133.635 93.403 133.094 93.45C132.554 93.4969 132.097 93.5204 131.721 93.5204ZM174.382 94.7531C173.983 94.7531 173.783 94.5183 173.783 94.0487C173.783 93.2973 174.194 91.9824 175.016 90.104C175.838 88.202 177.07 85.76 178.714 82.778L185.406 70.7324H184.737C179.266 70.7324 175.697 71.4016 174.03 72.74C173.349 73.28 172.879 74.0549 172.621 75.0646C172.597 75.4168 172.445 75.5929 172.163 75.5929C171.693 75.5929 171.458 75.3815 171.458 74.9589C171.458 73.7849 172.104 72.7282 173.396 71.789C175.345 70.3332 178.996 69.6053 184.349 69.6053C185.899 69.6053 187.461 69.6405 189.034 69.711L192.697 69.9575C193.448 70.0045 194.129 70.0514 194.74 70.0984C195.35 70.1219 195.89 70.1336 196.36 70.1336C196.735 70.1336 196.923 70.3215 196.923 70.6971C196.923 71.0728 196.735 71.2607 196.36 71.2607C195.538 71.2607 194.317 71.1902 192.697 71.0494C191.523 70.932 190.607 70.8615 189.95 70.838C189.292 70.8146 188.693 70.8028 188.153 70.8028C187.66 70.8028 187.296 70.8028 187.061 70.8028C186.827 70.7793 186.662 70.7676 186.568 70.7676C186.287 71.4955 185.57 72.8926 184.42 74.9589L180.863 81.2987C178.867 84.8678 177.376 87.7089 176.389 89.8222C175.427 91.9354 174.945 93.2973 174.945 93.9078V94.0839C174.945 94.5301 174.758 94.7531 174.382 94.7531ZM198.166 94.1544C196.71 94.1544 195.325 93.8726 194.01 93.3091C192.718 92.7455 191.662 91.9002 190.84 90.7732C190.018 89.6226 189.607 88.1903 189.607 86.4762C189.607 85.5839 189.807 84.5508 190.206 83.3767C190.605 82.1792 191.11 81.0052 191.72 79.8546C192.331 78.6806 192.965 77.6827 193.622 76.8608C194.35 75.9451 195.207 75.0763 196.193 74.2545C197.203 73.4326 198.271 72.7047 199.398 72.0708C200.525 71.4368 201.664 70.9437 202.815 70.5915C203.965 70.2158 205.057 70.0279 206.09 70.0279C207.358 70.0279 208.579 70.2745 209.753 70.7676C210.951 71.2607 212.019 71.9416 212.959 72.8104C213.898 73.6792 214.637 74.6889 215.177 75.8394C215.741 76.9665 216.023 78.164 216.023 79.432C216.023 80.653 215.753 81.8622 215.213 83.0597C214.673 84.2573 213.956 85.3961 213.064 86.4762C212.195 87.5328 211.221 88.5073 210.141 89.3995C208.427 90.8084 206.525 91.9472 204.435 92.816C202.369 93.7082 200.291 94.1544 198.201 94.1544H198.166ZM197.954 92.9921C199.95 92.9921 201.911 92.5812 203.836 91.7593C205.785 90.914 207.546 89.8457 209.119 88.5542C210.153 87.7089 211.092 86.7814 211.937 85.7718C212.782 84.7386 213.463 83.6702 213.98 82.5666C214.497 81.4396 214.755 80.336 214.755 79.2559C214.755 78.1992 214.508 77.1896 214.015 76.2269C213.546 75.2641 212.9 74.4071 212.078 73.6557C211.28 72.9043 210.364 72.3173 209.331 71.8947C208.298 71.4485 207.229 71.2255 206.126 71.2255C205.139 71.2255 204.095 71.4016 202.991 71.7538C201.911 72.106 200.842 72.5873 199.786 73.1978C198.729 73.7849 197.731 74.4775 196.792 75.2759C195.876 76.0507 195.09 76.8608 194.432 77.7061C193.822 78.5045 193.235 79.4554 192.671 80.559C192.108 81.6626 191.65 82.7662 191.298 83.8698C190.969 84.9734 190.804 85.9361 190.804 86.7579C190.804 88.0729 191.11 89.1999 191.72 90.1392C192.354 91.0549 193.211 91.7593 194.291 92.2524C195.371 92.7455 196.592 92.9921 197.954 92.9921ZM228.818 94.2248C226.681 94.2248 224.815 93.8491 223.218 93.0977C221.645 92.3698 220.424 91.3015 219.555 89.8926C218.686 88.4603 218.252 86.7462 218.252 84.7503C218.252 82.8719 218.604 81.1461 219.308 79.5729C220.036 77.9996 221.081 76.5438 222.443 75.2054C224.509 73.2096 226.916 71.6716 229.663 70.5915C232.434 69.5114 235.287 68.9713 238.222 68.9713C239.678 68.9713 240.958 69.2296 242.061 69.7462C243.165 70.2393 244.034 70.9085 244.668 71.7538C245.302 72.5991 245.619 73.5266 245.619 74.5362C245.619 75.1937 245.466 75.8042 245.161 76.3677C244.856 76.9078 244.515 77.3422 244.139 77.6709C243.764 77.9996 243.458 78.164 243.224 78.164C243.036 78.164 242.848 78.0818 242.66 77.9175C242.472 77.7296 242.378 77.577 242.378 77.4596C242.378 77.3187 242.543 77.1191 242.871 76.8608C243.2 76.6025 243.517 76.2621 243.822 75.8394C244.151 75.3933 244.315 74.8532 244.315 74.2193C244.315 73.3739 244.022 72.6343 243.435 72.0003C242.871 71.3429 242.073 70.838 241.04 70.4858C240.03 70.1101 238.868 69.9223 237.553 69.9223C234.947 69.9223 232.411 70.4741 229.945 71.5777C227.48 72.6578 225.32 74.1136 223.465 75.9451C222.173 77.2365 221.199 78.5984 220.541 80.0307C219.884 81.4631 219.555 83.1184 219.555 84.9969C219.555 86.8049 219.978 88.3194 220.823 89.5404C221.692 90.7379 222.854 91.6419 224.31 92.2524C225.766 92.8395 227.398 93.133 229.206 93.133C231.272 93.133 233.467 92.8042 235.792 92.1468C237.154 91.7711 238.304 91.3484 239.244 90.8788C240.183 90.3857 240.887 89.9278 241.357 89.5052C241.803 89.106 242.132 88.8125 242.343 88.6247C242.554 88.4368 242.731 88.3429 242.871 88.3429C243.036 88.3429 243.118 88.4486 243.118 88.6599C243.118 88.8947 242.977 89.1882 242.695 89.5404C242.437 89.8926 242.143 90.1979 241.815 90.4562C240.993 91.0901 239.948 91.6654 238.68 92.182C237.436 92.6751 236.191 93.086 234.947 93.4147C233.843 93.6965 232.786 93.8961 231.777 94.0135C230.767 94.1544 229.781 94.2248 228.818 94.2248ZM245.16 96.0915C244.714 96.0915 244.491 95.8919 244.491 95.4928C244.491 92.722 246.111 88.4016 249.352 82.5314C249.587 82.1088 249.951 81.4865 250.444 80.6647C249.645 80.7586 248.976 80.9347 248.436 81.193C247.919 81.4278 247.579 81.5452 247.415 81.5452C246.992 81.5452 246.781 81.3456 246.781 80.9465C246.781 80.336 248.236 79.8077 251.148 79.3615C251.547 78.6806 252.052 77.8353 252.663 76.8256C253.297 75.8159 254.048 74.6302 254.917 73.2683C255.551 72.2586 256.091 71.3781 256.537 70.6267C256.983 69.8518 257.347 69.1474 257.629 68.5134C257.723 68.2786 257.875 68.1612 258.087 68.1612C258.533 68.1612 258.756 68.396 258.756 68.8657C258.756 69.03 258.474 69.5818 257.91 70.521C257.37 71.4368 256.513 72.8456 255.339 74.7476L252.557 79.2206C253.449 79.1267 254.388 79.0563 255.375 79.0093C256.361 78.9624 257.37 78.9389 258.404 78.9389C260.47 78.9389 264.262 79.115 269.78 79.4672C270.25 78.4575 270.743 77.4713 271.259 76.5086C271.799 75.5224 272.363 74.548 272.95 73.5853C273.795 72.1529 274.535 71.0376 275.169 70.2393C275.803 69.4174 276.272 68.8891 276.578 68.6543C276.883 68.4195 277.129 68.3021 277.317 68.3021C277.67 68.3021 277.846 68.49 277.846 68.8657C277.846 69.0535 277.74 69.2179 277.529 69.3587C277.106 69.664 276.589 70.2158 275.979 71.0141C275.368 71.8125 274.687 72.8574 273.936 74.1488C272.809 76.0507 271.846 77.8588 271.048 79.5729C271.87 79.5729 272.281 79.7724 272.281 80.1716C272.281 80.336 272.222 80.4769 272.105 80.5943C271.987 80.7117 271.811 80.7586 271.576 80.7351L270.52 80.6647C268.148 85.9479 266.962 89.5639 266.962 91.5128V92.2877C266.962 92.5694 266.763 92.7103 266.364 92.7103C265.988 92.7103 265.8 92.2994 265.8 91.4776C265.8 89.4113 266.951 85.7718 269.252 80.559C266.387 80.3947 264.027 80.2773 262.172 80.2068C260.341 80.1364 259.014 80.1012 258.192 80.1012C255.891 80.1012 253.79 80.2068 251.888 80.4182L250.373 83.0597C249.223 85.1026 248.319 86.9341 247.661 88.5542C247.004 90.1509 246.558 91.3484 246.323 92.1468C246.088 93.0625 245.935 93.7669 245.865 94.26C245.794 94.7531 245.736 95.211 245.689 95.6337C245.665 95.9389 245.489 96.0915 245.16 96.0915ZM274.561 94.1544C274.397 94.1544 274.221 94.0722 274.033 93.9078C273.845 93.7669 273.751 93.6143 273.751 93.45C273.751 93.1212 273.88 92.5929 274.139 91.865C274.42 91.1371 274.784 90.3035 275.23 89.3643C275.677 88.4251 276.158 87.4976 276.675 86.5818L280.584 79.6785C283.59 74.3249 285.186 71.0611 285.374 69.8871C285.398 69.5114 285.562 69.3235 285.867 69.3235C286.126 69.3235 286.302 69.4292 286.396 69.6405C286.489 69.8284 286.536 70.0279 286.536 70.2393C286.536 70.7089 286.372 71.3781 286.043 72.2469C285.738 73.1157 285.233 74.1723 284.529 75.4168L281.641 80.4534C280.443 82.5432 279.492 84.1986 278.788 85.4195C278.107 86.6171 277.567 87.5798 277.168 88.3077C276.581 89.4348 276.064 90.5031 275.618 91.5128C275.172 92.5225 274.925 93.2738 274.878 93.7669C274.878 94.0252 274.773 94.1544 274.561 94.1544ZM290.939 93.2386C290.54 93.2386 290.34 93.1095 290.34 92.8512C290.34 92.7338 290.458 92.5225 290.693 92.2172C290.951 91.912 291.197 91.5715 291.432 91.1958C291.972 90.327 292.477 89.3408 292.947 88.2372C293.44 87.1336 293.686 86.1122 293.686 85.173C293.686 84.2807 293.428 83.5646 292.911 83.0245C292.418 82.461 291.749 82.0501 290.904 81.7918C290.082 81.51 289.166 81.3691 288.157 81.3691C287.194 81.3691 285.867 81.6392 284.177 82.1792C282.486 82.7193 281.512 82.9893 281.253 82.9893C280.878 82.9893 280.69 82.7897 280.69 82.3905C280.69 82.3436 280.748 82.2144 280.866 82.0031C280.983 81.7683 281.124 81.5335 281.288 81.2987C281.453 81.0639 281.582 80.9347 281.676 80.9113L282.521 80.7704L285.621 79.5376C286.936 78.9976 288.251 78.4458 289.565 77.8822C290.904 77.2952 292.219 76.6965 293.51 76.086C295.365 75.2172 297.091 74.3367 298.688 73.4444C300.308 72.5286 301.764 71.6481 303.055 70.8028C303.29 70.6384 303.454 70.5445 303.548 70.521C303.666 70.4741 303.771 70.4506 303.865 70.4506C304.241 70.4506 304.429 70.6267 304.429 70.9789C304.429 71.1902 304.253 71.4485 303.9 71.7538C302.374 73.0217 299.099 74.8298 294.074 77.1778C293.205 77.5066 292.043 77.9644 290.587 78.5514C289.155 79.1385 287.57 79.7842 285.832 80.4886C286.396 80.3477 286.959 80.2773 287.523 80.2773C288.838 80.2773 290.07 80.4416 291.221 80.7704C292.371 81.0756 293.299 81.5805 294.003 82.2849C294.731 82.9658 295.095 83.8816 295.095 85.0321C295.095 85.9479 294.884 86.9341 294.461 87.9907C294.062 89.0473 293.522 90.1157 292.841 91.1958L291.89 92.6751C291.655 93.0508 291.338 93.2386 290.939 93.2386ZM296.229 94.7179C295.83 94.7179 295.63 94.5301 295.63 94.1544C295.63 94.0135 295.642 93.9196 295.666 93.8726C296.534 91.9707 298.894 89.1295 302.745 85.3491C302.628 85.3726 302.522 85.3961 302.428 85.4195C302.334 85.4195 302.264 85.4195 302.217 85.4195C301.817 85.4195 301.618 85.1965 301.618 84.7503C301.618 84.4921 301.817 84.3277 302.217 84.2573C302.451 84.2103 302.698 84.1751 302.956 84.1516C303.238 84.1046 303.59 84.0342 304.013 83.9403C306.854 80.9817 309.59 78.4458 312.219 76.3325C314.873 74.1958 317.409 72.4465 319.827 71.0846C320.039 70.9672 320.226 70.8733 320.391 70.8028C320.555 70.7089 320.696 70.6619 320.813 70.6619C321.095 70.6619 321.236 70.8498 321.236 71.2255C321.236 71.9299 320.532 74.3484 319.123 78.481L317.573 83.0245C318.184 83.0245 318.489 83.2124 318.489 83.5881C318.489 84.0107 318.09 84.222 317.291 84.222C316.845 85.443 316.422 86.7932 316.023 88.2725C315.648 89.7283 315.331 91.231 315.072 92.7808C314.978 93.2738 314.767 93.5204 314.438 93.5204C314.039 93.5204 313.84 93.3091 313.84 92.8864C313.84 92.816 313.863 92.6633 313.91 92.4285C313.957 92.1937 314.027 91.8885 314.121 91.5128C314.403 90.1509 314.65 89.0238 314.861 88.1316C315.096 87.2393 315.295 86.4879 315.46 85.8774C315.648 85.2434 315.812 84.6682 315.953 84.1516C311.632 84.2455 307.829 84.5625 304.541 85.1026C303.602 86.0653 302.815 86.8871 302.181 87.568C301.547 88.2255 301.078 88.7186 300.773 89.0473C299.364 90.597 298.237 92.0059 297.391 93.2738C297.321 93.3912 297.239 93.5439 297.145 93.7317C297.027 93.9196 296.887 94.1426 296.722 94.4009C296.628 94.6122 296.464 94.7179 296.229 94.7179ZM305.985 83.6585C307.347 83.4707 308.885 83.3298 310.599 83.2358C312.313 83.1184 314.239 83.0363 316.376 82.9893C316.728 81.9092 317.08 80.8643 317.432 79.8546C317.784 78.8215 318.125 77.8353 318.454 76.8961C318.853 75.8629 319.381 74.3132 320.039 72.2469C317.315 73.8201 314.779 75.5577 312.431 77.4596C310.106 79.3615 307.958 81.4278 305.985 83.6585ZM322.327 92.6399C321.693 92.6399 321.376 92.3464 321.376 91.7593C321.376 91.1254 321.67 90.8084 322.257 90.8084C322.891 90.8084 323.208 91.1019 323.208 91.6889C323.208 92.3229 322.914 92.6399 322.327 92.6399Z" fill="black"/>
<g clip-path="url(#clip0_164_55)">
<path d="M75.9411 80.5914C75.9411 80.5914 94.6466 60.5707 75.9411 41.87C57.2355 23.1693 36.0738 40.736 36.0738 40.736L75.9411 80.59" fill="url(#paint0_linear_164_55)"/>
<path d="M75.9411 80.5914C75.9411 80.5914 94.6466 60.5707 75.9411 41.87C57.2355 23.1693 36.0738 40.736 36.0738 40.736L75.9411 80.59" stroke="url(#paint1_linear_164_55)" stroke-width="0.366886" stroke-miterlimit="10"/>
<path d="M36.0738 40.7374C36.0738 40.7374 49.6613 25.0752 71.4637 37.5046C93.266 49.934 77.116 81.766 77.116 81.766L94.7571 99.4011L92.7835 84.5388L106.072 81.3772L99.4821 69.5715L110.174 60.6099L98.1141 51.4245L106.817 39.3685L92.7835 36.7579L94.2591 22.4646L79.9611 23.7846L76.2306 10.2828L64.5972 17.9887L55.1962 6.80382L47.5646 16.9959L35.145 10.905L32.3196 23.8951L17.234 21.9053L36.071 40.736L36.0738 40.7374Z" fill="url(#paint2_linear_164_55)"/>
<path d="M73.7674 48.6084C72.7169 48.6084 71.8623 49.4627 71.8623 50.5128C71.8623 51.5629 72.7169 52.4173 73.7674 52.4173C74.8179 52.4173 75.6725 51.5629 75.6725 50.5128C75.6725 49.4627 74.8179 48.6084 73.7674 48.6084Z" fill="black"/>
<path d="M55.9501 43.7367C54.8996 43.7367 54.045 44.5911 54.045 45.6412C54.045 46.6913 54.8996 47.5457 55.9501 47.5457C57.0006 47.5457 57.8552 46.6913 57.8552 45.6412C57.8552 44.5911 57.0006 43.7367 55.9501 43.7367Z" fill="black"/>
<path d="M66.0477 54.8979C64.9972 54.8979 64.1426 55.7522 64.1426 56.8023C64.1426 57.8524 64.9972 58.7068 66.0477 58.7068C67.0982 58.7068 67.9528 57.8524 67.9528 56.8023C67.9528 55.7522 67.0982 54.8979 66.0477 54.8979Z" fill="black"/>
<path d="M19.2231 23.8937C23.2864 23.4476 27.4421 24.3971 30.8845 26.5672C31.1432 27.6145 31.4817 28.6478 31.9 29.6602C33.1043 32.5658 34.9185 35.1611 37.2068 37.2753C36.3606 37.9562 35.5507 38.6819 34.7842 39.4496L37.3075 41.9721C42.0843 37.197 48.678 34.2396 55.9515 34.2396C70.4971 34.2396 82.3292 46.0691 82.3292 60.6085C82.3292 67.8782 79.3708 74.4711 74.5941 79.2462L77.116 81.7673C77.884 80.9997 78.6099 80.1915 79.2911 79.3441C81.406 81.6317 84.0021 83.4453 86.9087 84.6492C87.9214 85.0687 88.9551 85.4057 90.0028 85.6644C92.1722 89.1055 93.1234 93.2613 92.6772 97.3219L95.5138 100.158C95.7656 99.9073 95.9418 99.5815 96.0076 99.2152C96.8189 94.7672 96.2398 90.2857 94.3906 86.2768C94.6578 86.2866 94.925 86.2964 95.1921 86.2964C99.3073 86.2964 103.401 85.1246 106.961 82.8286C107.585 82.4259 107.896 81.6792 107.739 80.9521C106.789 76.5447 104.506 72.6114 101.292 69.6274C105.435 68.1005 109.013 65.3417 111.585 61.6222C112.008 61.0112 112.008 60.203 111.585 59.5919C109.013 55.8739 105.435 53.1151 101.292 51.5867C104.506 48.6028 106.789 44.6694 107.739 40.262C107.896 39.5363 107.585 38.7896 106.961 38.3855C103.172 35.9399 98.7757 34.7723 94.392 34.9345C96.2412 30.9257 96.8203 26.4455 96.009 21.999C95.8761 21.2677 95.304 20.6958 94.5725 20.563C90.1244 19.7519 85.6414 20.3308 81.6326 22.1794C81.7949 17.7971 80.6269 13.4023 78.1805 9.61437C77.7776 8.99073 77.0293 8.68031 76.3034 8.83692C71.8945 9.78636 67.9598 12.0684 64.9749 15.2816C63.4474 11.1399 60.6877 7.56308 56.967 4.99164C56.3557 4.56935 55.5473 4.56935 54.936 4.99164C51.2167 7.56308 48.457 11.1399 46.9282 15.2816C43.9432 12.0684 40.0085 9.78636 35.5997 8.83692C34.8751 8.68031 34.1254 8.98934 33.7225 9.61437C31.2761 13.4037 30.1082 17.7971 30.2704 22.1794C26.2602 20.3308 21.7786 19.7519 17.3305 20.563C16.9655 20.6301 16.6396 20.8063 16.3878 21.0565L19.2245 23.8923L19.2231 23.8937ZM103.936 80.4781C99.1338 83.1209 93.371 83.4621 88.2739 81.352C85.6107 80.2488 83.258 78.5345 81.4088 76.3574C83.0901 73.6503 84.3532 70.658 85.1029 67.4699C87.9466 67.2391 90.8182 67.6908 93.4772 68.7912C98.5743 70.9013 102.408 75.2164 103.933 80.4795L103.936 80.4781ZM107.89 60.6057C105.333 63.7938 101.721 66.0604 97.7532 66.9595C96.8301 66.4016 95.8593 65.9094 94.8466 65.4899C91.9442 64.2888 88.8306 63.7364 85.7226 63.8567C85.8387 62.7884 85.9002 61.7047 85.9002 60.6071C85.9002 59.5094 85.8387 58.4257 85.724 57.3589C86.0009 57.37 86.2779 57.3756 86.5548 57.3756C89.3845 57.3756 92.2044 56.8177 94.848 55.7243C95.8607 55.3048 96.8315 54.8126 97.7546 54.2547C101.776 55.158 105.318 57.3798 107.891 60.6057H107.89ZM103.936 40.7374C102.411 46.0006 98.5757 50.3157 93.4786 52.4257C90.8196 53.5275 87.9466 53.9778 85.1043 53.7471C84.3532 50.559 83.0915 47.5667 81.4102 44.8596C83.2594 42.6824 85.6107 40.9681 88.2753 39.8649C93.3723 37.7549 99.1352 38.0947 103.937 40.7388L103.936 40.7374ZM79.9989 29.6588C80.4185 28.6464 80.7556 27.6131 81.0144 26.5658C84.4567 24.3971 88.6138 23.4476 92.6758 23.8923C93.122 27.9529 92.1722 32.1086 90.0014 35.5498C88.9537 35.8085 87.92 36.1455 86.9073 36.5649C84.0007 37.7689 81.4046 39.5824 79.2897 41.87C77.9273 40.1767 76.3845 38.6358 74.692 37.2739C76.9804 35.1597 78.7945 32.5644 79.9989 29.6588ZM64.1342 23.0897C66.2449 17.9943 70.5615 14.1616 75.8264 12.6361C78.47 17.435 78.8113 23.1973 76.7006 28.2927C75.597 30.955 73.8821 33.3069 71.7043 35.1555C68.9963 33.4747 66.0029 32.2121 62.8138 31.4626C62.583 28.6199 63.0334 25.7492 64.1356 23.0911L64.1342 23.0897ZM55.9501 8.68591C59.1379 11.242 61.4052 14.851 62.3046 18.8193C61.7465 19.7422 61.2542 20.7126 60.8346 21.7235C59.633 24.625 59.0805 27.7376 59.2008 30.8445C58.1322 30.7285 57.0481 30.667 55.9501 30.667C54.8521 30.667 53.7667 30.7285 52.6994 30.8445C52.8197 27.7376 52.2672 24.625 51.0657 21.7235C50.646 20.7112 50.1537 19.7422 49.5956 18.8179C50.495 14.851 52.7624 11.242 55.9501 8.68591ZM36.0738 12.6375C41.3387 14.1616 45.6553 17.9957 47.766 23.0911C48.8682 25.7492 49.3186 28.6213 49.0878 31.4626C45.8987 32.2135 42.9053 33.4747 40.1974 35.1555C38.0195 33.3069 36.3046 30.9564 35.201 28.2927C33.0903 23.1987 33.4302 17.4364 36.0752 12.6375H36.0738Z" fill="black"/>
<path d="M49.0347 81.3772C48.4598 82.177 48.1381 83.0607 48.2206 83.5515C48.2346 83.6732 48.2905 83.7851 48.3787 83.8704C48.7186 84.2325 49.618 84.5122 50.6027 84.5387C51.0279 84.5527 54.7598 84.5765 55.1948 81.8386C55.2116 81.5576 55.122 81.2793 54.943 81.0612C54.8829 80.9661 54.8143 80.8794 54.7528 80.8011C54.7066 80.7424 54.6633 80.6823 54.6241 80.6193C54.6087 80.5984 54.5961 80.5746 54.5891 80.5494C54.5625 80.4795 54.5402 80.4082 54.522 80.3369C54.4968 80.2418 54.4688 80.1341 54.4297 80.0293C54.4031 79.9398 54.3681 79.8531 54.3262 79.7692C54.2506 79.5972 54.1233 79.4532 53.9625 79.3581C51.5189 78.0479 49.2809 81.0318 49.0333 81.3786L49.0347 81.3772ZM54.9094 81.7939C54.5122 84.2842 51.0097 84.2591 50.6139 84.2479C50.1229 84.2381 49.6361 84.1556 49.169 84.0004C50.3565 84.0689 51.544 83.8508 52.6295 83.3642C53.5862 83.0146 54.3667 82.3001 54.7975 81.3772C54.8815 81.4989 54.9206 81.6457 54.908 81.7925L54.9094 81.7939ZM54.3429 80.7144C54.3625 80.7536 54.3863 80.7913 54.4115 80.8277C53.7443 81.4289 52.9945 81.9309 52.1847 82.321C51.1454 82.7923 50.06 83.1516 48.9452 83.3921C49.811 82.6497 50.7537 82.0022 51.758 81.4611C52.5581 81.0514 53.4114 80.7592 54.2954 80.5914C54.308 80.6333 54.3248 80.6753 54.3429 80.7144ZM53.8254 79.6112C53.9499 79.6909 54.0422 79.8111 54.0898 79.951C53.0939 79.7356 52.0532 79.9244 51.1957 80.4753C50.1523 81.0458 49.2599 81.8582 48.5955 82.844C48.7549 82.3798 48.9829 81.9421 49.2725 81.545C49.5019 81.2234 51.6014 78.4212 53.8254 79.6112Z" fill="black"/>
<path d="M16.2144 64.5754C15.6395 65.3752 15.3178 66.2589 15.4003 66.7497C15.4143 66.8714 15.4702 66.9832 15.5584 67.0685C15.8983 67.4307 16.7977 67.7104 17.7824 67.7369C18.2076 67.7509 21.9395 67.7747 22.3745 65.0368C22.3913 64.7558 22.3017 64.4775 22.1227 64.2594C22.0626 64.1643 21.994 64.0776 21.9325 63.9993C21.8863 63.9406 21.843 63.8805 21.8038 63.8175C21.7884 63.7966 21.7758 63.7728 21.7688 63.7476C21.7422 63.6777 21.7199 63.6064 21.7017 63.5351C21.6765 63.44 21.6485 63.3323 21.6094 63.2275C21.5828 63.138 21.5478 63.0513 21.5059 62.9674C21.4303 62.7954 21.303 62.6514 21.1422 62.5563C18.6986 61.2461 16.4606 64.23 16.213 64.5768L16.2144 64.5754ZM22.0891 64.9921C21.6919 67.4824 18.1894 67.4573 17.7936 67.4461C17.3026 67.4363 16.8158 67.3538 16.3487 67.1986C17.5362 67.2671 18.7237 67.049 19.8092 66.5624C20.7659 66.2128 21.5464 65.4983 21.9772 64.5754C22.0612 64.6971 22.1003 64.8439 22.0877 64.9907L22.0891 64.9921ZM21.5226 63.9126C21.5422 63.9518 21.566 63.9895 21.5912 64.0259C20.924 64.6271 20.1742 65.1291 19.3644 65.5192C18.3251 65.9905 17.2397 66.3498 16.1249 66.5903C16.9907 65.8478 17.9334 65.2004 18.9377 64.6593C19.7378 64.2496 20.5911 63.9574 21.4751 63.7896C21.4877 63.8315 21.5045 63.8735 21.5226 63.9126ZM21.0051 62.8094C21.1296 62.8891 21.2219 63.0093 21.2695 63.1491C20.2736 62.9338 19.2329 63.1226 18.3754 63.6735C17.332 64.244 16.4396 65.0564 15.7752 66.0422C15.9346 65.578 16.1626 65.1403 16.4522 64.7432C16.6816 64.4216 18.7811 61.6194 21.0051 62.8094Z" fill="black"/>
<path d="M64.2657 68.636C63.3677 71.0704 59.654 71.0648 59.2078 71.0537C58.6105 71.0453 58.0161 70.9474 57.4482 70.7628C58.8945 70.8383 60.338 70.5643 61.657 69.9658C62.4963 69.654 63.2208 69.1114 63.7537 68.4109C63.3845 68.2263 63.0362 68.0012 62.7159 67.7425C62.2067 68.1033 61.6696 68.4235 61.1073 68.6975C59.8456 69.2792 58.5266 69.7225 57.1698 70.0217C58.2189 69.1128 59.3631 68.3186 60.5828 67.653C61.0374 67.4167 61.5074 67.214 61.9885 67.042C61.7899 66.8141 61.6081 66.5694 61.443 66.3079C61.3521 66.1639 61.2863 66.0114 61.2402 65.8576C60.766 65.9835 60.3086 66.1834 59.8904 66.4561C58.6231 67.1566 57.5433 68.1522 56.7404 69.3575C56.9306 68.7912 57.2062 68.2557 57.5573 67.7719C57.7671 67.474 59.2791 65.4326 61.1814 65.09C61.1982 64.9641 61.2262 64.8397 61.2654 64.718C59.1546 65.0089 57.4971 67.2447 57.2677 67.5705C56.5726 68.5479 56.1865 69.626 56.2914 70.2231C56.3096 70.3713 56.3781 70.5083 56.4858 70.6104C56.9013 71.0495 57.9979 71.3851 59.1966 71.4088C59.6778 71.4214 63.6293 71.4242 64.6 68.7521C64.4867 68.7171 64.3762 68.678 64.2671 68.636H64.2657Z" fill="black"/>
<path d="M35.0304 97.5904C35.5158 98.2392 36.1326 98.709 36.5368 98.7649C36.6362 98.7831 36.7383 98.7677 36.8264 98.7188C37.1957 98.5412 37.6363 97.905 37.8992 97.1387C38.0153 96.8073 38.9539 93.8849 36.9103 92.8683C36.6935 92.7858 36.4529 92.7873 36.2375 92.8739C36.148 92.8977 36.0627 92.9299 35.9871 92.9592C35.9298 92.9816 35.871 92.9998 35.8123 93.0152C35.7927 93.0222 35.7703 93.0264 35.7493 93.025C35.6878 93.0278 35.6263 93.0278 35.5661 93.025C35.485 93.0222 35.3941 93.0166 35.3017 93.0222C35.2248 93.0222 35.1479 93.0264 35.0723 93.0389C34.9185 93.0557 34.7744 93.12 34.6597 93.2235C33.0274 94.8176 34.8206 97.3107 35.0318 97.5904H35.0304ZM36.8054 93.0823C38.6629 94.008 37.7803 96.7514 37.674 97.059C37.5453 97.4421 37.3607 97.8043 37.1243 98.1315C37.4712 97.2156 37.5915 96.2312 37.4782 95.2594C37.4404 94.4218 37.0712 93.6346 36.4529 93.0683C36.569 93.0334 36.6935 93.0375 36.8068 93.0837L36.8054 93.0823ZM35.8179 93.2599C35.8542 93.2543 35.8892 93.2445 35.9228 93.2333C36.2305 93.9059 36.4403 94.6176 36.5466 95.3489C36.6613 96.2802 36.6753 97.2212 36.5886 98.1567C36.2193 97.2939 35.9438 96.3934 35.7661 95.472C35.6416 94.7435 35.6235 94.001 35.7088 93.2669C35.7451 93.2669 35.7815 93.2641 35.8179 93.2599ZM34.8234 93.3941C34.9171 93.3158 35.0346 93.2725 35.1549 93.2711C34.7408 93.9996 34.6317 94.8623 34.8527 95.6719C35.043 96.6325 35.4612 97.5316 36.0725 98.2965C35.7465 98.0574 35.4598 97.7693 35.2192 97.4449C35.0234 97.1863 33.3393 94.8469 34.8234 93.3941Z" fill="black"/>
<path d="M43.8034 48.4573C42.4242 49.5075 40.2002 49.3872 39.8743 49.362C39.3218 49.3257 38.779 49.2068 38.2629 49.0083C39.5945 49.1467 40.9415 48.9649 42.1878 48.4755C42.627 48.3385 43.0368 48.1315 43.4047 47.8701C43.3068 47.7023 43.2187 47.5317 43.1334 47.3597C42.8466 47.2688 42.5669 47.1555 42.2969 47.0213C42.1137 47.1122 41.929 47.1975 41.7416 47.2772C40.5485 47.7526 39.3078 48.0994 38.0419 48.3105C39.028 47.5415 40.0939 46.8787 41.2185 46.332C40.8688 46.0537 40.5499 45.7363 40.2729 45.3881C39.2588 45.9614 38.3748 46.7403 37.6782 47.6771C37.881 47.1625 38.1622 46.6829 38.5091 46.2523C38.6266 46.1026 39.1581 45.4566 39.9162 44.8833C39.8589 44.791 39.8043 44.696 39.7512 44.5995C38.9385 45.2049 38.3762 45.8901 38.2489 46.0523C37.5593 46.9206 37.1523 47.8994 37.2194 48.4546C37.2292 48.5916 37.2866 48.7216 37.3803 48.8209C37.744 49.246 38.7399 49.6081 39.8463 49.6892C40.196 49.7172 42.5333 49.8417 44.0118 48.7118C43.9404 48.6293 43.8719 48.5454 43.8034 48.4573Z" fill="black"/>
<path d="M31.139 72.087C31.3321 72.1038 31.5153 72.1807 31.6622 72.3079C31.7377 72.3681 31.809 72.4338 31.8748 72.5051C31.7643 72.5303 31.644 72.554 31.5223 72.5848C30.497 72.8295 29.6102 73.4713 29.0563 74.3676C28.3373 75.366 27.8688 76.5238 27.6897 77.7417C27.6589 78.0046 27.6659 78.2688 27.7093 78.5289C27.4128 78.1094 27.2645 77.1796 27.4435 76.177C27.5191 75.7421 28.273 71.9556 31.139 72.087ZM31.6887 76.4245C30.8929 77.3641 29.883 78.0982 28.743 78.5653C28.4954 78.659 28.2366 78.7163 27.9737 78.7373C28.4534 78.9232 29.3906 78.8435 30.3208 78.4268C30.7236 78.2493 34.2177 76.6021 33.398 73.853C33.2875 73.5818 33.0791 73.3636 32.8147 73.2392C32.8175 73.3525 32.8231 73.4755 32.8217 73.6C32.8315 74.6543 32.4245 75.6694 31.6873 76.4231L31.6887 76.4245ZM30.8061 75.6484C31.388 74.9227 31.8622 74.1187 32.2175 73.2588C32.2566 73.1567 32.2902 73.0616 32.3224 72.9693C32.2986 72.9567 32.2762 72.94 32.2594 72.9204C32.1769 72.9735 32.093 73.0295 32.0035 73.091C31.2551 73.6419 30.5879 74.2977 30.0242 75.036C29.329 75.9896 28.7388 77.016 28.2618 78.0954C29.1948 77.3725 30.048 76.5517 30.8061 75.647V75.6484Z" fill="black"/>
<path d="M43.1683 57.9601C43.4075 57.8832 43.6635 57.8846 43.9027 57.9629C44.023 57.9965 44.1405 58.0384 44.2538 58.0915C44.1335 58.1768 44.002 58.2635 43.8733 58.3628C42.7725 59.164 42.034 60.3693 41.8199 61.7131C41.4591 63.261 41.4759 64.8732 41.8675 66.4141C41.9612 66.7413 42.1011 67.0546 42.2829 67.344C41.7206 66.9902 41.0814 65.9569 40.7975 64.6719C40.6716 64.1168 39.6882 59.2283 43.1697 57.9601H43.1683ZM45.9784 62.8569C45.4959 64.3712 44.658 65.7486 43.532 66.8714C43.2844 67.1049 43.0033 67.3021 42.6998 67.4573C43.3642 67.4419 44.4412 66.8798 45.3434 65.9205C45.7365 65.5081 49.0823 61.811 46.738 58.9403C46.4722 58.6718 46.1155 58.5152 45.7378 58.4984C45.798 58.6327 45.8651 58.7753 45.9267 58.9263C46.4624 60.1778 46.4806 61.5901 45.977 62.8555L45.9784 62.8569ZM44.5405 62.3703C44.8734 61.2167 45.0399 60.0226 45.0343 58.8214C45.0301 58.6802 45.0231 58.5502 45.0147 58.4243C44.9797 58.4215 44.9462 58.4131 44.9154 58.3964C44.844 58.4998 44.7713 58.6089 44.6958 58.7278C44.0775 59.7569 43.6089 60.8685 43.304 62.0291C42.9501 63.5113 42.7557 65.0284 42.7249 66.5512C43.4789 65.2256 44.0873 63.8231 44.5405 62.3689V62.3703Z" fill="black"/>
<path d="M15.7654 92.9606C15.7696 93.0864 15.7346 93.2109 15.6647 93.3158C15.6325 93.3703 15.5961 93.4206 15.5541 93.4682C15.529 93.3983 15.5052 93.3228 15.4744 93.2472C15.2338 92.604 14.7499 92.0825 14.126 91.7972C13.4238 91.4127 12.6377 91.2016 11.8377 91.1834C11.6656 91.1834 11.495 91.21 11.3299 91.2589C11.5775 91.0338 12.1664 90.8646 12.828 90.8995C13.1147 90.9135 15.6213 91.0981 15.7654 92.9592V92.9606ZM13.007 93.6611C12.337 93.2221 11.7817 92.6292 11.3887 91.9301C11.3089 91.7777 11.2516 91.6155 11.2166 91.4477C11.1341 91.7721 11.2614 92.3705 11.6041 92.9382C11.7509 93.1843 13.0937 95.3083 14.8044 94.5602C14.9709 94.468 15.0954 94.3155 15.1541 94.1352C15.0814 94.1464 15.003 94.1603 14.9205 94.1687C14.2407 94.2596 13.5525 94.0764 13.0056 93.6611H13.007ZM13.4378 93.0291C13.9526 93.3465 14.5107 93.5898 15.094 93.7492C15.1625 93.766 15.2268 93.78 15.2898 93.794C15.2954 93.7772 15.3052 93.7618 15.3164 93.7492C15.2758 93.7003 15.2324 93.65 15.1849 93.5982C14.7694 93.1592 14.2925 92.7802 13.7707 92.4754C13.0993 92.1021 12.3888 91.8028 11.653 91.5819C12.1943 92.1272 12.793 92.6124 13.4378 93.0291Z" fill="black"/>
<path d="M71.5742 77.6969C71.4847 77.5711 71.3979 77.4424 71.3126 77.3124C71.2846 77.4131 71.2567 77.5138 71.2301 77.6144C70.9196 78.968 70.7545 80.3495 70.7391 81.738C71.3224 80.6907 71.8064 79.5916 72.1868 78.4562C71.97 78.2199 71.7658 77.9654 71.5742 77.6955V77.6969Z" fill="black"/>
<path d="M73.2681 79.414C72.8303 80.3788 72.226 81.2625 71.4791 82.0232C71.2553 82.2385 71.0007 82.4203 70.7265 82.5644C71.3308 82.5448 72.3085 82.0246 73.1226 81.1437C73.2415 81.0164 73.6583 80.5508 74.0808 79.8908C73.7954 79.7538 73.5255 79.5944 73.2695 79.4154L73.2681 79.414Z" fill="black"/>
<path d="M69.8761 77.3376C69.9418 76.8985 70.0705 76.4748 70.2524 76.0791C70.0272 75.9504 69.8076 75.8204 69.6005 75.6862C69.4942 75.6163 69.3949 75.5408 69.304 75.4583C68.3626 77.2229 68.8802 79.6741 68.9669 80.0404C69.2369 81.208 69.8257 82.1449 70.3419 82.4623C70.174 82.2008 70.0439 81.9169 69.9572 81.6191C69.588 80.2194 69.56 78.7512 69.8761 77.3389V77.3376Z" fill="black"/>
<path d="M96.7224 101.534C82.1935 88.8608 68.6256 75.1716 55.2773 61.2796C44.3111 50.1003 30.8971 36.2839 20.0232 25.0486L15.01 19.8498L15.1779 19.682L20.3784 24.6935C31.6132 35.5596 45.4427 48.9775 56.6215 59.9359C67.0171 69.9658 77.3888 80.0209 87.1829 90.6492C90.4714 94.1701 93.7263 97.7218 96.8902 101.367L96.7224 101.535V101.534Z" fill="black"/>
</g>
<defs>
<linearGradient id="paint0_linear_164_55" x1="55.9963" y1="60.6742" x2="74.3323" y2="43.1685" gradientUnits="userSpaceOnUse">
<stop stop-color="#FF6700"/>
<stop offset="0.11" stop-color="#FF7900"/>
<stop offset="0.38" stop-color="#FFA000"/>
<stop offset="0.63" stop-color="#FFBC00"/>
<stop offset="0.84" stop-color="#FFCD00"/>
<stop offset="1" stop-color="#FFD400"/>
</linearGradient>
<linearGradient id="paint1_linear_164_55" x1="35.9703" y1="56.9128" x2="84.3238" y2="56.9128" gradientUnits="userSpaceOnUse">
<stop stop-color="#526E9A"/>
<stop offset="0.53" stop-color="#FF0000"/>
<stop offset="0.84" stop-color="#5976A2"/>
<stop offset="1" stop-color="#3D5780"/>
</linearGradient>
<linearGradient id="paint2_linear_164_55" x1="43.9362" y1="72.7106" x2="101.657" y2="14.9701" gradientUnits="userSpaceOnUse">
<stop offset="0.44" stop-color="#FED200"/>
<stop offset="0.51" stop-color="#FCDC00"/>
<stop offset="0.67" stop-color="#FAEF00"/>
<stop offset="0.83" stop-color="#F9FB00"/>
<stop offset="1" stop-color="#F9FF00"/>
</linearGradient>
<clipPath id="clip0_164_55">
<rect width="111.9" height="96.8579" fill="white" transform="translate(0 4.67561)"/>
</clipPath>
</defs>
</svg>
