<svg width="78" height="78" viewBox="0 0 78 78" fill="none" xmlns="http://www.w3.org/2000/svg">
<g clip-path="url(#clip0_56_152)">
<path d="M77.1682 61.8592C74.8445 53.7291 69.0567 47.3929 65.0978 39.9298C64.5936 39.0674 63.2635 39.2665 62.8688 40.0759C61.5954 42.8456 59.8617 45.4214 58.2392 47.9901C55.2777 45.498 50.6683 41.7709 46.7878 44.0399C42.6916 46.4352 41.2827 50.5567 36.6533 51.6436C38.9646 44.2169 44.6742 33.9934 38.6489 27.4488C30.212 18.2643 22.4398 26.049 14.0922 30.1778C14.5582 25.3344 17.3335 21.5709 20.6733 17.8823C21.194 17.2885 20.7044 16.6491 20.0357 16.6929C19.5169 15.6076 18.1211 14.8037 17.1784 14.0821C15.768 13.0553 14.142 12.1545 12.516 11.2538C11.8254 10.9633 11.4161 11.5497 11.5641 12.0996C4.59581 18.4887 -3.66803 34.1403 7.72859 40.6684C10.8691 42.477 14.7424 40.0967 17.3149 38.3611C20.3112 36.262 29.3458 28.9542 30.4364 37.0533C31.5196 45.0407 20.192 56.6401 27.2641 63.7874C30.2621 66.8367 35.0927 65.4008 37.9776 63.309C42.885 59.6297 46.6321 50.206 53.1253 57.0555C53.1253 57.0555 53.1253 57.0555 53.2439 57.1597C50.8413 59.7795 49.7158 63.0991 48.3603 66.3219C47.9729 67.2427 48.6031 68.3207 49.6061 68.2549C58.7376 67.5446 67.6771 65.6155 76.4906 63.4708C77.159 63.427 77.4349 62.5133 77.1682 61.8592ZM34.3528 62.6514C25.7823 66.7948 28.1358 54.8883 29.3508 51.2271C30.7376 46.7711 32.8077 42.4939 32.9466 37.7841C33.091 34.8646 30.7544 31.66 27.9171 31.0625C24.4038 30.3974 21.4002 32.3851 18.7309 34.3509C14.6712 37.3032 10.1274 41.4066 6.28538 35.7264C1.57556 28.7599 8.18401 18.5892 12.9891 13.3495C14.0433 14.0639 15.0974 14.7783 16.0475 15.6114C16.8787 16.3404 17.509 17.4183 18.4444 18.0286C14.3391 21.9912 11.7118 26.3047 11.7646 32.2333C11.8157 33.0134 12.6324 33.5195 13.2865 33.2528C20.801 30.074 27.9502 21.3228 36.1222 28.1742C43.2179 33.9769 35.6193 46.1153 33.9328 52.8293C33.7611 53.624 34.3622 54.2562 35.1423 54.205C38.939 54.0681 41.6373 52.5483 44.2554 49.8022C45.4083 48.6073 46.3309 47.3155 47.6025 46.225C50.5916 44.0144 54.8886 48.098 57.0261 49.9724L56.9221 50.0911C56.1182 51.4869 58.3159 52.574 59.2314 51.1707C60.8463 48.4906 62.5802 45.9146 64.1953 43.2344C67.6135 49.2782 72.1023 54.5802 74.3238 61.1503C66.8331 62.9844 59.2163 64.603 51.4297 65.3372C52.3834 62.8124 53.4559 60.3918 54.9815 58.0531C55.1825 57.7042 55.1532 57.2584 54.8043 57.0574C55.2282 56.6938 55.5187 56.0031 55.0364 55.4752C46.3399 45.7483 41.7265 59.0341 34.3528 62.6514Z" fill="black"/>
</g>
<defs>
<clipPath id="clip0_56_152">
<rect width="73" height="73" fill="white" transform="translate(0.362549 5.1377) rotate(-3.75043)"/>
</clipPath>
</defs>
</svg>
