<svg width="112" height="100" viewBox="0 0 112 100" fill="none" xmlns="http://www.w3.org/2000/svg">
<g clip-path="url(#clip0_48_27)">
<path d="M97.125 50.1726V91.4832C97.0954 93.3489 96.2873 95.1306 94.872 96.4501C93.4567 97.7695 91.5457 98.5229 89.5444 98.5505H24.781C22.7499 98.5648 20.7952 97.8298 19.343 96.5059C17.8908 95.182 17.059 93.3765 17.0288 91.4832V60.8403" stroke="#858585" stroke-width="3.80822" stroke-linecap="round" stroke-linejoin="round"/>
<path d="M57.0769 12.8357C67.6983 12.8357 77.8847 16.7694 85.3952 23.7714C92.9056 30.7734 97.125 40.2702 97.125 50.1725H17.0288C17.0274 42.2072 19.7583 34.4502 24.8226 28.035C29.8869 21.6198 37.019 16.8827 45.1769 14.5158" stroke="#858585" stroke-width="3.80822" stroke-linecap="round" stroke-linejoin="round"/>
<path d="M2.23975 50.1726H112.057" stroke="#858585" stroke-width="3.80822" stroke-linecap="round" stroke-linejoin="round"/>
<path d="M57.1628 5.5018C58.7427 5.5018 60.0234 4.30778 60.0234 2.83489C60.0234 1.36199 58.7427 0.167969 57.1628 0.167969C55.583 0.167969 54.3022 1.36199 54.3022 2.83489C54.3022 4.30778 55.583 5.5018 57.1628 5.5018Z" fill="#858585"/>
</g>
<defs>
<clipPath id="clip0_48_27">
<rect width="112" height="100" fill="white"/>
</clipPath>
</defs>
</svg>
