<svg width="110" height="99" viewBox="0 0 110 99" fill="none" xmlns="http://www.w3.org/2000/svg">
<g clip-path="url(#clip0_48_23)">
<path d="M41.8917 88.6152C41.8917 98.2232 34.0542 97.3125 24.3833 97.3125C14.7125 97.3125 6.875 98.2232 6.875 88.6152C6.875 84.0616 15.6292 62.5232 24.3833 62.5232C33.1375 62.5232 41.8917 84.2437 41.8917 88.6152Z" stroke="#00A32E" stroke-width="4.31598" stroke-miterlimit="10"/>
<path d="M99.7793 52.0498C106.608 58.8346 100.421 63.7069 93.5918 70.264C86.7626 76.8212 81.8585 83.4239 75.0293 76.8212C71.9585 73.7248 62.6543 52.2319 68.8418 46.0846C75.0293 39.9373 96.7085 48.9989 99.7793 52.0498Z" stroke="#CF0000" stroke-width="4.31598" stroke-miterlimit="10"/>
<path d="M24.3835 10.4304C24.3835 0.822376 32.0835 1.73309 41.8919 1.73309C51.7002 1.73309 59.5835 0.822376 59.5835 10.4304C59.5835 14.984 50.8294 36.4768 42.121 36.4768C33.4127 36.4768 24.3835 14.7563 24.3835 10.4304Z" stroke="#020202" stroke-width="4.31598" stroke-miterlimit="10"/>
</g>
<defs>
<clipPath id="clip0_48_23">
<rect width="110" height="99" fill="white"/>
</clipPath>
</defs>
</svg>
