<svg width="105" height="105" viewBox="0 0 105 105" fill="none" xmlns="http://www.w3.org/2000/svg">
<g clip-path="url(#clip0_56_145)">
<path d="M78.4468 24.2978C77.5358 23.1645 75.7321 23.9455 75.8398 25.1841C73.5629 25.2647 70.9884 25.9833 68.9467 26.1965C65.5665 26.5851 61.9187 27.0086 58.5759 28.1004C57.3673 27.6052 55.8689 29.0543 56.8475 30.2876C67.2845 45.0952 47.8685 57.7702 35.9447 63.1999C35.1338 61.9991 34.4229 60.7306 33.6795 59.6299C33.3416 59.1295 33.0037 58.6292 32.6658 58.1289C32.4631 57.8286 31.3545 57.2659 31.6248 57.6662C31.5573 57.5661 31.3896 57.5336 31.322 57.4336C28.1263 55.0748 21.5569 71.0222 21.7076 73.8345C21.7778 74.3699 22.1833 74.9703 22.8538 75.1003C23.1216 75.0652 23.4569 75.1302 23.6922 75.2629C23.7273 75.5306 23.8623 75.7306 23.93 75.8308C24.9086 77.0641 27.2206 77.2513 28.5618 77.5112C32.6529 78.391 37.0118 79.2358 41.2327 79.4449C41.8358 79.4747 42.5688 78.8342 42.5986 78.231C42.6311 78.0634 42.5634 77.9632 42.6635 77.8956C42.6961 77.7281 42.5608 77.5278 42.4257 77.3277C42.4582 77.16 42.4231 76.8923 42.388 76.6246C41.677 75.356 40.6634 73.8551 40.3202 72.4839C40.2527 72.384 40.2851 72.2162 40.2176 72.1161C59.2907 69.2898 95.3155 44.9614 78.4468 24.2978ZM38.3631 70.0174C38.2631 70.085 38.0629 70.2202 37.9629 70.2877C36.3618 71.369 38.657 74.3361 40.0734 76.0021C37.5938 75.7824 35.079 75.2951 32.6319 74.9078C30.8554 74.6505 29.179 74.3257 27.4348 73.9006C26.8643 73.7031 26.2613 73.6732 25.6908 73.4756C25.3555 73.4107 25.0203 73.3458 24.7525 73.3808C24.4847 73.4159 24.3847 73.4834 24.3847 73.4834L24.2171 73.4511C24.6122 72.3101 25.1371 70.4983 25.2698 70.2632C26.0949 68.2487 27.0553 66.4344 28.1158 64.5526C28.5135 63.8469 30.1094 61.8949 31.0698 60.0807C31.1374 60.1808 31.205 60.2808 31.2725 60.3809C31.9509 61.8169 32.6293 63.253 33.5754 64.654C34.1836 65.5546 35.0869 65.3817 35.6873 64.9763C50.1388 62.2107 69.5964 45.2822 60.2276 29.8989C63.1725 29.5129 66.0173 29.1945 69.0298 28.9086C71.2391 28.7279 75.2925 28.9047 77.5291 27.6857C89.5063 48.0102 53.0721 65.4755 38.3631 70.0174Z" fill="black"/>
</g>
<defs>
<clipPath id="clip0_56_145">
<rect width="75" height="75" fill="white" transform="translate(0 41.9741) rotate(-34.0321)"/>
</clipPath>
</defs>
</svg>
