<svg width="100" height="100" viewBox="0 0 100 100" fill="none" xmlns="http://www.w3.org/2000/svg">
<g clip-path="url(#clip0_48_21)">
<path d="M44 0C40.7109 0 38 2.71094 38 6V12C38 13.0469 38.3672 14.1172 39.125 14.875C39.6875 15.4375 40.4063 15.7969 41.1875 15.9375C40.8906 16.1719 40.5234 16.3516 40.0625 16.4375H40C30.9141 18.4297 24 26.4453 24 36.1875V42C24 44.5156 25.7813 46.3047 28 47.1875V72.8125C25.7813 73.6953 24 75.4844 24 78V90C24 95.4922 28.5078 100 34 100H66C71.4922 100 76 95.4922 76 90V78C76 75.4844 74.2188 73.6953 72 72.8125V47.1875C74.2188 46.3047 76 44.5156 76 42V36.1875C76 26.4453 69.0859 18.4297 60 16.4375H59.9375C59.4766 16.3516 59.1094 16.1719 58.8125 15.9375C59.5938 15.7969 60.3125 15.4375 60.875 14.875C61.6328 14.1172 62 13.0469 62 12V6C62 2.71094 59.2891 0 56 0H44ZM44 4H56C57.1094 4 58 4.89063 58 6V12H42V6C42 4.89063 42.8906 4 44 4ZM45.3125 16H54.6875C55.4141 18.0938 56.8906 19.8594 59.1875 20.3125V20.375C59.2031 20.375 59.2344 20.375 59.25 20.375C66.5391 22 72 28.3516 72 36.1875V42C72 43.1094 71.1094 44 70 44H36V48H68V72H36V76H70C71.1094 76 72 76.8906 72 78V90C72 93.3125 69.3125 96 66 96H34C30.6875 96 28 93.3125 28 90V78C28 76.8906 28.8906 76 30 76H32V44H30C28.8906 44 28 43.1094 28 42V36.1875C28 28.3516 33.4609 22 40.75 20.375C40.7813 20.3672 40.7813 20.3203 40.8125 20.3125C43.1094 19.8594 44.5859 18.0938 45.3125 16Z" fill="#0099BB"/>
</g>
<defs>
<clipPath id="clip0_48_21">
<rect width="100" height="100" fill="white"/>
</clipPath>
</defs>
</svg>
