<svg width="100" height="100" viewBox="0 0 100 100" fill="none" xmlns="http://www.w3.org/2000/svg">
<g clip-path="url(#clip0_48_32)">
<path d="M63.1026 57.9163C67.8015 59.5388 71.0189 63.9781 71.0189 69.0309C71.0189 75.5241 65.7565 80.7865 59.2633 80.7865C54.9216 80.7865 51.0004 78.4152 48.9485 74.6758C48.3298 73.5483 46.9143 73.1357 45.7866 73.7544C44.659 74.3731 44.2465 75.7887 44.8652 76.9163C47.7271 82.1319 53.2042 85.4442 59.2633 85.4442C68.3287 85.4442 75.6765 78.0964 75.6765 69.031C75.6765 61.9767 71.1853 55.7799 64.6227 53.5139C63.407 53.0941 62.0812 53.7394 61.6614 54.9551C61.2415 56.1707 61.8868 57.4966 63.1025 57.9164L63.1026 57.9163Z" fill="#FCDC00"/>
<path d="M52.3404 53.6048C52.3404 47.1129 47.0767 41.8492 40.5848 41.8492C34.0929 41.8492 28.8292 47.1129 28.8292 53.6048C28.8292 60.0967 34.0929 65.3604 40.5848 65.3604C47.0767 65.3604 52.3404 60.0967 52.3404 53.6048ZM56.9979 53.6048C56.9979 62.669 49.649 70.018 40.5848 70.018C31.5206 70.018 24.1716 62.669 24.1716 53.6048C24.1716 44.5406 31.5206 37.1917 40.5848 37.1917C49.649 37.1917 56.9979 44.5406 56.9979 53.6048Z" fill="#FCDC00"/>
<path d="M3.89611 48.8283L47.72 5.58893C49.0746 4.25239 51.254 4.25603 52.6044 5.59746L96.1221 48.8229C97.0346 49.7293 98.5091 49.7243 99.4155 48.8118C100.322 47.8993 100.317 46.4248 99.4043 45.5184L55.8866 2.29295C52.7243 -0.848269 47.6214 -0.856797 44.4487 2.27351L0.624809 45.513C-0.290665 46.4163 -0.300671 47.8907 0.602749 48.8062C1.50617 49.7217 2.98064 49.7317 3.89611 48.8283Z" fill="#FCDC00"/>
<path d="M80.8682 33.0063V91.8076C80.8682 93.7364 79.3037 95.3008 77.375 95.3008H22.649C20.7202 95.3008 19.1558 93.7364 19.1558 91.8076V33.0063C19.1558 31.7201 18.1132 30.6775 16.8271 30.6775C15.5409 30.6775 14.4983 31.7201 14.4983 33.0063V91.8076C14.4983 96.3086 18.148 99.9583 22.649 99.9583H77.375C81.876 99.9583 85.5257 96.3086 85.5257 91.8076V33.0063C85.5257 31.7201 84.4831 30.6775 83.1969 30.6775C81.9108 30.6775 80.8682 31.7201 80.8682 33.0063Z" fill="#FCDC00"/>
</g>
<defs>
<clipPath id="clip0_48_32">
<rect width="100" height="100" fill="white"/>
</clipPath>
</defs>
</svg>
