<svg width="1669" height="914" viewBox="0 0 1669 914" fill="none" xmlns="http://www.w3.org/2000/svg">
<path d="M136.253 180.07C135.881 178.484 136.021 176.821 136.652 175.318C136.928 174.557 137.267 173.819 137.666 173.112C138.155 173.933 138.652 174.828 139.224 175.715C143.848 183.256 151.272 188.657 159.87 190.736C169.712 193.868 180.161 194.591 190.342 192.844C192.513 192.405 194.611 191.662 196.574 190.635C193.997 194.097 186.974 197.699 178.504 198.882C174.845 199.415 142.678 203.27 136.253 180.07L136.253 180.07ZM169.416 164.39C178.979 168.29 187.466 174.43 194.164 182.293C195.551 184.02 196.685 185.935 197.535 187.981C197.774 183.672 194.688 176.407 188.943 170.073C186.474 167.32 164.243 143.754 144.449 157.452L144.449 157.451C142.576 159.033 141.371 161.265 141.077 163.699C141.978 163.382 142.933 163.013 143.941 162.699C152.322 159.87 161.483 160.479 169.417 164.39L169.416 164.39ZM165.525 173.451C158.226 170.703 150.571 169.012 142.792 168.43C141.879 168.385 141.029 168.363 140.211 168.352L140.211 168.353C140.178 168.576 140.1 168.791 139.982 168.984C140.617 169.5 141.284 170.028 142.014 170.578L142.014 170.578C148.359 175.114 155.32 178.719 162.686 181.286C172.107 184.342 181.828 186.379 191.683 187.362C183.486 181.802 174.717 177.139 165.525 173.451Z" fill="black"/>
<path d="M514.305 804.07C515.167 802.688 516.444 801.613 517.953 801C518.688 800.658 519.45 800.377 520.231 800.161C519.996 801.086 519.712 802.07 519.488 803.102C517.409 811.7 518.823 820.771 523.418 828.329C528.145 837.512 535.009 845.425 543.431 851.404C545.274 852.633 547.282 853.594 549.395 854.26C545.124 854.878 537.615 852.445 530.799 847.28C527.839 845.063 502.405 824.996 514.306 804.071L514.305 804.07ZM548.819 816.497C552.807 826.025 554.447 836.371 553.604 846.665C553.359 848.866 552.803 851.022 551.953 853.068C555.174 850.196 558.143 842.883 558.576 834.342C558.784 830.65 559.788 798.268 536.113 793.913L536.114 793.913C533.671 793.703 531.24 794.425 529.308 795.933C530.168 796.348 531.104 796.765 532.037 797.257C539.957 801.198 545.991 808.117 548.82 816.498L548.819 816.497ZM539.654 820.136C536.449 813.025 532.244 806.41 527.167 800.488C526.554 799.809 525.97 799.192 525.401 798.605L525.4 798.605C525.218 798.739 525.011 798.836 524.791 798.888C524.874 799.702 524.97 800.547 525.096 801.452L525.096 801.452C526.361 809.149 528.719 816.624 532.1 823.654C536.584 832.486 542.002 840.81 548.262 848.485C546.415 838.754 543.529 829.251 539.654 820.136Z" fill="black"/>
<path d="M863.431 81.5711C862.864 83.0981 861.828 84.407 860.472 85.3101C859.821 85.792 859.13 86.2195 858.408 86.5882C858.454 85.6341 858.534 84.6135 858.547 83.5581C858.862 74.7178 855.66 66.1131 849.644 59.6286C843.173 51.5789 834.864 45.2012 825.415 41.0304C823.363 40.1958 821.203 39.6558 819 39.4265C823.061 37.9658 830.904 38.8459 838.617 42.5406C841.961 44.1191 870.899 58.6856 863.431 81.5705L863.431 81.5711ZM827.127 76.3087C821.313 67.7728 817.633 57.9654 816.397 47.7107C816.197 45.5047 816.309 43.2818 816.732 41.1069C814.152 44.5659 812.708 52.3257 813.994 60.7803C814.53 64.4391 820.032 96.3651 844.1 95.8905L844.099 95.8908C846.534 95.6075 848.772 94.4131 850.362 92.548C849.436 92.3138 848.436 92.0933 847.423 91.7982C838.875 89.5231 831.577 83.9527 827.127 76.3082L827.127 76.3087ZM835.378 70.9082C839.942 77.2325 845.387 82.8722 851.548 87.6572C852.284 88.1991 852.98 88.6869 853.655 89.1483L853.656 89.1479C853.807 88.9798 853.991 88.8438 854.196 88.7482C853.952 87.9671 853.688 87.1592 853.383 86.2974L853.384 86.297C850.603 79.01 846.795 72.1583 842.074 65.9481C835.912 58.1937 828.936 51.1232 821.267 44.8577C825.025 54.0212 829.756 62.7543 835.378 70.9082Z" fill="black"/>
<path d="M1225.56 623.714C1224.66 622.361 1224.2 620.755 1224.26 619.127C1224.25 618.317 1224.31 617.507 1224.43 616.706C1225.18 617.3 1225.96 617.962 1226.81 618.59C1233.79 624.013 1242.65 626.446 1251.42 625.356C1261.74 624.812 1271.77 621.799 1280.68 616.571C1282.56 615.394 1284.26 613.958 1285.73 612.304C1284.54 616.453 1279.24 622.302 1271.73 626.399C1268.5 628.19 1239.76 643.152 1225.56 623.714L1225.56 623.714ZM1251.06 597.336C1261.38 597.609 1271.49 600.357 1280.53 605.35C1282.44 606.477 1284.17 607.868 1285.69 609.482C1284.39 605.366 1278.94 599.658 1271.33 595.76C1268.05 594.055 1238.93 579.855 1225.25 599.659L1225.25 599.658C1224.05 601.799 1223.71 604.313 1224.3 606.694C1225.03 606.079 1225.79 605.397 1226.62 604.747C1233.47 599.142 1242.25 596.477 1251.06 597.336L1251.06 597.336ZM1250.61 607.187C1242.81 607.193 1235.06 608.314 1227.57 610.515C1226.7 610.795 1225.9 611.074 1225.13 611.353L1225.13 611.354C1225.18 611.574 1225.18 611.803 1225.14 612.025C1225.91 612.284 1226.72 612.542 1227.6 612.799L1227.6 612.8C1235.14 614.803 1242.93 615.719 1250.72 615.52C1260.62 615.054 1270.43 613.528 1280 610.968C1270.37 608.66 1260.52 607.393 1250.61 607.187Z" fill="black"/>
<path d="M1619.56 330.053C1618.52 331.306 1617.11 332.2 1615.53 332.604C1614.76 332.843 1613.97 333.019 1613.16 333.128C1613.52 332.242 1613.94 331.306 1614.3 330.314C1617.52 322.075 1617.34 312.895 1613.8 304.787C1610.36 295.051 1604.62 286.285 1597.08 279.226C1595.42 277.76 1593.56 276.537 1591.56 275.592C1595.87 275.555 1602.98 278.978 1609.04 285.014C1611.68 287.61 1634.17 310.922 1619.56 330.052L1619.56 330.053ZM1587.04 313.088C1584.37 303.11 1584.14 292.637 1586.36 282.55C1586.9 280.402 1587.74 278.341 1588.86 276.428C1585.28 278.84 1581.36 285.687 1579.78 294.091C1579.07 297.722 1573.71 329.672 1596.58 337.178L1596.58 337.179C1598.98 337.716 1601.48 337.328 1603.6 336.094C1602.8 335.566 1601.93 335.028 1601.07 334.415C1593.76 329.442 1588.71 321.773 1587.04 313.087L1587.04 313.088ZM1596.61 310.717C1598.83 318.195 1602.1 325.317 1606.34 331.869C1606.85 332.624 1607.35 333.315 1607.83 333.973L1607.83 333.973C1608.03 333.864 1608.25 333.797 1608.47 333.774C1608.5 332.956 1608.52 332.107 1608.52 331.193L1608.52 331.193C1608.3 323.396 1606.97 315.67 1604.57 308.249C1601.32 298.894 1597.07 289.915 1591.9 281.467C1592.42 291.358 1594 301.164 1596.61 310.717Z" fill="black"/>
<path d="M485.618 314.095C483.87 305.723 480.085 298.477 476.459 296.137L476.458 296.138C475.598 295.516 474.547 295.213 473.488 295.281C469.173 295.331 462.11 299.448 456.174 305.605C453.592 308.252 431.566 332.009 446.556 350.844C448.26 352.606 450.567 353.658 453.015 353.79C453.979 353.963 454.939 354.03 455.792 354.101C456.438 354.147 457.08 354.227 457.717 354.341C457.942 354.36 458.161 354.423 458.362 354.527C458.962 354.77 459.548 355.044 460.119 355.349C460.879 355.743 461.727 356.197 462.635 356.564C463.367 356.914 464.126 357.203 464.904 357.428C466.445 357.957 468.114 357.985 469.672 357.509C492.39 349.548 486.393 317.711 485.618 314.095L485.618 314.095ZM448.513 349.275C434.888 332.127 455.582 309.841 457.97 307.382C460.908 304.29 464.295 301.66 468.018 299.579C460.621 306.787 455.062 315.666 451.811 325.468C448.438 333.646 448.444 342.827 451.826 351C450.557 350.821 449.387 350.212 448.512 349.276L448.513 349.275ZM458.747 351.981C458.378 351.879 458.002 351.806 457.622 351.761C457.683 343.962 458.858 336.211 461.112 328.744C464.177 319.325 468.244 310.264 473.242 301.714C472.921 311.612 471.539 321.448 469.119 331.052C467.051 338.573 463.919 345.759 459.817 352.394C459.471 352.229 459.114 352.091 458.747 351.981ZM468.852 355.14C467.612 355.467 466.298 355.359 465.128 354.835C472.343 349.717 477.236 341.949 478.736 333.232C481.203 323.202 481.225 312.727 478.801 302.687C480.845 306.431 482.311 310.461 483.152 314.642C483.864 317.995 489.513 347.879 468.852 355.139L468.852 355.14Z" fill="black"/>
<path d="M1512.55 814.842C1506.01 809.328 1498.56 805.956 1494.27 806.35L1494.27 806.35C1493.21 806.392 1492.19 806.801 1491.4 807.507C1488.03 810.207 1485.01 817.803 1484.13 826.31C1483.73 829.986 1481.04 862.27 1504.45 867.858C1506.88 868.195 1509.34 867.602 1511.35 866.196C1512.22 865.738 1513.01 865.199 1513.73 864.729C1514.27 864.368 1514.82 864.034 1515.39 863.732C1515.58 863.607 1515.79 863.522 1516.02 863.48C1516.64 863.302 1517.27 863.156 1517.91 863.044C1518.75 862.885 1519.7 862.72 1520.64 862.449C1521.43 862.274 1522.2 862.034 1522.96 861.731C1524.5 861.198 1525.83 860.191 1526.76 858.856C1539.74 838.582 1515.39 817.212 1512.55 814.843L1512.55 814.842ZM1505.02 865.417C1483.72 860.315 1486.28 830.01 1486.64 826.602C1487.05 822.356 1488.1 818.197 1489.74 814.263C1488.36 824.499 1489.46 834.917 1492.94 844.64C1495.33 853.157 1500.99 860.382 1508.7 864.733C1507.59 865.374 1506.29 865.616 1505.02 865.418L1505.02 865.417ZM1514.75 861.238C1514.4 861.385 1514.06 861.559 1513.73 861.759C1508.97 855.58 1505.11 848.754 1502.29 841.484C1498.89 832.179 1496.51 822.537 1495.17 812.724C1501.02 820.715 1506 829.312 1510.01 838.366C1513.02 845.562 1514.99 853.151 1515.85 860.904C1515.47 860.987 1515.11 861.099 1514.75 861.238ZM1524.65 857.496C1523.88 858.517 1522.78 859.243 1521.53 859.551C1524.06 851.074 1523.12 841.941 1518.93 834.152C1514.69 824.735 1508.25 816.474 1500.15 810.062C1504.07 811.75 1507.71 814.02 1510.95 816.794C1513.57 818.994 1536.44 839.041 1524.65 857.495L1524.65 857.496Z" fill="black"/>
<path d="M710.655 582.146C702.617 585.067 695.984 589.846 694.184 593.768L694.184 593.768C693.692 594.708 693.542 595.791 693.76 596.83C694.423 601.094 699.504 607.499 706.443 612.498C709.431 614.677 736.082 633.097 752.59 615.578C754.092 613.641 754.805 611.207 754.587 608.765C754.621 607.786 754.551 606.826 754.5 605.972C754.454 605.326 754.441 604.679 754.464 604.033C754.45 603.807 754.481 603.581 754.556 603.368C754.71 602.74 754.899 602.12 755.119 601.512C755.401 600.703 755.73 599.799 755.963 598.848C756.206 598.074 756.384 597.282 756.496 596.479C756.8 594.879 756.59 593.223 755.897 591.749C744.783 570.395 714.124 580.863 710.655 582.146L710.655 582.146ZM750.759 613.865C735.726 629.792 710.72 612.481 707.947 610.468C704.468 608 701.382 605.021 698.792 601.632C706.98 607.928 716.56 612.166 726.726 613.989C735.3 616.163 744.386 614.851 751.995 610.339C751.998 611.621 751.562 612.865 750.76 613.865L750.759 613.865ZM751.981 603.349C751.933 603.728 751.913 604.111 751.923 604.494C744.194 605.544 736.356 605.485 728.643 604.317C718.885 602.623 709.336 599.888 700.162 596.158C710.005 595.066 719.938 595.035 729.789 596.063C737.527 597.039 745.086 599.116 752.237 602.231C752.123 602.597 752.038 602.97 751.981 603.349ZM753.669 592.898C754.169 594.078 754.249 595.394 753.897 596.627C747.804 590.213 739.418 586.476 730.576 586.233C720.298 585.219 709.927 586.688 700.334 590.517C703.748 587.961 707.529 585.936 711.548 584.508C714.765 583.326 743.54 573.48 753.668 592.898L753.669 592.898Z" fill="black"/>
<path d="M98.2693 698.175C98.571 689.628 96.6248 681.687 93.6618 678.55L93.6615 678.55C92.9741 677.741 92.0263 677.196 90.9815 677.009C86.7791 676.027 78.9379 678.34 71.7033 682.902C68.5642 684.856 41.5036 702.668 51.5644 724.537C52.7982 726.654 54.788 728.228 57.1334 728.939C58.0284 729.338 58.9447 729.632 59.7564 729.905C60.3719 730.104 60.9766 730.335 61.5677 730.597C61.7819 730.669 61.98 730.783 62.1498 730.932C62.6743 731.311 63.1779 731.717 63.6597 732.149C64.3043 732.713 65.0191 733.357 65.8137 733.93C66.4401 734.445 67.1081 734.907 67.8106 735.311C69.1807 736.192 70.7946 736.618 72.4207 736.528C96.3826 734.22 98.1593 701.872 98.2691 698.175L98.2693 698.175ZM53.8391 723.48C44.7016 703.576 70.1176 686.874 73.0233 685.056C76.6143 682.755 80.532 681.009 84.644 679.877C75.74 685.111 68.2224 692.406 62.7245 701.149C57.4976 708.286 55.3114 717.202 56.6451 725.947C55.4554 725.47 54.4648 724.6 53.8385 723.481L53.8391 723.48ZM63.132 728.551C62.7979 728.365 62.4501 728.203 62.0912 728.069C64.0123 720.51 67.0034 713.264 70.975 706.55C76.1999 698.136 82.3123 690.307 89.2072 683.198C86.5325 692.733 82.8419 701.955 78.1992 710.704C74.3959 717.513 69.639 723.744 64.0722 729.208C63.7758 728.965 63.4613 728.746 63.132 728.551ZM72.19 734.031C70.9084 734.052 69.6579 733.634 68.647 732.846C76.8753 729.599 83.4811 723.223 87.0183 715.115C91.8081 705.965 94.33 695.798 94.3734 685.469C95.4639 689.593 95.9261 693.857 95.7444 698.118C95.6356 701.544 93.9879 731.912 72.1906 734.03L72.19 734.031Z" fill="black"/>
<path d="M1139.65 211.165C1136.36 219.06 1135.39 227.178 1137.07 231.157L1137.07 231.157C1137.43 232.156 1138.12 232.999 1139.03 233.541C1142.62 235.937 1150.78 236.528 1159.15 234.8C1162.78 234.073 1194.37 226.907 1192.64 202.897C1192.23 200.481 1190.92 198.309 1188.97 196.818C1188.28 196.131 1187.52 195.533 1186.86 194.993C1186.35 194.59 1185.87 194.162 1185.4 193.708C1185.23 193.565 1185.08 193.389 1184.98 193.19C1184.62 192.651 1184.29 192.094 1183.99 191.52C1183.59 190.765 1183.14 189.911 1182.6 189.096C1182.19 188.393 1181.73 187.726 1181.22 187.101C1180.24 185.795 1178.88 184.829 1177.33 184.342C1154.08 178.082 1141.05 207.742 1139.65 211.165L1139.65 211.165ZM1190.14 203.087C1191.7 224.933 1162.03 231.638 1158.67 232.319C1154.5 233.211 1150.22 233.469 1145.98 233.084C1156.15 231.313 1165.75 227.125 1173.97 220.871C1181.37 216.027 1186.55 208.447 1188.38 199.792C1189.32 200.656 1189.95 201.819 1190.14 203.086L1190.14 203.087ZM1183.22 195.074C1183.47 195.366 1183.74 195.639 1184.03 195.891C1179.57 202.293 1174.22 208.026 1168.15 212.915C1160.3 218.957 1151.82 224.138 1142.87 228.371C1148.73 220.384 1155.42 213.047 1162.84 206.488C1168.8 201.45 1175.44 197.288 1182.57 194.128C1182.76 194.46 1182.98 194.776 1183.22 195.074ZM1176.67 186.761C1177.87 187.191 1178.9 188.022 1179.57 189.115C1170.72 189.263 1162.3 192.911 1156.14 199.258C1148.44 206.142 1142.5 214.774 1138.83 224.429C1139.26 220.185 1140.33 216.031 1141.99 212.105C1143.3 208.936 1155.51 181.084 1176.67 186.761L1176.67 186.761Z" fill="black"/>
</svg>
