<svg width="95" height="95" viewBox="0 0 95 95" fill="none" xmlns="http://www.w3.org/2000/svg">
<path d="M68.9354 0H27.6469C24.1822 0 21.3753 2.80825 21.3753 6.27315V9.5H21.3745V14.25C20.5 14.25 19.7913 14.9588 19.7913 15.8333V17.4165C19.7913 18.291 20.5 18.9998 21.3745 18.9998V20.5831C20.5 20.5831 19.7913 21.2919 19.7913 22.1664V23.75C19.7913 24.6245 20.5 25.3333 21.3745 25.3333V26.9165C20.5 26.9165 19.7913 27.6255 19.7913 28.4998V30.0831C19.7913 30.9576 20.5 31.6664 21.3745 31.6664V82.3331H21.3753V88.7267C21.3753 92.1916 24.1822 94.9998 27.6469 94.9998H68.9356C72.4003 94.9998 75.2087 92.1914 75.2087 88.7267V6.27315C75.2085 2.80844 72.4003 0 68.9354 0ZM24.542 6.27315C24.542 4.55685 25.9316 3.16673 27.6469 3.16673H68.9356C70.6515 3.16673 72.042 4.5574 72.042 6.27315V9.5H24.542V6.27315ZM48.2913 90.25C46.5421 90.25 45.1245 88.8324 45.1245 87.0833C45.1245 85.3341 46.5421 83.9165 48.2913 83.9165C50.0404 83.9165 51.458 85.3341 51.458 87.0833C51.458 88.8324 50.0402 90.25 48.2913 90.25ZM24.542 12.6667H72.0413V79.1667H24.542V12.6667ZM24.542 88.7268V82.3333H44.1042C42.7887 83.4937 41.958 85.1909 41.958 87.0833C41.958 88.9757 42.7887 90.6729 44.1042 91.8333H27.6469C25.9314 91.8333 24.542 90.4431 24.542 88.7268ZM68.9354 91.8333H52.4781C53.7936 90.6729 54.6243 88.9757 54.6243 87.0833C54.6243 85.1909 53.7936 83.4937 52.4781 82.3333H72.0418V88.7268C72.042 90.4428 70.6513 91.8333 68.9354 91.8333Z" fill="black"/>
<path d="M54.6245 4.75H46.7078C45.8333 4.75 45.1245 5.45897 45.1245 6.33327C45.1245 7.20757 45.8333 7.91654 46.7078 7.91654H54.6245C55.499 7.91654 56.2078 7.20775 56.2078 6.33327C56.2078 5.45879 55.499 4.75 54.6245 4.75Z" fill="black"/>
<path d="M41.9578 4.75H40.3745C39.5 4.75 38.7913 5.45897 38.7913 6.33327C38.7913 7.20757 39.5 7.91654 40.3745 7.91654H41.9578C42.8323 7.91654 43.5411 7.20775 43.5411 6.33327C43.5411 5.45879 42.8323 4.75 41.9578 4.75Z" fill="black"/>
<path d="M62.1278 52.9785C61.5414 52.2374 60.7473 51.4904 59.7904 50.7339C59.1249 50.2077 58.4179 49.7066 57.7116 49.2445C57.2867 48.9666 56.9525 48.7608 56.7527 48.6439C55.0234 47.6602 53.0163 47.7904 51.9746 49.4611C51.7845 49.6874 51.5228 49.9934 51.2545 50.297C51.2157 50.3408 51.2157 50.3408 51.1772 50.3842C50.889 50.7078 50.6177 50.9876 50.642 50.9711C49.5987 51.6782 48.9595 51.6259 48.0386 50.705L44.5361 47.2039L41.034 43.7019C40.1147 42.7816 40.0623 42.1418 40.7691 41.0992C40.7529 41.123 41.0329 40.8517 41.3565 40.5636C41.3999 40.525 41.3999 40.525 41.4437 40.4862C41.7471 40.2179 42.0533 39.9563 42.2796 39.7661C43.9508 38.7239 44.0807 36.7157 43.1044 35.0042C42.978 34.7886 42.7724 34.4544 42.4945 34.0293C42.0325 33.323 41.5315 32.616 41.0055 31.9507C40.2507 30.9956 39.5053 30.2028 38.7661 29.6168C38.4381 29.3567 38.1111 29.1378 37.7816 28.9633C36.2364 28.146 34.3414 28.4318 33.1041 29.6664L31.5571 31.2151C26.3541 36.4164 27.7886 42.619 33.9721 48.8026L38.4544 53.2863L42.9389 57.7691C49.1222 63.9525 55.3249 65.3871 60.5269 60.1833L62.0736 58.6366C63.3093 57.4008 63.5951 55.5049 62.7779 53.96C62.6042 53.6311 62.3864 53.3054 62.1278 52.9785ZM59.8344 56.3968L58.2875 57.9437C54.6009 61.6317 50.2813 60.6327 45.1779 55.5292L40.6938 51.0466L36.2117 46.563C31.108 41.4594 30.109 37.1398 33.7968 33.4534L35.343 31.9057C35.5962 31.653 35.9844 31.5946 36.3009 31.762C36.4466 31.839 36.6147 31.9518 36.7993 32.098C37.3162 32.5079 37.9055 33.1346 38.5214 33.9139C38.983 34.498 39.4309 35.13 39.8447 35.7625C40.0922 36.1409 40.2711 36.4316 40.3633 36.589C40.588 36.9829 40.5791 37.0935 40.5854 37.0899L40.346 37.2549C40.282 37.3083 40.1726 37.4003 40.0327 37.5195C39.7994 37.718 39.566 37.9197 39.3465 38.1136C39.2984 38.1561 39.2984 38.1561 39.2504 38.1989C38.67 38.7161 38.3466 39.0293 38.1477 39.323C36.5993 41.6076 36.7893 43.9331 38.7945 45.9403L42.2974 49.4433L45.8 52.9444C47.8069 54.9512 50.1327 55.142 52.4183 53.5926C52.7114 53.3941 53.0246 53.0709 53.5418 52.4903C53.5846 52.4423 53.5846 52.4423 53.6271 52.3942C53.821 52.1747 54.0229 51.9413 54.2212 51.7081C54.3404 51.5682 54.4324 51.4587 54.4858 51.3947L54.6508 51.1553C54.6474 51.1614 54.7586 51.1523 55.1694 51.3861C55.3091 51.4681 55.5997 51.647 55.978 51.8945C56.6105 52.3083 57.2425 52.7562 57.8266 53.218C58.6072 53.8352 59.2347 54.4256 59.6444 54.9433C59.7897 55.1269 59.9018 55.2945 59.9788 55.44C60.1459 55.7563 60.0875 56.1435 59.8344 56.3968Z" fill="black"/>
<path d="M40.3745 26.9167C43.0007 26.9167 45.1245 29.0405 45.1245 31.6667C45.1245 32.5412 45.8333 33.25 46.7077 33.25C47.5822 33.25 48.291 32.5412 48.291 31.6667C48.291 27.2915 44.7495 23.75 40.3743 23.75C39.4998 23.75 38.791 24.4588 38.791 25.3333C38.791 26.2078 39.5 26.9167 40.3745 26.9167Z" fill="black"/>
<path d="M59.3745 42.75C58.5 42.75 57.7913 43.4588 57.7913 44.3333C57.7913 45.2078 58.5 45.9165 59.3745 45.9165C62.0008 45.9165 64.1245 48.0403 64.1245 50.6665C64.1245 51.541 64.8335 52.2498 65.7078 52.2498C66.5821 52.2498 67.2911 51.5408 67.2911 50.6665C67.2913 46.2915 63.7497 42.75 59.3745 42.75Z" fill="black"/>
</svg>
