<svg width="346" height="346" viewBox="0 0 346 346" fill="none" xmlns="http://www.w3.org/2000/svg">
<g clip-path="url(#clip0_164_22)">
<path d="M333.16 225.042C326.533 224.548 312.856 231.951 309.119 233.854C295.794 240.552 277.252 251.057 265.055 259.447C264.209 260.011 263.081 260.786 262.235 261.35C256.736 264.875 250.955 267.202 244.539 268.612C209.147 276.156 157.61 276.931 157.61 276.931L154.579 277.072C152.323 277.213 150.278 275.592 149.996 273.406C149.644 271.009 151.406 268.753 153.944 268.541L230.58 261.28C239.04 260.363 245.738 252.467 244.821 243.584C243.905 234.7 235.727 228.214 227.266 229.131L159.091 228.285C154.438 228.214 147.035 227.086 142.593 225.747C98.6706 212.915 73.8539 224.901 60.67 230.541C57.7089 225.676 52.1393 222.504 45.9351 222.927L16.5357 224.901C6.73595 225.535 -0.596261 233.713 0.0382573 243.161L4.76189 308.446C5.46691 317.893 13.9272 325.014 23.7269 324.309L53.1263 322.334C59.3305 321.911 64.4066 318.104 66.5922 312.887L195.752 318.457C210.134 320.008 223.6 318.245 236.291 311.618L239.957 309.715L337.602 252.608C342.396 249.788 345.78 244.923 345.992 239.565C346.203 233.008 342.467 225.747 333.16 225.042ZM34.5137 308.869C29.0146 308.869 24.5025 304.568 24.5025 299.21C24.5025 293.852 29.0146 289.551 34.5137 289.551C40.0129 289.551 44.525 293.852 44.525 299.21C44.525 304.568 40.0129 308.869 34.5137 308.869ZM260.543 247.532C260.684 245.769 260.684 243.936 260.473 242.103C260.261 239.777 259.697 237.591 258.992 235.476C259.063 235.335 259.133 235.194 259.133 235.053C269.427 229.413 289.59 219.683 300.588 215.383C306.088 213.197 311.516 213.338 316.522 216.722C312.574 218.132 308.908 219.895 305.453 221.587C293.891 227.368 273.516 238.437 263.575 245.417C262.588 246.122 261.53 246.827 260.543 247.532ZM290.013 208.826C282.046 212.351 266.747 217.709 259.486 221.728L254.551 224.407C254.057 224.689 253.634 224.971 253.211 225.324C251.025 222.715 248.417 220.53 245.526 218.767C252.295 215.171 267.382 210.307 274.221 207.628C279.72 205.442 285.007 205.583 290.013 208.826ZM81.0451 164.269C81.0451 160.18 84.3587 156.866 88.4478 156.866H272.952C277.041 156.866 280.354 160.18 280.354 164.269C280.354 168.358 277.041 171.672 272.952 171.672H88.3773C84.3587 171.672 81.0451 168.358 81.0451 164.269ZM81.0451 191.06C81.0451 186.971 84.3587 183.657 88.4478 183.657H272.952C277.041 183.657 280.354 186.971 280.354 191.06C280.354 195.149 277.041 198.462 272.952 198.462H88.3773C84.3587 198.462 81.0451 195.149 81.0451 191.06ZM246.231 83.4031C246.231 89.1843 241.508 93.9079 235.727 93.9079C229.945 93.9079 225.222 89.1843 225.222 83.4031C225.222 77.6219 229.945 72.8983 235.727 72.8983C241.578 72.8983 246.231 77.6219 246.231 83.4031ZM136.037 83.4031C136.037 89.1843 131.313 93.9079 125.532 93.9079C119.751 93.9079 115.027 89.1843 115.027 83.4031C115.027 77.6219 119.751 72.8983 125.532 72.8983C131.313 72.8983 136.037 77.6219 136.037 83.4031ZM263.152 21.6433H98.1771C88.6593 21.6433 80.9041 29.3985 80.9041 38.9163V127.89C80.9041 137.408 88.6593 145.163 98.1771 145.163H263.152C272.67 145.163 280.425 137.408 280.425 127.89V38.9163C280.425 29.3985 272.67 21.6433 263.152 21.6433ZM265.69 111.322C264.28 110.969 262.87 110.758 261.389 110.758C251.731 110.758 243.905 118.584 243.905 128.242C243.905 128.947 243.975 129.723 244.046 130.428H115.944C116.155 129.37 116.226 128.313 116.226 127.185C116.226 117.526 108.4 109.7 98.7411 109.7C97.6836 109.7 96.6965 109.771 95.639 109.982V56.8238C96.626 57.0353 97.6836 57.1058 98.7411 57.1058C108.4 57.1058 116.226 49.2801 116.226 39.6213C116.226 38.4933 116.085 37.4358 115.944 36.3782H244.398C244.046 37.7178 243.834 39.1983 243.834 40.6789C243.834 50.3376 251.66 58.1634 261.319 58.1634C262.799 58.1634 264.28 57.9519 265.619 57.5993V111.322H265.69ZM180.664 45.5435C159.725 45.5435 142.805 62.5345 142.805 83.4031C142.805 104.342 159.796 121.263 180.664 121.263C201.604 121.263 218.524 104.272 218.524 83.4031C218.524 62.5345 201.604 45.5435 180.664 45.5435ZM180.664 105.329C168.538 105.329 158.738 95.4589 158.738 83.4031C158.738 71.2767 168.609 61.477 180.664 61.477C192.791 61.477 202.591 71.3472 202.591 83.4031C202.591 95.5294 192.791 105.329 180.664 105.329Z" fill="black"/>
</g>
<defs>
<clipPath id="clip0_164_22">
<rect width="346" height="346" fill="white"/>
</clipPath>
</defs>
</svg>
