<svg width="424" height="320" viewBox="0 0 424 320" fill="none" xmlns="http://www.w3.org/2000/svg">
<g clip-path="url(#clip0_419_174)">
<path d="M243.634 6.5546C225.416 10.5296 209.93 25.7671 205.706 44.0687C204.795 47.878 204.464 52.3499 204.712 58.3124C204.961 66.2624 205.209 67.5874 207.777 72.8046C212.828 82.9905 222.103 90.278 232.786 92.3484L237.589 93.2593L233.531 96.9859C220.198 108.911 212.828 126.301 212.828 145.762C212.828 158.93 215.478 166.88 223.18 176.237L226.906 180.792L223.345 181.703C213.325 184.27 206.948 187.169 198.336 192.883C182.187 203.566 170.759 219.466 165.625 238.43C163.058 247.705 162.395 266.834 164.3 274.453C166.205 281.989 170.511 290.601 175.066 296.233C177.219 298.966 178.875 301.201 178.709 301.367C177.716 302.444 158.669 303.603 149.477 303.189C90.5141 300.456 39.9156 262.694 20.7859 207.126C17.7219 198.183 13.4984 180.378 14.2437 179.633C14.4094 179.384 19.6266 184.353 25.6719 190.647C69.5625 235.531 74.6969 240.5 77.4297 240.5C81.0734 240.5 83.6406 237.601 83.6406 233.461C83.6406 229.983 87.6156 234.372 35.2781 181.123L22.8562 168.536L26.0859 168.95C33.4562 169.944 50.5984 174.581 58.3828 177.728C83.8062 187.748 105.834 205.056 122.397 227.912C128.939 237.022 138.297 255.737 141.609 266.586C145.916 280.25 146.081 280.581 148.648 281.823C151.63 283.231 154.445 282.32 156.764 279.256C158.503 276.937 158.503 276.855 156.93 270.975C149.145 240.086 130.761 211.184 105.337 189.901L101.859 186.92L100.948 177.48C99.7891 166.051 100.452 143.941 102.273 132.016C107.491 97.4827 121.155 64.9374 141.858 37.6093L147.82 29.8249L148.069 109.408L148.234 189.073L150.387 190.73C153.866 193.462 158.669 192.8 160.325 189.405C160.739 188.576 161.236 152.139 161.484 108.414L161.898 28.914L167.364 35.953C180.614 52.9296 192.291 74.6265 199.247 94.9984C203.387 107.337 204.133 108.248 209.267 107.834C211.337 107.669 212.745 106.923 213.905 105.35C215.478 103.197 215.561 102.7 214.567 98.7249C212.994 92.514 206.617 75.703 202.394 67.0077C194.858 51.2734 185.086 35.953 173.741 22.2062C167.033 14.0077 162.23 11.1093 155.439 11.1093C148.234 11.1093 144.011 13.6765 136.558 22.6202C104.095 61.3765 85.8766 113.88 87.1187 164.975C87.2016 171.434 87.2016 176.651 86.9531 176.569C86.7047 176.403 82.3984 174.25 77.4297 171.683C67.9891 166.797 55.8156 161.994 48.1969 160.089C45.7125 159.509 43.4766 158.433 43.0625 157.687C40.4125 152.636 38.3422 121.25 40.0812 111.478L40.7437 107.917L44.4703 114.376C49.6047 123.237 50.1844 123.734 54.2422 123.734C61.7781 123.734 62.5234 118.103 56.3125 107.917C54.0766 104.108 52.4203 100.878 52.6687 100.63C52.9172 100.381 58.4656 102.948 65.0078 106.261C73.9516 110.816 77.5125 112.223 79.0031 111.809C83.1437 110.816 85.2141 106.841 83.7234 102.866C82.7297 100.133 74.2828 95.0812 61.2812 89.4499C53.2484 85.9718 51.0125 85.3093 46.7891 85.3921C38.9219 85.4749 32.2969 89.6984 29.5641 96.4062C26.3344 104.108 25.2578 133.672 27.5766 148.826L28.6531 156.197L26.1687 155.7C21.2828 154.872 6.79062 154.126 4.72031 154.706C0.496875 155.7 0 157.108 0 166.631C0 187.417 5.87969 210.439 16.4797 231.391C48.1969 294.08 117.428 327.37 186.908 313.375L194.527 311.884L200.986 314.037L207.445 316.273L290.672 316.522C384.25 316.77 381.269 316.936 394.187 310.725C403.628 306.17 413.897 296.067 418.369 286.875C423.337 276.689 424.248 271.803 423.752 257.476C423.337 243.233 421.681 236.028 416.464 224.931C410.916 212.923 400.647 200.501 391.206 194.208L387.562 191.806L393.111 190.067C406.775 185.926 417.955 174.498 422.344 160.255C424.662 152.967 424.58 139.137 422.344 129.531C415.884 102.534 392.697 82.7421 364.706 80.1749C359.158 79.678 358.661 79.5124 359.737 78.2702C363.878 73.5499 366.114 65.4343 366.114 55.5796C366.031 40.9218 361.891 30.8187 351.622 20.5499C343.92 12.9312 336.219 8.62492 326.447 6.5546C318.166 4.81554 251.667 4.81554 243.634 6.5546ZM324.211 19.8046C335.556 22.7859 344.831 30.4046 349.717 40.6734C351.953 45.4765 352.367 47.464 352.616 54.2546C352.947 60.7968 352.698 62.8671 351.373 65.8484C348.061 73.3015 341.436 78.4359 333.569 79.4296C327.027 80.3405 326.281 80.6718 324.956 83.239C323.466 86.2202 323.88 89.0359 326.281 91.4374C327.855 93.0109 329.097 93.0937 345.991 93.0937C366.942 93.0937 372.242 94.0046 382.18 98.8905C390.461 103.031 397.086 108.745 401.889 116.116C408.762 126.716 411.081 135.08 410.584 147.833C410.336 154.044 409.922 156.528 408.183 160.172C404.87 167.211 399.984 172.097 392.697 175.658L386.403 178.805L332.658 179.219C280.155 179.633 278.912 179.633 277.753 181.289C277.091 182.2 276.345 183.773 276.097 184.684C275.434 187.169 277.919 191.558 280.155 192.055C281.148 192.22 298.539 192.551 318.828 192.717C354.023 192.966 355.928 193.048 361.725 194.787C391.952 203.98 410.75 229.072 410.75 260.292C410.75 270.147 408.928 276.855 404.291 284.059C398.328 293.251 387.397 300.622 376.88 302.609C374.064 303.106 343.175 303.437 292.825 303.437C206.203 303.437 208.936 303.603 199.164 298.8C189.641 294.08 181.277 284.225 178.047 273.791C176.805 269.898 176.391 266.172 176.391 259.63C176.391 234.123 189.723 211.93 212 200.419C223.345 194.539 229.142 193.214 245.787 192.717C258.292 192.303 260.362 192.055 262.102 190.647C263.675 189.405 264.172 188.245 264.172 185.844C264.172 181.455 261.687 179.633 254.897 178.887C244.131 177.811 233.78 170.523 228.977 160.586C226.823 156.362 226.492 154.458 226.244 147.336C225.83 137.15 227.155 131.105 232.041 121.25C238.583 107.917 252.247 97.4827 267.07 94.3359C271.045 93.5077 278.25 93.0937 290.341 93.0937C306.737 93.0937 307.98 93.0109 310.05 91.3546C312.866 89.1187 313.114 84.2327 310.464 81.8312C308.808 80.3405 306.572 80.2577 271.294 79.8437L233.945 79.4296L229.556 77.028C221.441 72.5562 217.797 66.014 217.797 56.3249C217.797 45.3109 221.855 35.953 229.722 28.7484C234.691 24.1937 239.991 21.378 246.367 19.7218C252.992 18.0655 317.752 18.1484 324.211 19.8046Z" fill="white"/>
<path d="M252.578 30.9843C251.584 31.978 250.922 33.7171 250.922 35.5389C250.922 39.5139 253.323 41.7499 257.464 41.7499C260.031 41.7499 261.108 41.253 262.433 39.5968C263.427 38.3546 264.172 36.5327 264.172 35.5389C264.172 34.5452 263.427 32.7233 262.433 31.4811C260.28 28.7483 255.145 28.4171 252.578 30.9843Z" fill="white"/>
<path d="M311.375 47.5469C310.381 48.5406 309.719 50.2797 309.719 52.1016C309.719 56.0766 312.12 58.3125 316.261 58.3125C318.828 58.3125 319.905 57.8156 321.23 56.1594C322.223 54.9172 322.969 53.0953 322.969 52.1016C322.969 51.1078 322.223 49.2859 321.23 48.0438C319.077 45.3109 313.942 44.9797 311.375 47.5469Z" fill="white"/>
<path d="M351.953 105.516C350.959 106.509 350.297 108.248 350.297 110.07C350.297 114.045 352.698 116.281 356.839 116.281C359.406 116.281 360.483 115.784 361.808 114.128C362.802 112.886 363.547 111.064 363.547 110.07C363.547 109.077 362.802 107.255 361.808 106.013C359.655 103.28 354.52 102.948 351.953 105.516Z" fill="white"/>
<path d="M278.25 113.797C277.256 114.791 276.594 116.53 276.594 118.352C276.594 122.327 278.995 124.562 283.136 124.562C285.703 124.562 286.78 124.066 288.105 122.409C289.098 121.167 289.844 119.345 289.844 118.352C289.844 117.358 289.098 115.536 288.105 114.294C285.952 111.561 280.817 111.23 278.25 113.797Z" fill="white"/>
<path d="M311.375 130.359C310.381 131.353 309.719 133.092 309.719 134.914C309.719 138.889 312.12 141.125 316.261 141.125C318.828 141.125 319.905 140.628 321.23 138.972C322.223 137.73 322.969 135.908 322.969 134.914C322.969 133.92 322.223 132.098 321.23 130.856C319.077 128.123 313.942 127.792 311.375 130.359Z" fill="white"/>
<path d="M286.531 146.922C285.538 147.916 284.875 149.655 284.875 151.477C284.875 155.452 287.277 157.688 291.417 157.688C293.984 157.688 295.061 157.191 296.386 155.534C297.38 154.292 298.125 152.47 298.125 151.477C298.125 150.483 297.38 148.661 296.386 147.419C294.233 144.686 289.098 144.355 286.531 146.922Z" fill="white"/>
<path d="M236.844 213.172C235.85 214.166 235.188 215.905 235.188 217.727C235.188 221.702 237.589 223.938 241.73 223.938C244.297 223.938 245.373 223.441 246.698 221.784C247.692 220.542 248.438 218.72 248.438 217.727C248.438 216.733 247.692 214.911 246.698 213.669C244.545 210.936 239.411 210.605 236.844 213.172Z" fill="white"/>
<path d="M319.656 238.016C318.663 239.009 318 240.748 318 242.57C318 246.545 320.402 248.781 324.542 248.781C327.109 248.781 328.186 248.284 329.511 246.628C330.505 245.386 331.25 243.564 331.25 242.57C331.25 241.577 330.505 239.755 329.511 238.513C327.358 235.78 322.223 235.448 319.656 238.016Z" fill="white"/>
<path d="M203.719 254.578C202.725 255.572 202.062 257.311 202.062 259.133C202.062 263.108 204.464 265.344 208.605 265.344C211.172 265.344 212.248 264.847 213.573 263.191C214.567 261.948 215.313 260.127 215.313 259.133C215.313 258.139 214.567 256.317 213.573 255.075C211.42 252.342 206.286 252.011 203.719 254.578Z" fill="white"/>
</g>
<defs>
<clipPath id="clip0_419_174">
<rect width="424" height="320" fill="white"/>
</clipPath>
</defs>
</svg>
