<svg width="1920" height="6612" viewBox="0 0 1920 6612" fill="none" xmlns="http://www.w3.org/2000/svg">
<path d="M959.495 53.7801C606.479 -43.6208 150.416 13.1964 -0.00585938 53.7801V6611.5H1919.99V53.7801C1724.59 94.3638 1312.51 151.181 959.495 53.7801Z" fill="url(#paint0_linear_420_190)"/>
<circle cx="1693" cy="326" r="36.5" stroke="white" stroke-width="15"/>
<circle cx="1735" cy="2517" r="36.5" stroke="white" stroke-width="15"/>
<circle cx="117" cy="1083" r="14.5" stroke="white" stroke-width="15"/>
<circle cx="114" cy="3213" r="14.5" stroke="white" stroke-width="15"/>
<circle cx="117" cy="541" r="36.5" stroke="white" stroke-width="15"/>
<circle cx="114" cy="2671" r="36.5" stroke="white" stroke-width="15"/>
<circle cx="1817.5" cy="717.5" r="20.5" stroke="white" stroke-width="6"/>
<circle cx="1817.5" cy="2894.5" r="20.5" stroke="white" stroke-width="6"/>
<circle cx="278.5" cy="192.5" r="20.5" stroke="white" stroke-width="6"/>
<circle cx="275.5" cy="2322.5" r="20.5" stroke="white" stroke-width="6"/>
<circle cx="1670.5" cy="1050.5" r="10.5" fill="white"/>
<circle cx="1670.5" cy="3227.5" r="10.5" fill="white"/>
<circle cx="178" cy="1367" r="36.5" stroke="white" stroke-width="15"/>
<circle cx="175" cy="3497" r="36.5" stroke="white" stroke-width="15"/>
<circle cx="302.5" cy="1758.5" r="20.5" stroke="white" stroke-width="6"/>
<circle cx="155.5" cy="2091.5" r="10.5" fill="white"/>
<circle cx="265.5" cy="822.5" r="10.5" fill="white"/>
<circle cx="262.5" cy="2952.5" r="10.5" fill="white"/>
<circle cx="129" cy="4758" r="14.5" stroke="white" stroke-width="15"/>
<circle cx="129" cy="4216" r="36.5" stroke="white" stroke-width="15"/>
<circle cx="290.5" cy="3867.5" r="20.5" stroke="white" stroke-width="6"/>
<circle cx="263" cy="5093" r="36.5" stroke="white" stroke-width="15"/>
<circle cx="277.5" cy="4497.5" r="10.5" fill="white"/>
<circle cx="1625" cy="2200" r="14.5" stroke="white" stroke-width="15"/>
<circle cx="1647" cy="4342" r="14.5" stroke="white" stroke-width="15"/>
<circle cx="1647" cy="1623" r="36.5" stroke="white" stroke-width="15"/>
<circle cx="1647" cy="3800" r="36.5" stroke="white" stroke-width="15"/>
<circle cx="1808.5" cy="1274.5" r="20.5" stroke="white" stroke-width="6"/>
<circle cx="1808.5" cy="3451.5" r="20.5" stroke="white" stroke-width="6"/>
<circle cx="1795.5" cy="1904.5" r="10.5" fill="white"/>
<circle cx="1795.5" cy="4081.5" r="10.5" fill="white"/>
<circle cx="1688.5" cy="4608.5" r="10.5" fill="white"/>
<circle cx="1665" cy="5181" r="36.5" stroke="white" stroke-width="15"/>
<circle cx="1826.5" cy="4832.5" r="20.5" stroke="white" stroke-width="6"/>
<circle cx="107.5" cy="5391.5" r="20.5" stroke="white" stroke-width="6"/>
<circle cx="1813.5" cy="5462.5" r="10.5" fill="white"/>
<defs>
<linearGradient id="paint0_linear_420_190" x1="2139" y1="1775.51" x2="-212" y2="1775.51" gradientUnits="userSpaceOnUse">
<stop stop-color="#0080FF" stop-opacity="0"/>
<stop offset="0.0001" stop-color="#124578"/>
<stop offset="0.510417" stop-color="#2376C9"/>
<stop offset="1" stop-color="#124578"/>
</linearGradient>
</defs>
</svg>
